%TF.GenerationSoftware,KiCad,Pcbnew,10.0.0*%
%TF.CreationDate,2026-04-04T19:21:56+02:00*%
%TF.ProjectId,Sthymuli-cardinalboard.kicad_pro,53746879-6d75-46c6-992d-63617264696e,rev?*%
%TF.SameCoordinates,Original*%
%TF.FileFunction,Soldermask,Top*%
%TF.FilePolarity,Negative*%
%FSLAX46Y46*%
G04 Gerber Fmt 4.6, Leading zero omitted, Abs format (unit mm)*
G04 Created by KiCad (PCBNEW 10.0.0) date 2026-04-04 19:21:56*
%MOMM*%
%LPD*%
G01*
G04 APERTURE LIST*
G04 Aperture macros list*
%AMRoundRect*
0 Rectangle with rounded corners*
0 $1 Rounding radius*
0 $2 $3 $4 $5 $6 $7 $8 $9 X,Y pos of 4 corners*
0 Add a 4 corners polygon primitive as box body*
4,1,4,$2,$3,$4,$5,$6,$7,$8,$9,$2,$3,0*
0 Add four circle primitives for the rounded corners*
1,1,$1+$1,$2,$3*
1,1,$1+$1,$4,$5*
1,1,$1+$1,$6,$7*
1,1,$1+$1,$8,$9*
0 Add four rect primitives between the rounded corners*
20,1,$1+$1,$2,$3,$4,$5,0*
20,1,$1+$1,$4,$5,$6,$7,0*
20,1,$1+$1,$6,$7,$8,$9,0*
20,1,$1+$1,$8,$9,$2,$3,0*%
G04 Aperture macros list end*
%ADD10RoundRect,0.090000X-0.583159X-0.373665X0.691863X-0.032024X0.583159X0.373665X-0.691863X0.032024X0*%
%ADD11RoundRect,0.097500X0.571385X0.388628X-0.689148X0.050869X-0.571385X-0.388628X0.689148X-0.050869X0*%
%ADD12RoundRect,0.097500X-0.388628X0.571385X-0.050869X-0.689148X0.388628X-0.571385X0.050869X0.689148X0*%
%ADD13RoundRect,0.090000X-0.360000X0.660000X-0.360000X-0.660000X0.360000X-0.660000X0.360000X0.660000X0*%
%ADD14RoundRect,0.140000X-0.140000X-0.170000X0.140000X-0.170000X0.140000X0.170000X-0.140000X0.170000X0*%
%ADD15RoundRect,0.090000X-0.691863X-0.032024X0.583159X-0.373665X0.691863X0.032024X-0.583159X0.373665X0*%
%ADD16RoundRect,0.097500X0.689148X0.050869X-0.571385X0.388628X-0.689148X-0.050869X0.571385X-0.388628X0*%
%ADD17RoundRect,0.097500X-0.050869X0.689148X-0.388628X-0.571385X0.050869X-0.689148X0.388628X0.571385X0*%
%ADD18C,2.000000*%
%ADD19RoundRect,0.140000X0.140000X0.170000X-0.140000X0.170000X-0.140000X-0.170000X0.140000X-0.170000X0*%
%ADD20RoundRect,0.190500X0.444500X-1.079500X0.444500X1.079500X-0.444500X1.079500X-0.444500X-1.079500X0*%
%ADD21RoundRect,0.100000X0.100000X-0.130000X0.100000X0.130000X-0.100000X0.130000X-0.100000X-0.130000X0*%
%ADD22RoundRect,0.090000X-0.660000X-0.360000X0.660000X-0.360000X0.660000X0.360000X-0.660000X0.360000X0*%
%ADD23RoundRect,0.140000X0.170000X-0.140000X0.170000X0.140000X-0.170000X0.140000X-0.170000X-0.140000X0*%
%ADD24RoundRect,0.250000X0.300000X0.300000X-0.300000X0.300000X-0.300000X-0.300000X0.300000X-0.300000X0*%
%ADD25RoundRect,0.140000X-0.170000X0.140000X-0.170000X-0.140000X0.170000X-0.140000X0.170000X0.140000X0*%
%ADD26RoundRect,0.250000X-0.450000X0.262500X-0.450000X-0.262500X0.450000X-0.262500X0.450000X0.262500X0*%
%ADD27RoundRect,0.150000X0.150000X-0.587500X0.150000X0.587500X-0.150000X0.587500X-0.150000X-0.587500X0*%
%ADD28RoundRect,0.087500X-0.087500X0.225000X-0.087500X-0.225000X0.087500X-0.225000X0.087500X0.225000X0*%
%ADD29RoundRect,0.087500X-0.225000X0.087500X-0.225000X-0.087500X0.225000X-0.087500X0.225000X0.087500X0*%
%ADD30C,3.200000*%
G04 APERTURE END LIST*
D10*
%TO.C,SW2*%
X112257788Y-81262134D03*
D11*
X120468158Y-79062172D03*
D10*
X112775426Y-83193986D03*
D11*
X120985796Y-80994024D03*
D12*
X116561733Y-84767638D03*
X118493584Y-84250000D03*
%TD*%
D13*
%TO.C,D6*%
X194345977Y-79800000D03*
X191045977Y-79800000D03*
X191045977Y-84700000D03*
X194345977Y-84700000D03*
%TD*%
D14*
%TO.C,C6*%
X218465977Y-98894197D03*
X219425977Y-98894197D03*
%TD*%
D15*
%TO.C,SW1*%
X180275426Y-79062172D03*
D16*
X188485796Y-81262134D03*
D15*
X179757788Y-80994024D03*
D16*
X187968158Y-83193986D03*
D17*
X182250000Y-84250000D03*
X184181851Y-84767638D03*
%TD*%
D18*
%TO.C,U2*%
X161534792Y-78914079D03*
X158994792Y-78914079D03*
X159121792Y-82978079D03*
X161534792Y-82978079D03*
%TD*%
D13*
%TO.C,D7*%
X216245977Y-98844197D03*
X212945977Y-98844197D03*
X212945977Y-103744197D03*
X216245977Y-103744197D03*
%TD*%
D19*
%TO.C,C2*%
X102230000Y-80750000D03*
X101270000Y-80750000D03*
%TD*%
D20*
%TO.C,U1*%
X152571792Y-78228079D03*
X148371792Y-78228079D03*
%TD*%
D21*
%TO.C,R4*%
X159095977Y-75114197D03*
X159095977Y-74474197D03*
%TD*%
D14*
%TO.C,C4*%
X153565977Y-84094197D03*
X154525977Y-84094197D03*
%TD*%
D22*
%TO.C,D3*%
X105095977Y-80044197D03*
X105095977Y-83344197D03*
X109995977Y-83344197D03*
X109995977Y-80044197D03*
%TD*%
D23*
%TO.C,C1*%
X87345977Y-95694197D03*
X87345977Y-94734197D03*
%TD*%
D24*
%TO.C,D2*%
X107895977Y-89656697D03*
X105095977Y-89656697D03*
%TD*%
D25*
%TO.C,C3*%
X144445977Y-72814197D03*
X144445977Y-73774197D03*
%TD*%
D21*
%TO.C,R2*%
X161595977Y-87934197D03*
X161595977Y-87294197D03*
%TD*%
D26*
%TO.C,F1*%
X111095977Y-89544197D03*
X111095977Y-91369197D03*
%TD*%
D13*
%TO.C,D4*%
X142345977Y-73044197D03*
X139045977Y-73044197D03*
X139045977Y-77944197D03*
X142345977Y-77944197D03*
%TD*%
D27*
%TO.C,Q1*%
X166145977Y-77481697D03*
X168045977Y-77481697D03*
X167095977Y-75606697D03*
%TD*%
D21*
%TO.C,R1*%
X145345977Y-78914197D03*
X145345977Y-78274197D03*
%TD*%
%TO.C,R3*%
X156750000Y-78820000D03*
X156750000Y-78180000D03*
%TD*%
D13*
%TO.C,D5*%
X151845977Y-84144197D03*
X148545977Y-84144197D03*
X148545977Y-89044197D03*
X151845977Y-89044197D03*
%TD*%
D25*
%TO.C,C5*%
X196500000Y-80770000D03*
X196500000Y-81730000D03*
%TD*%
D13*
%TO.C,D1*%
X87345977Y-98144197D03*
X84045977Y-98144197D03*
X84045977Y-103044197D03*
X87345977Y-103044197D03*
%TD*%
D27*
%TO.C,Q2*%
X166145977Y-82169197D03*
X168045977Y-82169197D03*
X167095977Y-80294197D03*
%TD*%
D14*
%TO.C,C7*%
X152290000Y-97794197D03*
X153250000Y-97794197D03*
%TD*%
D28*
%TO.C,U3*%
X150559592Y-96077807D03*
X150059592Y-96077807D03*
X149559592Y-96077807D03*
X149059592Y-96077807D03*
D29*
X148897092Y-96740307D03*
X148897092Y-97240307D03*
X148897092Y-97740307D03*
D28*
X149059592Y-98402807D03*
X149559592Y-98402807D03*
X150059592Y-98402807D03*
X150559592Y-98402807D03*
D29*
X150722092Y-97740307D03*
X150722092Y-97240307D03*
X150722092Y-96740307D03*
%TD*%
D30*
%TO.C,BT1*%
X117095977Y-104294197D03*
%TD*%
M02*
