%TF.GenerationSoftware,KiCad,Pcbnew,10.0.0*%
%TF.CreationDate,2026-04-04T19:21:55+02:00*%
%TF.ProjectId,Sthymuli-cardinalboard.kicad_pro,53746879-6d75-46c6-992d-63617264696e,rev?*%
%TF.SameCoordinates,Original*%
%TF.FileFunction,Copper,L1,Top*%
%TF.FilePolarity,Positive*%
%FSLAX46Y46*%
G04 Gerber Fmt 4.6, Leading zero omitted, Abs format (unit mm)*
G04 Created by KiCad (PCBNEW 10.0.0) date 2026-04-04 19:21:55*
%MOMM*%
%LPD*%
G01*
G04 APERTURE LIST*
G04 Aperture macros list*
%AMRoundRect*
0 Rectangle with rounded corners*
0 $1 Rounding radius*
0 $2 $3 $4 $5 $6 $7 $8 $9 X,Y pos of 4 corners*
0 Add a 4 corners polygon primitive as box body*
4,1,4,$2,$3,$4,$5,$6,$7,$8,$9,$2,$3,0*
0 Add four circle primitives for the rounded corners*
1,1,$1+$1,$2,$3*
1,1,$1+$1,$4,$5*
1,1,$1+$1,$6,$7*
1,1,$1+$1,$8,$9*
0 Add four rect primitives between the rounded corners*
20,1,$1+$1,$2,$3,$4,$5,0*
20,1,$1+$1,$4,$5,$6,$7,0*
20,1,$1+$1,$6,$7,$8,$9,0*
20,1,$1+$1,$8,$9,$2,$3,0*%
G04 Aperture macros list end*
%TA.AperFunction,SMDPad,CuDef*%
%ADD10RoundRect,0.090000X-0.583159X-0.373665X0.691863X-0.032024X0.583159X0.373665X-0.691863X0.032024X0*%
%TD*%
%TA.AperFunction,SMDPad,CuDef*%
%ADD11RoundRect,0.097500X0.571385X0.388628X-0.689148X0.050869X-0.571385X-0.388628X0.689148X-0.050869X0*%
%TD*%
%TA.AperFunction,SMDPad,CuDef*%
%ADD12RoundRect,0.097500X-0.388628X0.571385X-0.050869X-0.689148X0.388628X-0.571385X0.050869X0.689148X0*%
%TD*%
%TA.AperFunction,SMDPad,CuDef*%
%ADD13RoundRect,0.090000X-0.360000X0.660000X-0.360000X-0.660000X0.360000X-0.660000X0.360000X0.660000X0*%
%TD*%
%TA.AperFunction,SMDPad,CuDef*%
%ADD14RoundRect,0.140000X-0.140000X-0.170000X0.140000X-0.170000X0.140000X0.170000X-0.140000X0.170000X0*%
%TD*%
%TA.AperFunction,SMDPad,CuDef*%
%ADD15RoundRect,0.090000X-0.691863X-0.032024X0.583159X-0.373665X0.691863X0.032024X-0.583159X0.373665X0*%
%TD*%
%TA.AperFunction,SMDPad,CuDef*%
%ADD16RoundRect,0.097500X0.689148X0.050869X-0.571385X0.388628X-0.689148X-0.050869X0.571385X-0.388628X0*%
%TD*%
%TA.AperFunction,SMDPad,CuDef*%
%ADD17RoundRect,0.097500X-0.050869X0.689148X-0.388628X-0.571385X0.050869X-0.689148X0.388628X0.571385X0*%
%TD*%
%TA.AperFunction,ComponentPad*%
%ADD18C,2.000000*%
%TD*%
%TA.AperFunction,SMDPad,CuDef*%
%ADD19RoundRect,0.140000X0.140000X0.170000X-0.140000X0.170000X-0.140000X-0.170000X0.140000X-0.170000X0*%
%TD*%
%TA.AperFunction,SMDPad,CuDef*%
%ADD20RoundRect,0.190500X0.444500X-1.079500X0.444500X1.079500X-0.444500X1.079500X-0.444500X-1.079500X0*%
%TD*%
%TA.AperFunction,SMDPad,CuDef*%
%ADD21RoundRect,0.100000X0.100000X-0.130000X0.100000X0.130000X-0.100000X0.130000X-0.100000X-0.130000X0*%
%TD*%
%TA.AperFunction,SMDPad,CuDef*%
%ADD22RoundRect,0.090000X-0.660000X-0.360000X0.660000X-0.360000X0.660000X0.360000X-0.660000X0.360000X0*%
%TD*%
%TA.AperFunction,SMDPad,CuDef*%
%ADD23RoundRect,0.140000X0.170000X-0.140000X0.170000X0.140000X-0.170000X0.140000X-0.170000X-0.140000X0*%
%TD*%
%TA.AperFunction,SMDPad,CuDef*%
%ADD24RoundRect,0.250000X0.300000X0.300000X-0.300000X0.300000X-0.300000X-0.300000X0.300000X-0.300000X0*%
%TD*%
%TA.AperFunction,SMDPad,CuDef*%
%ADD25RoundRect,0.140000X-0.170000X0.140000X-0.170000X-0.140000X0.170000X-0.140000X0.170000X0.140000X0*%
%TD*%
%TA.AperFunction,SMDPad,CuDef*%
%ADD26RoundRect,0.250000X-0.450000X0.262500X-0.450000X-0.262500X0.450000X-0.262500X0.450000X0.262500X0*%
%TD*%
%TA.AperFunction,SMDPad,CuDef*%
%ADD27RoundRect,0.150000X0.150000X-0.587500X0.150000X0.587500X-0.150000X0.587500X-0.150000X-0.587500X0*%
%TD*%
%TA.AperFunction,SMDPad,CuDef*%
%ADD28RoundRect,0.087500X-0.087500X0.225000X-0.087500X-0.225000X0.087500X-0.225000X0.087500X0.225000X0*%
%TD*%
%TA.AperFunction,SMDPad,CuDef*%
%ADD29RoundRect,0.087500X-0.225000X0.087500X-0.225000X-0.087500X0.225000X-0.087500X0.225000X0.087500X0*%
%TD*%
%TA.AperFunction,ComponentPad*%
%ADD30C,3.200000*%
%TD*%
%TA.AperFunction,ViaPad*%
%ADD31C,0.600000*%
%TD*%
%TA.AperFunction,Conductor*%
%ADD32C,1.000000*%
%TD*%
%TA.AperFunction,Conductor*%
%ADD33C,0.250000*%
%TD*%
G04 APERTURE END LIST*
D10*
%TO.P,SW2,1,1_1*%
%TO.N,btn_B*%
X112257788Y-81262134D03*
D11*
X120468158Y-79062172D03*
D10*
%TO.P,SW2,2,2_2*%
%TO.N,GND*%
X112775426Y-83193986D03*
D11*
X120985796Y-80994024D03*
D12*
%TO.P,SW2,3*%
%TO.N,N/C*%
X116561733Y-84767638D03*
X118493584Y-84250000D03*
%TD*%
D13*
%TO.P,D6,1,VDD_1*%
%TO.N,+5V*%
X194345977Y-79800000D03*
%TO.P,D6,2,DOUT_2*%
%TO.N,Net-(D6-DOUT)*%
X191045977Y-79800000D03*
%TO.P,D6,3,VSS_3*%
%TO.N,GND*%
X191045977Y-84700000D03*
%TO.P,D6,4,DIN_4*%
%TO.N,Net-(D5-DOUT)*%
X194345977Y-84700000D03*
%TD*%
D14*
%TO.P,C6,1*%
%TO.N,+5V*%
X218465977Y-98894197D03*
%TO.P,C6,2*%
%TO.N,GND*%
X219425977Y-98894197D03*
%TD*%
D15*
%TO.P,SW1,1,1_1*%
%TO.N,btn_A*%
X180275426Y-79062172D03*
D16*
X188485796Y-81262134D03*
D15*
%TO.P,SW1,2,2_2*%
%TO.N,GND*%
X179757788Y-80994024D03*
D16*
X187968158Y-83193986D03*
D17*
%TO.P,SW1,3*%
%TO.N,N/C*%
X182250000Y-84250000D03*
X184181851Y-84767638D03*
%TD*%
D18*
%TO.P,U2,1*%
%TO.N,Net-(Q2-D)*%
X161534792Y-78914079D03*
%TO.P,U2,2*%
%TO.N,Net-(R4-Pad1)*%
X158994792Y-78914079D03*
%TO.P,U2,3*%
%TO.N,GND*%
X159121792Y-82978079D03*
%TO.P,U2,4*%
%TO.N,IR_REC_VERT*%
X161534792Y-82978079D03*
%TD*%
D13*
%TO.P,D7,1,VDD_1*%
%TO.N,+5V*%
X216245977Y-98844197D03*
%TO.P,D7,2,DOUT_2*%
%TO.N,DOUT*%
X212945977Y-98844197D03*
%TO.P,D7,3,VSS_3*%
%TO.N,GND*%
X212945977Y-103744197D03*
%TO.P,D7,4,DIN_4*%
%TO.N,Net-(D6-DOUT)*%
X216245977Y-103744197D03*
%TD*%
D19*
%TO.P,C2,1*%
%TO.N,+5V*%
X102230000Y-80750000D03*
%TO.P,C2,2*%
%TO.N,GND*%
X101270000Y-80750000D03*
%TD*%
D20*
%TO.P,U1,1*%
%TO.N,Net-(Q1-D)*%
X152571792Y-78228079D03*
%TO.P,U1,4*%
%TO.N,IR_REC_HORI*%
X148371792Y-78228079D03*
%TD*%
D21*
%TO.P,R4,1*%
%TO.N,Net-(R4-Pad1)*%
X159095977Y-75114197D03*
%TO.P,R4,2*%
%TO.N,+3V3*%
X159095977Y-74474197D03*
%TD*%
D14*
%TO.P,C4,1*%
%TO.N,+5V*%
X153565977Y-84094197D03*
%TO.P,C4,2*%
%TO.N,GND*%
X154525977Y-84094197D03*
%TD*%
D22*
%TO.P,D3,1,VDD_1*%
%TO.N,+5V*%
X105095977Y-80044197D03*
%TO.P,D3,2,DOUT_2*%
%TO.N,Net-(D3-DOUT)*%
X105095977Y-83344197D03*
%TO.P,D3,3,VSS_3*%
%TO.N,GND*%
X109995977Y-83344197D03*
%TO.P,D3,4,DIN_4*%
%TO.N,Net-(D1-DOUT)*%
X109995977Y-80044197D03*
%TD*%
D23*
%TO.P,C1,1*%
%TO.N,+5V*%
X87345977Y-95694197D03*
%TO.P,C1,2*%
%TO.N,GND*%
X87345977Y-94734197D03*
%TD*%
D24*
%TO.P,D2,1,K_1*%
%TO.N,BAT+*%
X107895977Y-89656697D03*
%TO.P,D2,2,A_2*%
%TO.N,BAT-*%
X105095977Y-89656697D03*
%TD*%
D25*
%TO.P,C3,1*%
%TO.N,+5V*%
X144445977Y-72814197D03*
%TO.P,C3,2*%
%TO.N,GND*%
X144445977Y-73774197D03*
%TD*%
D21*
%TO.P,R2,1*%
%TO.N,+3V3*%
X161595977Y-87934197D03*
%TO.P,R2,2*%
%TO.N,IR_REC_VERT*%
X161595977Y-87294197D03*
%TD*%
D26*
%TO.P,F1,1*%
%TO.N,BAT+*%
X111095977Y-89544197D03*
%TO.P,F1,2*%
%TO.N,Net-(BT1-+)*%
X111095977Y-91369197D03*
%TD*%
D13*
%TO.P,D4,1,VDD_1*%
%TO.N,+5V*%
X142345977Y-73044197D03*
%TO.P,D4,2,DOUT_2*%
%TO.N,Net-(D4-DOUT)*%
X139045977Y-73044197D03*
%TO.P,D4,3,VSS_3*%
%TO.N,GND*%
X139045977Y-77944197D03*
%TO.P,D4,4,DIN_4*%
%TO.N,Net-(D3-DOUT)*%
X142345977Y-77944197D03*
%TD*%
D27*
%TO.P,Q1,1,G_1*%
%TO.N,IR_TRA_HORI*%
X166145977Y-77481697D03*
%TO.P,Q1,2,S_2*%
%TO.N,GND*%
X168045977Y-77481697D03*
%TO.P,Q1,3,D_3*%
%TO.N,Net-(Q1-D)*%
X167095977Y-75606697D03*
%TD*%
D21*
%TO.P,R1,1*%
%TO.N,+3V3*%
X145345977Y-78914197D03*
%TO.P,R1,2*%
%TO.N,IR_REC_HORI*%
X145345977Y-78274197D03*
%TD*%
%TO.P,R3,1*%
%TO.N,Net-(R3-Pad1)*%
X156750000Y-78820000D03*
%TO.P,R3,2*%
%TO.N,+3V3*%
X156750000Y-78180000D03*
%TD*%
D13*
%TO.P,D5,1,VDD_1*%
%TO.N,+5V*%
X151845977Y-84144197D03*
%TO.P,D5,2,DOUT_2*%
%TO.N,Net-(D5-DOUT)*%
X148545977Y-84144197D03*
%TO.P,D5,3,VSS_3*%
%TO.N,GND*%
X148545977Y-89044197D03*
%TO.P,D5,4,DIN_4*%
%TO.N,Net-(D4-DOUT)*%
X151845977Y-89044197D03*
%TD*%
D25*
%TO.P,C5,1*%
%TO.N,+5V*%
X196500000Y-80770000D03*
%TO.P,C5,2*%
%TO.N,GND*%
X196500000Y-81730000D03*
%TD*%
D13*
%TO.P,D1,1,VDD_1*%
%TO.N,+5V*%
X87345977Y-98144197D03*
%TO.P,D1,2,DOUT_2*%
%TO.N,Net-(D1-DOUT)*%
X84045977Y-98144197D03*
%TO.P,D1,3,VSS_3*%
%TO.N,GND*%
X84045977Y-103044197D03*
%TO.P,D1,4,DIN_4*%
%TO.N,DIN*%
X87345977Y-103044197D03*
%TD*%
D27*
%TO.P,Q2,1,G_1*%
%TO.N,IR_TRA_VERT*%
X166145977Y-82169197D03*
%TO.P,Q2,2,S_2*%
%TO.N,GND*%
X168045977Y-82169197D03*
%TO.P,Q2,3,D_3*%
%TO.N,Net-(Q2-D)*%
X167095977Y-80294197D03*
%TD*%
D14*
%TO.P,C7,1*%
%TO.N,+3V3*%
X152290000Y-97794197D03*
%TO.P,C7,2*%
%TO.N,GND*%
X153250000Y-97794197D03*
%TD*%
D28*
%TO.P,U3,1,SDO/SA0_1*%
%TO.N,+3V3*%
X150559592Y-96077807D03*
%TO.P,U3,2,SDX_2*%
%TO.N,GND*%
X150059592Y-96077807D03*
%TO.P,U3,3,SCX_3*%
X149559592Y-96077807D03*
%TO.P,U3,4,INT1_4*%
%TO.N,ACC_INT*%
X149059592Y-96077807D03*
D29*
%TO.P,U3,5,VDDIO_5*%
%TO.N,+3V3*%
X148897092Y-96740307D03*
%TO.P,U3,6,GND_6*%
%TO.N,GND*%
X148897092Y-97240307D03*
%TO.P,U3,7,GND_7*%
X148897092Y-97740307D03*
D28*
%TO.P,U3,8,VDD_8*%
%TO.N,+3V3*%
X149059592Y-98402807D03*
%TO.P,U3,9,INT2_9*%
%TO.N,unconnected-(U3-INT2-Pad9)*%
X149559592Y-98402807D03*
%TO.P,U3,10,NC_10*%
%TO.N,unconnected-(U3-NC-Pad10)*%
X150059592Y-98402807D03*
%TO.P,U3,11,NC_11*%
%TO.N,unconnected-(U3-NC-Pad11)*%
X150559592Y-98402807D03*
D29*
%TO.P,U3,12,CS_12*%
%TO.N,+3V3*%
X150722092Y-97740307D03*
%TO.P,U3,13,SCL_13*%
%TO.N,SCL*%
X150722092Y-97240307D03*
%TO.P,U3,14,SDA_14*%
%TO.N,SDA*%
X150722092Y-96740307D03*
%TD*%
D30*
%TO.P,BT1,*%
%TO.N,*%
X117095977Y-104294197D03*
%TD*%
D31*
%TO.N,GND*%
X87500000Y-105750000D03*
X146500000Y-77250000D03*
X148500000Y-90500000D03*
X101355250Y-82245562D03*
X156250000Y-84094197D03*
X139000000Y-88750000D03*
X88500000Y-89250000D03*
X148000000Y-95500000D03*
X121000000Y-83000000D03*
X142750000Y-82250000D03*
X139000000Y-80500000D03*
%TO.N,+5V*%
X191500000Y-86750000D03*
X94750000Y-83750000D03*
X132750000Y-91250000D03*
X129500000Y-89250000D03*
X216250000Y-90000000D03*
X194250000Y-81000000D03*
X86000000Y-89418256D03*
%TO.N,Net-(D6-DOUT)*%
X189000000Y-104750000D03*
X190820871Y-81838638D03*
%TO.N,IR_REC_VERT*%
X163000000Y-102000000D03*
X101750000Y-99250000D03*
%TO.N,DOUT*%
X90500000Y-96500000D03*
%TO.N,Net-(R3-Pad1)*%
X156561096Y-80329588D03*
%TO.N,IR_REC_HORI*%
X145335466Y-83954270D03*
X144116116Y-99633884D03*
X103250000Y-97900000D03*
%TO.N,+3V3*%
X150870912Y-95148493D03*
X157250000Y-87250000D03*
X150832435Y-99200000D03*
X147193756Y-96565307D03*
X157750000Y-74750000D03*
X146750000Y-92656564D03*
X157500000Y-78250000D03*
X113250000Y-91750000D03*
X147540151Y-99200000D03*
X146086970Y-80397955D03*
%TO.N,Net-(D3-DOUT)*%
X142250000Y-86250000D03*
X142250000Y-79500000D03*
%TO.N,Net-(D1-DOUT)*%
X84000000Y-89000000D03*
X84000000Y-96250000D03*
%TO.N,BAT+*%
X108000000Y-91500000D03*
%TO.N,BAT-*%
X200750000Y-96750000D03*
X90500000Y-94000000D03*
%TO.N,Net-(BT1-+)*%
X111000000Y-92500000D03*
%TO.N,Net-(D4-DOUT)*%
X139000000Y-75000000D03*
X137250000Y-84750000D03*
%TO.N,IR_TRA_HORI*%
X164250000Y-102500000D03*
X165750000Y-79000000D03*
X90750000Y-99250000D03*
%TO.N,DIN*%
X104750000Y-95250000D03*
%TO.N,IR_TRA_VERT*%
X166000000Y-84500000D03*
X90750000Y-101750000D03*
X166000000Y-104000000D03*
%TO.N,ACC_INT*%
X105750000Y-104500000D03*
X149214941Y-104900000D03*
X149384592Y-95245438D03*
%TO.N,SCL*%
X91000000Y-104250000D03*
X155058881Y-106214631D03*
X155000000Y-97250000D03*
%TO.N,SDA*%
X155630824Y-105640672D03*
X102725864Y-102800000D03*
X154250000Y-96500000D03*
%TO.N,btn_B*%
X123250000Y-78500000D03*
X114250000Y-81000000D03*
X127619617Y-89200000D03*
X115550281Y-88950000D03*
X90250000Y-91500000D03*
%TO.N,btn_A*%
X177250000Y-78500000D03*
X101750000Y-88250000D03*
X174500000Y-91250000D03*
%TD*%
%TO.N,GND*%
D32*
X121000000Y-83000000D02*
X119989910Y-81989910D01*
D33*
X143750000Y-75000000D02*
X143750000Y-75141320D01*
X195250000Y-82000000D02*
X194000000Y-82000000D01*
X150000000Y-94500000D02*
X151500000Y-94500000D01*
X148897092Y-97240307D02*
X146759693Y-97240307D01*
X190000000Y-83250000D02*
X189500000Y-83750000D01*
X154905803Y-84094197D02*
X158005674Y-84094197D01*
X221000000Y-99500000D02*
X219250000Y-101250000D01*
X156750000Y-98750000D02*
X158000000Y-97500000D01*
X191045977Y-84700000D02*
X192300000Y-84700000D01*
X143750000Y-75141320D02*
X145858680Y-77250000D01*
D32*
X139045977Y-77944197D02*
X139045977Y-80454023D01*
X139000000Y-80500000D02*
X141000000Y-80500000D01*
D33*
X187750000Y-84750000D02*
X187500000Y-84500000D01*
X147750000Y-95000000D02*
X148000000Y-95250000D01*
D32*
X148545977Y-90454023D02*
X148500000Y-90500000D01*
X119217528Y-82762292D02*
X119989910Y-81989910D01*
D33*
X150000000Y-94500000D02*
X148250000Y-94500000D01*
X146990307Y-97740307D02*
X148897092Y-97740307D01*
X192500000Y-84500000D02*
X192500000Y-84000000D01*
X220394197Y-98894197D02*
X221000000Y-99500000D01*
X148000000Y-95250000D02*
X148000000Y-95500000D01*
X187750000Y-84000000D02*
X187968158Y-83781842D01*
D32*
X112625216Y-83344197D02*
X112775427Y-83193986D01*
D33*
X148250000Y-94500000D02*
X147750000Y-95000000D01*
D32*
X112775427Y-83193986D02*
X113207121Y-82762292D01*
D33*
X154000000Y-98750000D02*
X156750000Y-98750000D01*
X143500000Y-74750000D02*
X143750000Y-75000000D01*
X196000000Y-83250000D02*
X190000000Y-83250000D01*
D32*
X113207121Y-82762292D02*
X119217528Y-82762292D01*
D33*
X150059592Y-96077807D02*
X150059592Y-94559592D01*
X146759693Y-97240307D02*
X146625000Y-97375000D01*
X187968158Y-83781842D02*
X187968158Y-83193986D01*
X158000000Y-96250000D02*
X157000000Y-95250000D01*
D32*
X146794197Y-89044197D02*
X148545977Y-89044197D01*
D33*
X158000000Y-97500000D02*
X158000000Y-96250000D01*
X147750000Y-95000000D02*
X146000000Y-95000000D01*
X187500000Y-84500000D02*
X187750000Y-84250000D01*
X144445977Y-73774197D02*
X143725803Y-73774197D01*
X193000000Y-83500000D02*
X192500000Y-84000000D01*
X196500000Y-81730000D02*
X196500000Y-82750000D01*
X143500000Y-74000000D02*
X143500000Y-74750000D01*
X157000000Y-95250000D02*
X152250000Y-95250000D01*
X154000000Y-98544197D02*
X154000000Y-98750000D01*
X187750000Y-84250000D02*
X187750000Y-84000000D01*
X153250000Y-97794197D02*
X154000000Y-98544197D01*
X189500000Y-84750000D02*
X187750000Y-84750000D01*
X196500000Y-82750000D02*
X196000000Y-83250000D01*
D32*
X148545977Y-89044197D02*
X148545977Y-90454023D01*
D33*
X194000000Y-82000000D02*
X193000000Y-83000000D01*
X168045977Y-77481697D02*
X168045977Y-82169197D01*
D32*
X84045977Y-104795977D02*
X85000000Y-105750000D01*
D33*
X152250000Y-95250000D02*
X151500000Y-94500000D01*
X143725803Y-73774197D02*
X143500000Y-74000000D01*
X158005674Y-84094197D02*
X159121792Y-82978079D01*
D32*
X139045977Y-80454023D02*
X139000000Y-80500000D01*
D33*
X189500000Y-83750000D02*
X189500000Y-84750000D01*
D32*
X146500000Y-88750000D02*
X146794197Y-89044197D01*
X88500000Y-89250000D02*
X87345977Y-90404023D01*
D33*
X219425977Y-98894197D02*
X220394197Y-98894197D01*
D32*
X85000000Y-105750000D02*
X87500000Y-105750000D01*
X119989910Y-81989910D02*
X120985796Y-80994024D01*
D33*
X101270000Y-82160312D02*
X101355250Y-82245562D01*
D32*
X141000000Y-80500000D02*
X142750000Y-82250000D01*
D33*
X219250000Y-101250000D02*
X213500000Y-101250000D01*
D32*
X139000000Y-88750000D02*
X146500000Y-88750000D01*
X109995977Y-83344197D02*
X112625216Y-83344197D01*
D33*
X193000000Y-83000000D02*
X193000000Y-83500000D01*
X146000000Y-95000000D02*
X146000000Y-96750000D01*
D32*
X84045977Y-103044197D02*
X84045977Y-104795977D01*
D33*
X145858680Y-77250000D02*
X146500000Y-77250000D01*
X146000000Y-96750000D02*
X146625000Y-97375000D01*
X149559592Y-96077807D02*
X150059592Y-96077807D01*
X101270000Y-80750000D02*
X101270000Y-82160312D01*
X213500000Y-101250000D02*
X212945977Y-101804023D01*
X196500000Y-81730000D02*
X195520000Y-81730000D01*
X195520000Y-81730000D02*
X195250000Y-82000000D01*
X212945977Y-101804023D02*
X212945977Y-103744197D01*
X146625000Y-97375000D02*
X146990307Y-97740307D01*
X192300000Y-84700000D02*
X192500000Y-84500000D01*
D32*
X87345977Y-90404023D02*
X87345977Y-94514197D01*
D33*
X150059592Y-94559592D02*
X150000000Y-94500000D01*
X154525977Y-84094197D02*
X154905803Y-84094197D01*
%TO.N,+5V*%
X142345977Y-73044197D02*
X143205803Y-73044197D01*
D32*
X156750000Y-81750000D02*
X157500000Y-81000000D01*
X107856255Y-80044197D02*
X109650452Y-78250000D01*
X151845977Y-83095977D02*
X151845977Y-84144197D01*
D33*
X216245977Y-98844197D02*
X218415977Y-98844197D01*
D32*
X146875000Y-84375000D02*
X146000000Y-85250000D01*
X85750000Y-96250000D02*
X85750000Y-89668256D01*
D33*
X144445977Y-72814197D02*
X143435803Y-72814197D01*
D32*
X148250000Y-81750000D02*
X146875000Y-83125000D01*
X104705803Y-80044197D02*
X103750000Y-81000000D01*
X114750000Y-78250000D02*
X116000000Y-77000000D01*
X105095977Y-80044197D02*
X104705803Y-80044197D01*
X103608370Y-80992197D02*
X102405250Y-82195317D01*
D33*
X87345977Y-95694197D02*
X87345977Y-96750000D01*
D32*
X164250000Y-82000000D02*
X164250000Y-85250000D01*
D33*
X103555803Y-80694197D02*
X104205803Y-80044197D01*
D32*
X86250000Y-96750000D02*
X85750000Y-96250000D01*
D33*
X153565977Y-84094197D02*
X151895977Y-84094197D01*
D32*
X87345977Y-98144197D02*
X87345977Y-96750000D01*
D33*
X104205803Y-80044197D02*
X105095977Y-80044197D01*
D32*
X87345977Y-96750000D02*
X86250000Y-96750000D01*
X85750000Y-89668256D02*
X86000000Y-89418256D01*
X144000000Y-76558046D02*
X142345977Y-74904023D01*
X164250000Y-85250000D02*
X166000000Y-87000000D01*
X216250000Y-98840174D02*
X216245977Y-98844197D01*
X141000000Y-76250000D02*
X142345977Y-74904023D01*
D33*
X196194197Y-80194197D02*
X195294197Y-79294197D01*
D32*
X194250000Y-79895977D02*
X194345977Y-79800000D01*
X144000000Y-84315860D02*
X144000000Y-76558046D01*
X109650452Y-78250000D02*
X114750000Y-78250000D01*
D33*
X195294197Y-79294197D02*
X194601780Y-79294197D01*
D32*
X102405250Y-82195317D02*
X102405250Y-82680487D01*
X104556371Y-80044197D02*
X105095977Y-80044197D01*
X150500000Y-81750000D02*
X156750000Y-81750000D01*
X163250000Y-81000000D02*
X164250000Y-82000000D01*
X150500000Y-81750000D02*
X151845977Y-83095977D01*
X166000000Y-87000000D02*
X191250000Y-87000000D01*
X130750000Y-89250000D02*
X132750000Y-91250000D01*
X129250000Y-74000000D02*
X135250000Y-74000000D01*
X144934140Y-85250000D02*
X144000000Y-84315860D01*
X157500000Y-81000000D02*
X163250000Y-81000000D01*
X137500000Y-76250000D02*
X141000000Y-76250000D01*
D33*
X143205803Y-73044197D02*
X143435803Y-72814197D01*
D32*
X142345977Y-74904023D02*
X142345977Y-73044197D01*
X129500000Y-89250000D02*
X130750000Y-89250000D01*
X135250000Y-74000000D02*
X137500000Y-76250000D01*
X103750000Y-80992197D02*
X103608370Y-80992197D01*
X102405250Y-82680487D02*
X101335737Y-83750000D01*
D33*
X196500000Y-80770000D02*
X196194197Y-80464197D01*
X102285803Y-80694197D02*
X103555803Y-80694197D01*
D32*
X126250000Y-77000000D02*
X129250000Y-74000000D01*
X101335737Y-83750000D02*
X94750000Y-83750000D01*
X105095977Y-80044197D02*
X107856255Y-80044197D01*
X191250000Y-87000000D02*
X191500000Y-86750000D01*
D33*
X196194197Y-80464197D02*
X196194197Y-80194197D01*
D32*
X146875000Y-83125000D02*
X146875000Y-84375000D01*
X116000000Y-77000000D02*
X126250000Y-77000000D01*
X194250000Y-81000000D02*
X194250000Y-79895977D01*
X216250000Y-90000000D02*
X216250000Y-98840174D01*
X146000000Y-85250000D02*
X144934140Y-85250000D01*
X148250000Y-81750000D02*
X150500000Y-81750000D01*
%TO.N,Net-(D6-DOUT)*%
X189000000Y-104750000D02*
X190000144Y-105750144D01*
X190000144Y-105750144D02*
X215749856Y-105750144D01*
X216245977Y-105254023D02*
X216245977Y-103744197D01*
X191045977Y-81613532D02*
X190820871Y-81838638D01*
X191045977Y-79800000D02*
X191045977Y-81613532D01*
X215749856Y-105750144D02*
X216245977Y-105254023D01*
%TO.N,Net-(D5-DOUT)*%
X194345977Y-85601079D02*
X194345977Y-84700000D01*
X190697056Y-89250000D02*
X194345977Y-85601079D01*
X148545977Y-84144197D02*
X150901780Y-86500000D01*
X155000000Y-86500000D02*
X157750000Y-89250000D01*
X150901780Y-86500000D02*
X155000000Y-86500000D01*
X157750000Y-89250000D02*
X190697056Y-89250000D01*
%TO.N,Net-(Q2-D)*%
X162861135Y-78914079D02*
X161534792Y-78914079D01*
X164241253Y-80294197D02*
X162861135Y-78914079D01*
X167095977Y-80294197D02*
X164241253Y-80294197D01*
%TO.N,Net-(R4-Pad1)*%
D33*
X159095977Y-75114197D02*
X159095977Y-78812894D01*
%TO.N,IR_REC_VERT*%
X161595977Y-87294197D02*
X161595977Y-83039264D01*
D32*
X161997056Y-101950000D02*
X162047056Y-102000000D01*
X124955888Y-97600000D02*
X128355888Y-101000000D01*
X151143978Y-101950000D02*
X161997056Y-101950000D01*
X162047056Y-102000000D02*
X163000000Y-102000000D01*
X101750000Y-99250000D02*
X111591168Y-99250000D01*
X128355888Y-101000000D02*
X145052944Y-101000000D01*
X111591168Y-99250000D02*
X113241168Y-97600000D01*
X145052944Y-101000000D02*
X145502944Y-101450000D01*
X150643978Y-101450000D02*
X151143978Y-101950000D01*
X145502944Y-101450000D02*
X150643978Y-101450000D01*
X113241168Y-97600000D02*
X124955888Y-97600000D01*
%TO.N,DOUT*%
X211540174Y-100250000D02*
X212945977Y-98844197D01*
X112247056Y-95200000D02*
X126200000Y-95200000D01*
X105197056Y-96500000D02*
X110947056Y-96500000D01*
X99500000Y-96500000D02*
X99550000Y-96450000D01*
X126200000Y-95200000D02*
X129250000Y-98250000D01*
X144500000Y-98250000D02*
X146500000Y-100250000D01*
X110947056Y-96500000D02*
X112247056Y-95200000D01*
X105147056Y-96450000D02*
X105197056Y-96500000D01*
X146500000Y-100250000D02*
X211540174Y-100250000D01*
X99550000Y-96450000D02*
X105147056Y-96450000D01*
X129250000Y-98250000D02*
X144500000Y-98250000D01*
X90500000Y-96500000D02*
X99500000Y-96500000D01*
%TO.N,Net-(Q1-D)*%
X157515075Y-73500000D02*
X156750000Y-74265075D01*
X166500000Y-73500000D02*
X157515075Y-73500000D01*
X156750000Y-75891869D02*
X154413790Y-78228079D01*
X167095977Y-75606697D02*
X167095977Y-74095977D01*
X154413790Y-78228079D02*
X152571792Y-78228079D01*
X167095977Y-74095977D02*
X166500000Y-73500000D01*
X156750000Y-74265075D02*
X156750000Y-75891869D01*
%TO.N,Net-(R3-Pad1)*%
D33*
X156750000Y-78820000D02*
X156750000Y-80140684D01*
X156750000Y-80140684D02*
X156561096Y-80329588D01*
%TO.N,IR_REC_HORI*%
D32*
X144116116Y-99633884D02*
X143932232Y-99450000D01*
D33*
X145345977Y-78274197D02*
X148325674Y-78274197D01*
D32*
X105644112Y-97750000D02*
X105494112Y-97900000D01*
X112744112Y-96400000D02*
X111394112Y-97750000D01*
X128502944Y-99450000D02*
X125452944Y-96400000D01*
X145300000Y-83918804D02*
X145335466Y-83954270D01*
X125452944Y-96400000D02*
X112744112Y-96400000D01*
X111394112Y-97750000D02*
X105644112Y-97750000D01*
X148371792Y-79681152D02*
X145300000Y-82752944D01*
X148371792Y-78228079D02*
X148371792Y-79681152D01*
X105494112Y-97900000D02*
X103250000Y-97900000D01*
X145300000Y-82752944D02*
X145300000Y-83918804D01*
X143932232Y-99450000D02*
X128502944Y-99450000D01*
%TO.N,+3V3*%
D33*
X150870912Y-95766487D02*
X150870912Y-95148493D01*
X157500000Y-78250000D02*
X156820000Y-78250000D01*
X149059592Y-98982592D02*
X149500000Y-99423000D01*
X152290000Y-97794197D02*
X152290000Y-98242435D01*
X145345977Y-78914197D02*
X145345977Y-79656962D01*
X147368756Y-96740307D02*
X147193756Y-96565307D01*
X152236110Y-97740307D02*
X150722092Y-97740307D01*
D32*
X114250000Y-92750000D02*
X146656564Y-92750000D01*
D33*
X158025803Y-74474197D02*
X157750000Y-74750000D01*
D32*
X146656564Y-92750000D02*
X146750000Y-92656564D01*
D33*
X159095977Y-74474197D02*
X158025803Y-74474197D01*
X157934197Y-87934197D02*
X157250000Y-87250000D01*
X149059592Y-98402807D02*
X149059592Y-98982592D01*
X147540151Y-99200000D02*
X147765151Y-99425000D01*
X150607435Y-99425000D02*
X150832435Y-99200000D01*
D32*
X113250000Y-91750000D02*
X114250000Y-92750000D01*
D33*
X147765151Y-99425000D02*
X150607435Y-99425000D01*
X150559592Y-96077807D02*
X150870912Y-95766487D01*
X161595977Y-87934197D02*
X157934197Y-87934197D01*
X152290000Y-98242435D02*
X151332435Y-99200000D01*
X151332435Y-99200000D02*
X150832435Y-99200000D01*
X148897092Y-96740307D02*
X147368756Y-96740307D01*
X145345977Y-79656962D02*
X146086970Y-80397955D01*
%TO.N,Net-(D3-DOUT)*%
D32*
X142244654Y-86255346D02*
X142250000Y-86250000D01*
X142345977Y-77944197D02*
X142345977Y-79404023D01*
X106594197Y-83344197D02*
X108625000Y-85375000D01*
X142345977Y-79404023D02*
X142250000Y-79500000D01*
X113264168Y-86255346D02*
X142244654Y-86255346D01*
X108625000Y-85375000D02*
X112383822Y-85375000D01*
X112383822Y-85375000D02*
X113264168Y-86255346D01*
X105095977Y-83344197D02*
X106594197Y-83344197D01*
%TO.N,Net-(D1-DOUT)*%
X84831744Y-88168256D02*
X86581744Y-88168256D01*
X86581744Y-88168256D02*
X87750000Y-87000000D01*
X87750000Y-87000000D02*
X89500000Y-87000000D01*
X84045977Y-96295977D02*
X84000000Y-96250000D01*
X108090174Y-81950000D02*
X109995977Y-80044197D01*
X89500000Y-87000000D02*
X91000000Y-85500000D01*
X91000000Y-85500000D02*
X101282793Y-85500000D01*
X104252859Y-82194197D02*
X104497056Y-81950000D01*
X84000000Y-89000000D02*
X84831744Y-88168256D01*
X104497056Y-81950000D02*
X108090174Y-81950000D01*
X84045977Y-98144197D02*
X84045977Y-96295977D01*
X101282793Y-85500000D02*
X103645977Y-83136816D01*
X103645977Y-82654475D02*
X104106255Y-82194197D01*
X104106255Y-82194197D02*
X104252859Y-82194197D01*
X103645977Y-83136816D02*
X103645977Y-82654475D01*
%TO.N,BAT+*%
X108000000Y-91500000D02*
X108000000Y-89760720D01*
X108000000Y-89760720D02*
X107895977Y-89656697D01*
X111095977Y-89544197D02*
X108008477Y-89544197D01*
X108008477Y-89544197D02*
X107895977Y-89656697D01*
%TO.N,BAT-*%
X147908274Y-93675000D02*
X151841726Y-93675000D01*
X105000000Y-94000000D02*
X105000000Y-93250000D01*
X147583274Y-94000000D02*
X147908274Y-93675000D01*
X151841726Y-93675000D02*
X152166726Y-94000000D01*
X105000000Y-94000000D02*
X147583274Y-94000000D01*
X152166726Y-94000000D02*
X198000000Y-94000000D01*
X198000000Y-94000000D02*
X200750000Y-96750000D01*
X105000000Y-93250000D02*
X105095977Y-93154023D01*
X105095977Y-93154023D02*
X105095977Y-89656697D01*
X90500000Y-94000000D02*
X105000000Y-94000000D01*
%TO.N,Net-(BT1-+)*%
X111095977Y-91369197D02*
X111095977Y-92404023D01*
X111095977Y-92404023D02*
X111000000Y-92500000D01*
%TO.N,Net-(D4-DOUT)*%
X139045977Y-73044197D02*
X139045977Y-74954023D01*
X144737084Y-86750000D02*
X148391502Y-86750000D01*
X142737084Y-84750000D02*
X144737084Y-86750000D01*
X139045977Y-74954023D02*
X139000000Y-75000000D01*
X148391502Y-86750000D02*
X150685699Y-89044197D01*
X137250000Y-84750000D02*
X142737084Y-84750000D01*
X150685699Y-89044197D02*
X151845977Y-89044197D01*
%TO.N,IR_TRA_HORI*%
X126750000Y-102500000D02*
X123050000Y-98800000D01*
X163497056Y-103200000D02*
X161550000Y-103200000D01*
X166145977Y-78604023D02*
X165750000Y-79000000D01*
X164197056Y-102500000D02*
X163497056Y-103200000D01*
X123050000Y-98800000D02*
X113738224Y-98800000D01*
X150146922Y-102650000D02*
X145005888Y-102650000D01*
X92000000Y-100500000D02*
X90750000Y-99250000D01*
X150646922Y-103150000D02*
X150146922Y-102650000D01*
X112038224Y-100500000D02*
X92000000Y-100500000D01*
X145005888Y-102650000D02*
X144855888Y-102500000D01*
X161550000Y-103200000D02*
X161500000Y-103150000D01*
X144855888Y-102500000D02*
X126750000Y-102500000D01*
X113738224Y-98800000D02*
X112038224Y-100500000D01*
X166145977Y-77481697D02*
X166145977Y-78604023D01*
X161500000Y-103150000D02*
X150646922Y-103150000D01*
X164250000Y-102500000D02*
X164197056Y-102500000D01*
%TO.N,DIN*%
X104750000Y-95250000D02*
X89750000Y-95250000D01*
X89750000Y-95250000D02*
X89000000Y-96000000D01*
X89000000Y-102500000D02*
X88455803Y-103044197D01*
X88455803Y-103044197D02*
X87345977Y-103044197D01*
X89000000Y-96000000D02*
X89000000Y-102500000D01*
%TO.N,IR_TRA_VERT*%
X145008832Y-104350000D02*
X148280016Y-104350000D01*
X166145977Y-84354023D02*
X166000000Y-84500000D01*
X163994112Y-104400000D02*
X164394112Y-104000000D01*
X144658832Y-104000000D02*
X145008832Y-104350000D01*
X148780016Y-103850000D02*
X149649866Y-103850000D01*
X114250000Y-100000000D02*
X121750000Y-100000000D01*
X166145977Y-82169197D02*
X166145977Y-84354023D01*
X112500000Y-101750000D02*
X114250000Y-100000000D01*
X161052944Y-104400000D02*
X163994112Y-104400000D01*
X125750000Y-104000000D02*
X144658832Y-104000000D01*
X121750000Y-100000000D02*
X125750000Y-104000000D01*
X150149866Y-104350000D02*
X161002944Y-104350000D01*
X149649866Y-103850000D02*
X150149866Y-104350000D01*
X164394112Y-104000000D02*
X166000000Y-104000000D01*
X148280016Y-104350000D02*
X148780016Y-103850000D01*
X161002944Y-104350000D02*
X161052944Y-104400000D01*
X90750000Y-101750000D02*
X112500000Y-101750000D01*
%TO.N,ACC_INT*%
D33*
X111500000Y-104500000D02*
X115175000Y-100825000D01*
X120575000Y-100825000D02*
X124750000Y-105000000D01*
X105750000Y-104500000D02*
X111500000Y-104500000D01*
X149059592Y-96077807D02*
X149059592Y-95570438D01*
X148819261Y-105295680D02*
X149214941Y-104900000D01*
X144787786Y-105295680D02*
X148819261Y-105295680D01*
X149059592Y-95570438D02*
X149384592Y-95245438D01*
X115175000Y-100825000D02*
X120575000Y-100825000D01*
X144492106Y-105000000D02*
X144787786Y-105295680D01*
X124750000Y-105000000D02*
X144492106Y-105000000D01*
%TO.N,SCL*%
X118250000Y-102250000D02*
X122219197Y-106219197D01*
X92969197Y-106219197D02*
X111530803Y-106219197D01*
X149967180Y-106214631D02*
X155058881Y-106214631D01*
X122219197Y-106219197D02*
X148467268Y-106219197D01*
X148467268Y-106219197D02*
X148701730Y-106453659D01*
X154909197Y-97159197D02*
X155000000Y-97250000D01*
X151953510Y-97159197D02*
X154909197Y-97159197D01*
X150722092Y-97240307D02*
X151872400Y-97240307D01*
X111530803Y-106219197D02*
X115500000Y-102250000D01*
X91000000Y-104250000D02*
X92969197Y-106219197D01*
X151872400Y-97240307D02*
X151953510Y-97159197D01*
X115500000Y-102250000D02*
X118250000Y-102250000D01*
X149728152Y-106453659D02*
X149967180Y-106214631D01*
X148701730Y-106453659D02*
X149728152Y-106453659D01*
%TO.N,SDA*%
X111613604Y-105500000D02*
X115363604Y-101750000D01*
X102800000Y-102800000D02*
X105500000Y-105500000D01*
X148634467Y-105750000D02*
X148888126Y-106003659D01*
X151736004Y-96740307D02*
X151976311Y-96500000D01*
X150722092Y-96740307D02*
X151736004Y-96740307D01*
X123750000Y-105750000D02*
X148634467Y-105750000D01*
X115363604Y-101750000D02*
X119750000Y-101750000D01*
X148888126Y-106003659D02*
X149541756Y-106003659D01*
X119750000Y-101750000D02*
X123750000Y-105750000D01*
X155568477Y-105578325D02*
X155630824Y-105640672D01*
X102725864Y-102800000D02*
X102800000Y-102800000D01*
X105500000Y-105500000D02*
X111613604Y-105500000D01*
X149541756Y-106003659D02*
X149967090Y-105578325D01*
X149967090Y-105578325D02*
X155568477Y-105578325D01*
X151976311Y-96500000D02*
X154250000Y-96500000D01*
%TO.N,btn_B*%
D32*
X111946407Y-88331697D02*
X112564710Y-88950000D01*
X123250000Y-78500000D02*
X121030329Y-78500000D01*
X115800281Y-89200000D02*
X127619617Y-89200000D01*
X110233047Y-88344197D02*
X110245547Y-88331697D01*
X90250000Y-91500000D02*
X100500000Y-91500000D01*
X108200085Y-88344197D02*
X110233047Y-88344197D01*
X110245547Y-88331697D02*
X111946407Y-88331697D01*
X121030329Y-78500000D02*
X120468157Y-79062172D01*
X112257788Y-81262134D02*
X113987866Y-81262134D01*
X115550281Y-88950000D02*
X115800281Y-89200000D01*
X104500000Y-87500000D02*
X107355888Y-87500000D01*
X112564710Y-88950000D02*
X115550281Y-88950000D01*
X113987866Y-81262134D02*
X114250000Y-81000000D01*
X107355888Y-87500000D02*
X108200085Y-88344197D01*
X100500000Y-91500000D02*
X104500000Y-87500000D01*
%TO.N,btn_A*%
X148997056Y-91700000D02*
X149447056Y-91250000D01*
X112767112Y-87455346D02*
X132205346Y-87455346D01*
X149447056Y-91250000D02*
X174500000Y-91250000D01*
X107808290Y-86255346D02*
X108684641Y-87131697D01*
X148002944Y-91700000D02*
X148997056Y-91700000D01*
X185050038Y-79062172D02*
X187250000Y-81262134D01*
X136000000Y-91250000D02*
X147552944Y-91250000D01*
X101750000Y-88250000D02*
X103744654Y-86255346D01*
X180275426Y-79062172D02*
X185050038Y-79062172D01*
X147552944Y-91250000D02*
X148002944Y-91700000D01*
X103744654Y-86255346D02*
X107808290Y-86255346D01*
X177250000Y-78500000D02*
X179713254Y-78500000D01*
X132205346Y-87455346D02*
X136000000Y-91250000D01*
X179713254Y-78500000D02*
X180275426Y-79062172D01*
X112443463Y-87131697D02*
X112767112Y-87455346D01*
X108684641Y-87131697D02*
X112443463Y-87131697D01*
X188485796Y-81262134D02*
X187250000Y-81262134D01*
%TD*%
%TA.AperFunction,Conductor*%
%TO.N,GND*%
G36*
X82450355Y-88951093D02*
G01*
X82491918Y-89007256D01*
X82499500Y-89049950D01*
X82499500Y-89118097D01*
X82536446Y-89351368D01*
X82609433Y-89575996D01*
X82697677Y-89749184D01*
X82716657Y-89786434D01*
X82855483Y-89977510D01*
X83022490Y-90144517D01*
X83213566Y-90283343D01*
X83312992Y-90334003D01*
X83424003Y-90390566D01*
X83424005Y-90390566D01*
X83424008Y-90390568D01*
X83533379Y-90426105D01*
X83648631Y-90463553D01*
X83881903Y-90500500D01*
X84122964Y-90500500D01*
X84122964Y-90502198D01*
X84184131Y-90515037D01*
X84233895Y-90564080D01*
X84249500Y-90624300D01*
X84249500Y-94625699D01*
X84229815Y-94692738D01*
X84177011Y-94738493D01*
X84122964Y-94748051D01*
X84122964Y-94749500D01*
X83881903Y-94749500D01*
X83648631Y-94786446D01*
X83424003Y-94859433D01*
X83213565Y-94966657D01*
X83022488Y-95105484D01*
X82855484Y-95272488D01*
X82716657Y-95463565D01*
X82609433Y-95674003D01*
X82536446Y-95898631D01*
X82499500Y-96131902D01*
X82499500Y-96368097D01*
X82536446Y-96601364D01*
X82536446Y-96601365D01*
X82539408Y-96610480D01*
X82545477Y-96648798D01*
X82545477Y-98262294D01*
X82582423Y-98495561D01*
X82582424Y-98495566D01*
X82589408Y-98517060D01*
X82595477Y-98555377D01*
X82595477Y-98887463D01*
X82596395Y-98902869D01*
X82598264Y-98934254D01*
X82642530Y-99137740D01*
X82642533Y-99137751D01*
X82724512Y-99329190D01*
X82724514Y-99329193D01*
X82724515Y-99329195D01*
X82841246Y-99501666D01*
X82988508Y-99648928D01*
X83160979Y-99765659D01*
X83160981Y-99765660D01*
X83160983Y-99765661D01*
X83288609Y-99820313D01*
X83352424Y-99847641D01*
X83352432Y-99847642D01*
X83352433Y-99847643D01*
X83555919Y-99891909D01*
X83555920Y-99891909D01*
X83555925Y-99891910D01*
X83602711Y-99894697D01*
X83602722Y-99894697D01*
X84489232Y-99894697D01*
X84489243Y-99894697D01*
X84536029Y-99891910D01*
X84739530Y-99847641D01*
X84930975Y-99765659D01*
X85103446Y-99648928D01*
X85250708Y-99501666D01*
X85367439Y-99329195D01*
X85449421Y-99137750D01*
X85479495Y-98999500D01*
X85493689Y-98934254D01*
X85493689Y-98934253D01*
X85493690Y-98934249D01*
X85496477Y-98887463D01*
X85496477Y-98555377D01*
X85508474Y-98514519D01*
X85508393Y-98500300D01*
X85509526Y-98495576D01*
X85509530Y-98495565D01*
X85546477Y-98262289D01*
X85546477Y-98262275D01*
X85546655Y-98260022D01*
X85546966Y-98259204D01*
X85547240Y-98257477D01*
X85547602Y-98257534D01*
X85571531Y-98194730D01*
X85627757Y-98153253D01*
X85697482Y-98148758D01*
X85708591Y-98151805D01*
X85762185Y-98169218D01*
X85819861Y-98208654D01*
X85846341Y-98267751D01*
X85882423Y-98495561D01*
X85882424Y-98495566D01*
X85889408Y-98517060D01*
X85895477Y-98555377D01*
X85895477Y-98887463D01*
X85896395Y-98902869D01*
X85898264Y-98934254D01*
X85942530Y-99137740D01*
X85942533Y-99137751D01*
X86024512Y-99329190D01*
X86024514Y-99329193D01*
X86024515Y-99329195D01*
X86141246Y-99501666D01*
X86288508Y-99648928D01*
X86460979Y-99765659D01*
X86460981Y-99765660D01*
X86460983Y-99765661D01*
X86588609Y-99820313D01*
X86652424Y-99847641D01*
X86652432Y-99847642D01*
X86652433Y-99847643D01*
X86855919Y-99891909D01*
X86855920Y-99891909D01*
X86855925Y-99891910D01*
X86902711Y-99894697D01*
X87375500Y-99894697D01*
X87442539Y-99914382D01*
X87488294Y-99967186D01*
X87499500Y-100018697D01*
X87499500Y-101169697D01*
X87479815Y-101236736D01*
X87427011Y-101282491D01*
X87375500Y-101293697D01*
X86902711Y-101293697D01*
X86872437Y-101295500D01*
X86855919Y-101296484D01*
X86652433Y-101340750D01*
X86652422Y-101340753D01*
X86460983Y-101422732D01*
X86288507Y-101539466D01*
X86141246Y-101686727D01*
X86024512Y-101859203D01*
X85942533Y-102050642D01*
X85942530Y-102050653D01*
X85898264Y-102254139D01*
X85898264Y-102254145D01*
X85895477Y-102300931D01*
X85895477Y-102300942D01*
X85895477Y-102633015D01*
X85889408Y-102671334D01*
X85882423Y-102692828D01*
X85845477Y-102926099D01*
X85845477Y-103162294D01*
X85882423Y-103395561D01*
X85882424Y-103395566D01*
X85889408Y-103417060D01*
X85895477Y-103455377D01*
X85895477Y-103787463D01*
X85895746Y-103791971D01*
X85898264Y-103834254D01*
X85942530Y-104037740D01*
X85942533Y-104037751D01*
X86024512Y-104229190D01*
X86024514Y-104229193D01*
X86024515Y-104229195D01*
X86141246Y-104401666D01*
X86288508Y-104548928D01*
X86460979Y-104665659D01*
X86460981Y-104665660D01*
X86460983Y-104665661D01*
X86588609Y-104720313D01*
X86652424Y-104747641D01*
X86652432Y-104747642D01*
X86652433Y-104747643D01*
X86855919Y-104791909D01*
X86855920Y-104791909D01*
X86855925Y-104791910D01*
X86902711Y-104794697D01*
X86902722Y-104794697D01*
X87789232Y-104794697D01*
X87789243Y-104794697D01*
X87836029Y-104791910D01*
X87861207Y-104786433D01*
X87903862Y-104777153D01*
X88039530Y-104747641D01*
X88230975Y-104665659D01*
X88378214Y-104566005D01*
X88444765Y-104544732D01*
X88447715Y-104544697D01*
X88573900Y-104544697D01*
X88807171Y-104507750D01*
X89031795Y-104434765D01*
X89242237Y-104327540D01*
X89433313Y-104188714D01*
X89487819Y-104134208D01*
X89549142Y-104100723D01*
X89618834Y-104105707D01*
X89674767Y-104147579D01*
X89699184Y-104213043D01*
X89699500Y-104221889D01*
X89699500Y-104352351D01*
X89731522Y-104554534D01*
X89794781Y-104749223D01*
X89855349Y-104868092D01*
X89883452Y-104923248D01*
X89887715Y-104931613D01*
X90008028Y-105097213D01*
X90152786Y-105241971D01*
X90268439Y-105325996D01*
X90318390Y-105362287D01*
X90500781Y-105455220D01*
X90500783Y-105455221D01*
X90639474Y-105500284D01*
X90688837Y-105530534D01*
X91524781Y-106366478D01*
X91558266Y-106427801D01*
X91553282Y-106497493D01*
X91511410Y-106553426D01*
X91445946Y-106577843D01*
X91437100Y-106578159D01*
X82517378Y-106578159D01*
X82450339Y-106558474D01*
X82412797Y-106520784D01*
X82317666Y-106371459D01*
X80958782Y-104238438D01*
X80643069Y-103742867D01*
X83095977Y-103742867D01*
X83111162Y-103858216D01*
X83111164Y-103858221D01*
X83170610Y-104001738D01*
X83170610Y-104001739D01*
X83265184Y-104124989D01*
X83388435Y-104219563D01*
X83531952Y-104279009D01*
X83531957Y-104279011D01*
X83647306Y-104294197D01*
X83795977Y-104294197D01*
X84295977Y-104294197D01*
X84444648Y-104294197D01*
X84559996Y-104279011D01*
X84560001Y-104279009D01*
X84703518Y-104219563D01*
X84703519Y-104219563D01*
X84826769Y-104124989D01*
X84921343Y-104001739D01*
X84921343Y-104001738D01*
X84980789Y-103858221D01*
X84980791Y-103858216D01*
X84995977Y-103742867D01*
X84995977Y-103294197D01*
X84295977Y-103294197D01*
X84295977Y-104294197D01*
X83795977Y-104294197D01*
X83795977Y-103294197D01*
X83095977Y-103294197D01*
X83095977Y-103742867D01*
X80643069Y-103742867D01*
X80366958Y-103309460D01*
X79792724Y-102408093D01*
X79752864Y-102345526D01*
X83095977Y-102345526D01*
X83095977Y-102794197D01*
X83795977Y-102794197D01*
X84295977Y-102794197D01*
X84995977Y-102794197D01*
X84995977Y-102345526D01*
X84980791Y-102230177D01*
X84980789Y-102230172D01*
X84921343Y-102086655D01*
X84921343Y-102086654D01*
X84826769Y-101963404D01*
X84703518Y-101868830D01*
X84560001Y-101809384D01*
X84559996Y-101809382D01*
X84444648Y-101794197D01*
X84295977Y-101794197D01*
X84295977Y-102794197D01*
X83795977Y-102794197D01*
X83795977Y-101794197D01*
X83647306Y-101794197D01*
X83531957Y-101809382D01*
X83531952Y-101809384D01*
X83388435Y-101868830D01*
X83388434Y-101868830D01*
X83265184Y-101963404D01*
X83170610Y-102086654D01*
X83170610Y-102086655D01*
X83111164Y-102230172D01*
X83111162Y-102230177D01*
X83095977Y-102345526D01*
X79752864Y-102345526D01*
X74302153Y-93789624D01*
X74282735Y-93722507D01*
X74302685Y-93655546D01*
X74340956Y-93617883D01*
X75766763Y-92725704D01*
X75768301Y-92724759D01*
X77743113Y-91533139D01*
X77744717Y-91532189D01*
X79738553Y-90372744D01*
X79740175Y-90371818D01*
X81752562Y-89244825D01*
X81754152Y-89243952D01*
X82316672Y-88940792D01*
X82385026Y-88926316D01*
X82450355Y-88951093D01*
G37*
%TD.AperFunction*%
%TA.AperFunction,Conductor*%
G36*
X168252338Y-72819077D02*
G01*
X169608274Y-72956636D01*
X169612768Y-72957176D01*
X171084798Y-73161713D01*
X171086619Y-73161981D01*
X173364183Y-73516130D01*
X173365960Y-73516421D01*
X174716654Y-73748910D01*
X174722770Y-73750123D01*
X188424241Y-76832954D01*
X188429708Y-76834318D01*
X189117068Y-77022794D01*
X189118926Y-77023320D01*
X190258396Y-77355697D01*
X191331451Y-77668701D01*
X191333374Y-77669279D01*
X191565944Y-77741225D01*
X193108259Y-78218343D01*
X193166485Y-78256960D01*
X193194590Y-78320927D01*
X193183651Y-78389935D01*
X193159294Y-78424482D01*
X193141246Y-78442530D01*
X193024512Y-78615006D01*
X192942533Y-78806445D01*
X192942530Y-78806456D01*
X192898264Y-79009942D01*
X192898264Y-79009948D01*
X192895477Y-79056734D01*
X192895477Y-79056745D01*
X192895477Y-79219473D01*
X192886697Y-79249373D01*
X192882728Y-79274164D01*
X192881255Y-79277155D01*
X192859433Y-79319980D01*
X192786447Y-79544607D01*
X192778062Y-79597547D01*
X192748132Y-79660681D01*
X192688820Y-79697612D01*
X192618958Y-79696614D01*
X192560725Y-79658004D01*
X192533116Y-79597546D01*
X192509530Y-79448631D01*
X192502546Y-79427137D01*
X192499837Y-79410035D01*
X192497501Y-79404721D01*
X192498248Y-79400000D01*
X192496477Y-79388818D01*
X192496477Y-79056745D01*
X192496477Y-79056734D01*
X192493690Y-79009948D01*
X192484685Y-78968555D01*
X192449423Y-78806456D01*
X192449420Y-78806445D01*
X192446601Y-78799863D01*
X192422093Y-78742632D01*
X192367441Y-78615006D01*
X192367440Y-78615004D01*
X192367439Y-78615002D01*
X192250708Y-78442531D01*
X192103446Y-78295269D01*
X191930975Y-78178538D01*
X191930973Y-78178537D01*
X191930970Y-78178535D01*
X191739531Y-78096556D01*
X191739520Y-78096553D01*
X191536034Y-78052287D01*
X191521408Y-78051416D01*
X191489243Y-78049500D01*
X190602711Y-78049500D01*
X190572437Y-78051303D01*
X190555919Y-78052287D01*
X190352433Y-78096553D01*
X190352422Y-78096556D01*
X190160983Y-78178535D01*
X189988507Y-78295269D01*
X189841246Y-78442530D01*
X189724512Y-78615006D01*
X189642533Y-78806445D01*
X189642530Y-78806456D01*
X189598264Y-79009942D01*
X189598264Y-79009948D01*
X189595477Y-79056734D01*
X189595477Y-79056745D01*
X189595477Y-79388818D01*
X189589408Y-79427137D01*
X189582423Y-79448631D01*
X189545477Y-79681902D01*
X189545477Y-79933953D01*
X189525792Y-80000992D01*
X189472988Y-80046747D01*
X189403830Y-80056691D01*
X189348592Y-80034271D01*
X189272232Y-79978793D01*
X189272231Y-79978792D01*
X189272229Y-79978791D01*
X189201648Y-79942828D01*
X189061792Y-79871567D01*
X188837164Y-79798580D01*
X188603893Y-79761634D01*
X188603888Y-79761634D01*
X187922889Y-79761634D01*
X187855850Y-79741949D01*
X187835208Y-79725315D01*
X186027549Y-77917656D01*
X185968150Y-77874500D01*
X185836472Y-77778829D01*
X185818288Y-77769564D01*
X185626034Y-77671605D01*
X185401406Y-77598618D01*
X185168135Y-77561672D01*
X185168130Y-77561672D01*
X180948315Y-77561672D01*
X180881276Y-77541987D01*
X180860634Y-77525353D01*
X180690765Y-77355484D01*
X180541664Y-77247155D01*
X180499688Y-77216657D01*
X180474074Y-77203606D01*
X180289250Y-77109433D01*
X180064622Y-77036446D01*
X179831351Y-76999500D01*
X179831346Y-76999500D01*
X177131908Y-76999500D01*
X177131903Y-76999500D01*
X176898631Y-77036446D01*
X176674003Y-77109433D01*
X176463566Y-77216657D01*
X176364466Y-77288658D01*
X176272490Y-77355483D01*
X176272488Y-77355485D01*
X176272487Y-77355485D01*
X176105485Y-77522487D01*
X176105485Y-77522488D01*
X176105483Y-77522490D01*
X176103403Y-77525353D01*
X175966657Y-77713566D01*
X175859433Y-77924003D01*
X175786446Y-78148631D01*
X175749500Y-78381902D01*
X175749500Y-78618097D01*
X175786446Y-78851368D01*
X175859433Y-79075996D01*
X175919660Y-79194197D01*
X175966657Y-79286433D01*
X176105483Y-79477510D01*
X176272490Y-79644517D01*
X176463567Y-79783343D01*
X176537575Y-79821052D01*
X176674003Y-79890566D01*
X176674005Y-79890566D01*
X176674008Y-79890568D01*
X176794412Y-79929689D01*
X176898631Y-79963553D01*
X177131903Y-80000500D01*
X177131908Y-80000500D01*
X178655138Y-80000500D01*
X178722177Y-80020185D01*
X178767932Y-80072989D01*
X178777876Y-80142147D01*
X178753514Y-80199987D01*
X178659263Y-80322816D01*
X178615254Y-80429062D01*
X179822493Y-80752543D01*
X179822492Y-80752543D01*
X181029731Y-81076020D01*
X181044742Y-80962001D01*
X181044742Y-80961998D01*
X181024465Y-80807980D01*
X181024464Y-80807978D01*
X180993873Y-80734125D01*
X180986404Y-80664656D01*
X181017679Y-80602177D01*
X181077768Y-80566524D01*
X181108434Y-80562672D01*
X184377149Y-80562672D01*
X184444188Y-80582357D01*
X184464830Y-80598991D01*
X186272490Y-82406651D01*
X186371476Y-82478569D01*
X186463567Y-82545478D01*
X186644590Y-82637713D01*
X186674008Y-82652702D01*
X186674010Y-82652702D01*
X186674013Y-82652704D01*
X186841726Y-82707197D01*
X186898632Y-82725687D01*
X186991609Y-82740413D01*
X187131903Y-82762634D01*
X187307930Y-82762634D01*
X187340024Y-82766859D01*
X188032863Y-82952505D01*
X189240269Y-83276027D01*
X189244583Y-83259931D01*
X189244583Y-83259928D01*
X189259962Y-83143119D01*
X189259962Y-83143115D01*
X189239427Y-82987139D01*
X189239426Y-82987137D01*
X189201493Y-82895559D01*
X189194024Y-82826090D01*
X189225299Y-82763610D01*
X189278996Y-82729773D01*
X189288518Y-82726790D01*
X189317222Y-82722664D01*
X189464819Y-82671579D01*
X189466565Y-82671033D01*
X189499718Y-82670439D01*
X189532856Y-82668861D01*
X189534512Y-82669817D01*
X189536424Y-82669783D01*
X189564639Y-82687210D01*
X189593366Y-82703796D01*
X189595357Y-82706184D01*
X189595868Y-82706500D01*
X189596201Y-82707197D01*
X189603934Y-82716472D01*
X189676354Y-82816148D01*
X189843361Y-82983155D01*
X190034437Y-83121981D01*
X190244879Y-83229206D01*
X190405356Y-83281348D01*
X190463032Y-83320786D01*
X190490230Y-83385144D01*
X190478315Y-83453991D01*
X190431071Y-83505466D01*
X190414494Y-83513839D01*
X190388434Y-83524634D01*
X190265184Y-83619207D01*
X190170610Y-83742457D01*
X190170610Y-83742458D01*
X190111164Y-83885975D01*
X190111162Y-83885980D01*
X190095977Y-84001329D01*
X190095977Y-84450000D01*
X191995977Y-84450000D01*
X191995977Y-84001329D01*
X191980791Y-83885980D01*
X191980789Y-83885975D01*
X191921343Y-83742458D01*
X191921343Y-83742457D01*
X191826769Y-83619207D01*
X191703518Y-83524633D01*
X191560001Y-83465187D01*
X191559997Y-83465186D01*
X191458246Y-83451790D01*
X191394350Y-83423523D01*
X191355879Y-83365199D01*
X191355048Y-83295334D01*
X191392120Y-83236111D01*
X191418138Y-83218366D01*
X191607303Y-83121982D01*
X191607302Y-83121982D01*
X191607305Y-83121981D01*
X191798381Y-82983155D01*
X192190494Y-82591042D01*
X192329320Y-82399966D01*
X192436545Y-82189524D01*
X192509530Y-81964900D01*
X192514994Y-81930403D01*
X192546477Y-81731629D01*
X192546477Y-81395723D01*
X192566162Y-81328684D01*
X192618966Y-81282929D01*
X192688124Y-81272985D01*
X192751680Y-81302010D01*
X192788408Y-81357404D01*
X192859433Y-81575996D01*
X192945024Y-81743976D01*
X192966657Y-81786433D01*
X193105483Y-81977510D01*
X193272490Y-82144517D01*
X193463567Y-82283343D01*
X193482907Y-82293197D01*
X193674003Y-82390566D01*
X193674005Y-82390566D01*
X193674008Y-82390568D01*
X193762119Y-82419197D01*
X193898631Y-82463553D01*
X194131903Y-82500500D01*
X194131908Y-82500500D01*
X194368097Y-82500500D01*
X194601368Y-82463553D01*
X194615054Y-82459106D01*
X194825992Y-82390568D01*
X195036433Y-82283343D01*
X195227510Y-82144517D01*
X195394517Y-81977510D01*
X195466601Y-81878294D01*
X195521931Y-81835629D01*
X195591544Y-81829650D01*
X195653339Y-81862256D01*
X195687696Y-81923094D01*
X195690537Y-81941453D01*
X195692854Y-81970910D01*
X195737969Y-82126196D01*
X195820278Y-82265374D01*
X195820285Y-82265383D01*
X195934616Y-82379714D01*
X195934625Y-82379721D01*
X196073804Y-82462031D01*
X196229089Y-82507145D01*
X196250000Y-82508789D01*
X196250000Y-82174499D01*
X196269685Y-82107460D01*
X196322489Y-82061705D01*
X196373996Y-82050499D01*
X196626000Y-82050499D01*
X196693039Y-82070184D01*
X196738794Y-82122988D01*
X196750000Y-82174499D01*
X196750000Y-82508789D01*
X196770910Y-82507145D01*
X196926195Y-82462031D01*
X197065374Y-82379721D01*
X197065383Y-82379714D01*
X197179714Y-82265383D01*
X197179721Y-82265374D01*
X197262030Y-82126196D01*
X197307145Y-81970910D01*
X197307145Y-81970907D01*
X197309999Y-81934644D01*
X197309999Y-81919386D01*
X197329680Y-81852345D01*
X197363917Y-81817083D01*
X197401726Y-81791184D01*
X197551184Y-81641726D01*
X197670635Y-81467350D01*
X197756010Y-81273994D01*
X197773208Y-81200872D01*
X197804400Y-81068252D01*
X197804400Y-81068248D01*
X197804402Y-81068242D01*
X197810500Y-80980391D01*
X197810499Y-80559610D01*
X197810139Y-80554429D01*
X197804402Y-80471764D01*
X197804402Y-80471758D01*
X197800253Y-80454118D01*
X197756012Y-80266013D01*
X197756010Y-80266007D01*
X197748721Y-80249500D01*
X197670635Y-80072650D01*
X197668120Y-80068979D01*
X197583070Y-79944821D01*
X197561423Y-79878389D01*
X197579128Y-79810800D01*
X197630564Y-79763513D01*
X197699400Y-79751540D01*
X197725832Y-79757532D01*
X197907893Y-79820382D01*
X197909786Y-79821052D01*
X198048774Y-79871566D01*
X200075981Y-80608338D01*
X200077787Y-80609012D01*
X202230888Y-81431253D01*
X202232605Y-81431925D01*
X204372222Y-82288971D01*
X204373979Y-82289692D01*
X206499369Y-83181247D01*
X206501098Y-83181988D01*
X208611714Y-84107821D01*
X208613537Y-84108637D01*
X210638848Y-85036446D01*
X210708863Y-85068520D01*
X210710666Y-85069363D01*
X211368161Y-85383546D01*
X211369132Y-85384017D01*
X213439533Y-86402786D01*
X215166667Y-87252646D01*
X215168978Y-87253813D01*
X215684305Y-87520893D01*
X216903234Y-88152632D01*
X216904840Y-88153481D01*
X218933741Y-89247048D01*
X218935344Y-89247929D01*
X220912834Y-90355483D01*
X220946208Y-90374175D01*
X220947888Y-90375132D01*
X222679075Y-91381908D01*
X222940283Y-91533814D01*
X222942010Y-91534838D01*
X223615390Y-91941177D01*
X224915286Y-92725577D01*
X224916930Y-92726587D01*
X225695172Y-93213567D01*
X226301372Y-93592893D01*
X226347761Y-93645142D01*
X226358538Y-93714175D01*
X226341748Y-93762102D01*
X225329133Y-95439247D01*
X225327562Y-95441780D01*
X218364588Y-106371459D01*
X218311965Y-106417423D01*
X218260279Y-106428834D01*
X217489554Y-106430523D01*
X217422471Y-106410985D01*
X217376601Y-106358282D01*
X217366506Y-106289145D01*
X217388964Y-106233637D01*
X217390489Y-106231537D01*
X217390494Y-106231533D01*
X217529320Y-106040457D01*
X217636545Y-105830015D01*
X217709530Y-105605391D01*
X217717656Y-105554087D01*
X217746477Y-105372120D01*
X217746477Y-103626099D01*
X217709530Y-103392828D01*
X217702546Y-103371334D01*
X217696477Y-103333015D01*
X217696477Y-103000942D01*
X217696477Y-103000931D01*
X217693690Y-102954145D01*
X217687590Y-102926105D01*
X217649423Y-102750653D01*
X217649420Y-102750642D01*
X217567441Y-102559203D01*
X217567440Y-102559201D01*
X217567439Y-102559199D01*
X217450708Y-102386728D01*
X217303446Y-102239466D01*
X217130975Y-102122735D01*
X217130973Y-102122734D01*
X217130970Y-102122732D01*
X216939531Y-102040753D01*
X216939520Y-102040750D01*
X216736034Y-101996484D01*
X216721408Y-101995613D01*
X216689243Y-101993697D01*
X215802711Y-101993697D01*
X215772437Y-101995500D01*
X215755919Y-101996484D01*
X215552433Y-102040750D01*
X215552422Y-102040753D01*
X215360983Y-102122732D01*
X215188507Y-102239466D01*
X215041246Y-102386727D01*
X214924512Y-102559203D01*
X214842533Y-102750642D01*
X214842530Y-102750653D01*
X214798264Y-102954139D01*
X214798264Y-102954145D01*
X214795477Y-103000931D01*
X214795477Y-103000942D01*
X214795477Y-103333015D01*
X214789408Y-103371334D01*
X214782423Y-103392828D01*
X214745477Y-103626099D01*
X214745477Y-104125644D01*
X214725792Y-104192683D01*
X214672988Y-104238438D01*
X214621477Y-104249644D01*
X214019977Y-104249644D01*
X213952938Y-104229959D01*
X213907183Y-104177155D01*
X213895977Y-104125644D01*
X213895977Y-103994197D01*
X211995977Y-103994197D01*
X211995977Y-104125644D01*
X211976292Y-104192683D01*
X211923488Y-104238438D01*
X211871977Y-104249644D01*
X190673033Y-104249644D01*
X190605994Y-104229959D01*
X190585352Y-104213325D01*
X189977511Y-103605484D01*
X189786434Y-103466657D01*
X189575996Y-103359433D01*
X189351368Y-103286446D01*
X189118097Y-103249500D01*
X189118092Y-103249500D01*
X188881908Y-103249500D01*
X188881903Y-103249500D01*
X188648631Y-103286446D01*
X188424003Y-103359433D01*
X188213565Y-103466657D01*
X188022488Y-103605484D01*
X187855484Y-103772488D01*
X187716657Y-103963565D01*
X187609433Y-104174003D01*
X187536446Y-104398631D01*
X187499500Y-104631902D01*
X187499500Y-104868097D01*
X187536446Y-105101368D01*
X187609433Y-105325996D01*
X187716657Y-105536434D01*
X187855484Y-105727511D01*
X188410722Y-106282749D01*
X188444207Y-106344072D01*
X188439223Y-106413764D01*
X188397351Y-106469697D01*
X188331887Y-106494114D01*
X188323313Y-106494430D01*
X156811507Y-106563478D01*
X156744424Y-106543940D01*
X156698554Y-106491236D01*
X156688459Y-106422100D01*
X156710916Y-106366593D01*
X156743111Y-106322282D01*
X156836044Y-106139891D01*
X156899301Y-105945206D01*
X156900807Y-105940572D01*
X156901879Y-105940920D01*
X156934005Y-105884964D01*
X156996030Y-105852798D01*
X157019792Y-105850500D01*
X160641763Y-105850500D01*
X160680083Y-105856570D01*
X160701568Y-105863551D01*
X160701571Y-105863551D01*
X160701576Y-105863553D01*
X160809617Y-105880664D01*
X160934847Y-105900500D01*
X160934852Y-105900500D01*
X164112209Y-105900500D01*
X164345480Y-105863553D01*
X164378580Y-105852798D01*
X164570104Y-105790568D01*
X164780546Y-105683343D01*
X164971622Y-105544517D01*
X164979320Y-105536819D01*
X165040643Y-105503334D01*
X165067001Y-105500500D01*
X166118097Y-105500500D01*
X166351368Y-105463553D01*
X166377014Y-105455220D01*
X166575992Y-105390568D01*
X166786433Y-105283343D01*
X166977510Y-105144517D01*
X167144517Y-104977510D01*
X167283343Y-104786433D01*
X167390568Y-104575992D01*
X167463553Y-104351368D01*
X167475013Y-104279011D01*
X167500500Y-104118097D01*
X167500500Y-103881902D01*
X167463553Y-103648631D01*
X167409284Y-103481610D01*
X167390568Y-103424008D01*
X167390566Y-103424005D01*
X167390566Y-103424003D01*
X167302161Y-103250500D01*
X167283343Y-103213567D01*
X167161254Y-103045526D01*
X211995977Y-103045526D01*
X211995977Y-103494197D01*
X212695977Y-103494197D01*
X213195977Y-103494197D01*
X213895977Y-103494197D01*
X213895977Y-103045526D01*
X213880791Y-102930177D01*
X213880789Y-102930172D01*
X213821343Y-102786655D01*
X213821343Y-102786654D01*
X213726769Y-102663404D01*
X213603518Y-102568830D01*
X213460001Y-102509384D01*
X213459996Y-102509382D01*
X213344648Y-102494197D01*
X213195977Y-102494197D01*
X213195977Y-103494197D01*
X212695977Y-103494197D01*
X212695977Y-102494197D01*
X212547306Y-102494197D01*
X212431957Y-102509382D01*
X212431952Y-102509384D01*
X212288435Y-102568830D01*
X212288434Y-102568830D01*
X212165184Y-102663404D01*
X212070610Y-102786654D01*
X212070610Y-102786655D01*
X212011164Y-102930172D01*
X212011162Y-102930177D01*
X211995977Y-103045526D01*
X167161254Y-103045526D01*
X167144517Y-103022490D01*
X166977510Y-102855483D01*
X166786433Y-102716657D01*
X166697482Y-102671334D01*
X166575996Y-102609433D01*
X166351368Y-102536446D01*
X166118097Y-102499500D01*
X166118092Y-102499500D01*
X165874379Y-102499500D01*
X165807340Y-102479815D01*
X165761585Y-102427011D01*
X165750761Y-102385220D01*
X165750500Y-102381904D01*
X165713553Y-102148631D01*
X165663211Y-101993697D01*
X165640568Y-101924008D01*
X165640566Y-101924005D01*
X165640566Y-101924003D01*
X165639713Y-101921944D01*
X165639622Y-101921099D01*
X165639062Y-101919375D01*
X165639424Y-101919257D01*
X165632250Y-101852474D01*
X165663530Y-101789997D01*
X165723621Y-101754349D01*
X165754278Y-101750500D01*
X211658271Y-101750500D01*
X211891542Y-101713553D01*
X212116166Y-101640568D01*
X212326608Y-101533343D01*
X212517684Y-101394517D01*
X213281186Y-100631016D01*
X213342509Y-100597531D01*
X213368867Y-100594697D01*
X213389232Y-100594697D01*
X213389243Y-100594697D01*
X213436029Y-100591910D01*
X213639530Y-100547641D01*
X213830975Y-100465659D01*
X214003446Y-100348928D01*
X214150708Y-100201666D01*
X214267439Y-100029195D01*
X214349421Y-99837750D01*
X214393690Y-99634249D01*
X214396477Y-99587463D01*
X214396477Y-99255377D01*
X214408474Y-99214519D01*
X214408393Y-99200300D01*
X214409526Y-99195576D01*
X214409530Y-99195565D01*
X214429147Y-99071708D01*
X214446477Y-98962294D01*
X214446477Y-98726103D01*
X214745477Y-98726103D01*
X214745477Y-98962294D01*
X214782423Y-99195561D01*
X214782424Y-99195566D01*
X214789408Y-99217060D01*
X214795477Y-99255377D01*
X214795477Y-99587463D01*
X214797444Y-99620488D01*
X214798264Y-99634254D01*
X214842530Y-99837740D01*
X214842533Y-99837751D01*
X214924512Y-100029190D01*
X214924514Y-100029193D01*
X214924515Y-100029195D01*
X215041246Y-100201666D01*
X215188508Y-100348928D01*
X215360979Y-100465659D01*
X215360981Y-100465660D01*
X215360983Y-100465661D01*
X215488609Y-100520313D01*
X215552424Y-100547641D01*
X215552432Y-100547642D01*
X215552433Y-100547643D01*
X215755919Y-100591909D01*
X215755920Y-100591909D01*
X215755925Y-100591910D01*
X215802711Y-100594697D01*
X215802722Y-100594697D01*
X216689232Y-100594697D01*
X216689243Y-100594697D01*
X216736029Y-100591910D01*
X216939530Y-100547641D01*
X217130975Y-100465659D01*
X217303446Y-100348928D01*
X217450708Y-100201666D01*
X217544797Y-100062647D01*
X217598672Y-100018164D01*
X217668048Y-100009869D01*
X217717562Y-100029851D01*
X217768627Y-100064832D01*
X217961983Y-100150207D01*
X217961986Y-100150207D01*
X217961990Y-100150209D01*
X218167724Y-100198597D01*
X218167729Y-100198597D01*
X218167735Y-100198599D01*
X218255586Y-100204697D01*
X218676367Y-100204696D01*
X218676370Y-100204696D01*
X218702722Y-100202866D01*
X218764219Y-100198599D01*
X218764228Y-100198597D01*
X218969963Y-100150209D01*
X218969964Y-100150208D01*
X218969971Y-100150207D01*
X219163327Y-100064832D01*
X219337703Y-99945381D01*
X219487161Y-99795923D01*
X219507891Y-99765661D01*
X219513058Y-99758119D01*
X219567184Y-99713936D01*
X219615357Y-99704196D01*
X219630601Y-99704196D01*
X219630626Y-99704195D01*
X219666887Y-99701342D01*
X219822173Y-99656227D01*
X219961351Y-99573918D01*
X219961360Y-99573911D01*
X220075691Y-99459580D01*
X220075698Y-99459571D01*
X220158008Y-99320392D01*
X220158010Y-99320387D01*
X220203121Y-99165115D01*
X220203122Y-99165109D01*
X220204767Y-99144197D01*
X219870477Y-99144197D01*
X219803438Y-99124512D01*
X219757683Y-99071708D01*
X219746477Y-99020197D01*
X219746476Y-98768197D01*
X219766160Y-98701158D01*
X219818964Y-98655403D01*
X219870476Y-98644197D01*
X220204767Y-98644197D01*
X220203122Y-98623286D01*
X220158008Y-98468001D01*
X220075698Y-98328822D01*
X220075691Y-98328813D01*
X219961360Y-98214482D01*
X219961351Y-98214475D01*
X219822173Y-98132166D01*
X219666886Y-98087051D01*
X219630621Y-98084197D01*
X219615357Y-98084197D01*
X219548318Y-98064512D01*
X219513058Y-98030274D01*
X219487167Y-97992478D01*
X219487156Y-97992465D01*
X219337708Y-97843017D01*
X219337702Y-97843012D01*
X219163327Y-97723562D01*
X219163323Y-97723560D01*
X218969969Y-97638186D01*
X218969963Y-97638184D01*
X218764229Y-97589796D01*
X218764213Y-97589794D01*
X218676371Y-97583697D01*
X218255583Y-97583697D01*
X218167741Y-97589794D01*
X218167725Y-97589796D01*
X217961990Y-97638184D01*
X217961974Y-97638190D01*
X217924584Y-97654699D01*
X217855306Y-97663769D01*
X217792121Y-97633945D01*
X217755092Y-97574695D01*
X217750500Y-97541264D01*
X217750500Y-89881902D01*
X217713553Y-89648631D01*
X217640566Y-89424003D01*
X217568716Y-89282991D01*
X217533343Y-89213567D01*
X217394517Y-89022490D01*
X217227510Y-88855483D01*
X217036433Y-88716657D01*
X216947482Y-88671334D01*
X216825996Y-88609433D01*
X216601368Y-88536446D01*
X216368097Y-88499500D01*
X216368092Y-88499500D01*
X216131908Y-88499500D01*
X216131903Y-88499500D01*
X215898631Y-88536446D01*
X215674003Y-88609433D01*
X215463566Y-88716657D01*
X215356843Y-88794197D01*
X215272490Y-88855483D01*
X215272488Y-88855485D01*
X215272487Y-88855485D01*
X215105485Y-89022487D01*
X215105485Y-89022488D01*
X215105483Y-89022490D01*
X215085532Y-89049950D01*
X214966657Y-89213566D01*
X214859433Y-89424003D01*
X214786446Y-89648631D01*
X214749500Y-89881902D01*
X214749500Y-98690946D01*
X214747973Y-98710346D01*
X214745477Y-98726103D01*
X214446477Y-98726103D01*
X214446477Y-98726099D01*
X214409530Y-98492827D01*
X214402546Y-98471333D01*
X214396477Y-98433014D01*
X214396477Y-98100942D01*
X214396477Y-98100931D01*
X214393690Y-98054145D01*
X214386912Y-98022989D01*
X214349423Y-97850653D01*
X214349420Y-97850642D01*
X214267441Y-97659203D01*
X214267440Y-97659201D01*
X214267439Y-97659199D01*
X214150708Y-97486728D01*
X214003446Y-97339466D01*
X213830975Y-97222735D01*
X213830973Y-97222734D01*
X213830970Y-97222732D01*
X213639531Y-97140753D01*
X213639520Y-97140750D01*
X213436034Y-97096484D01*
X213421408Y-97095613D01*
X213389243Y-97093697D01*
X212502711Y-97093697D01*
X212472437Y-97095500D01*
X212455919Y-97096484D01*
X212252433Y-97140750D01*
X212252422Y-97140753D01*
X212060983Y-97222732D01*
X211888507Y-97339466D01*
X211741246Y-97486727D01*
X211624512Y-97659203D01*
X211542533Y-97850642D01*
X211542530Y-97850653D01*
X211498264Y-98054139D01*
X211497646Y-98064512D01*
X211495477Y-98100931D01*
X211495477Y-98100942D01*
X211495477Y-98121307D01*
X211475792Y-98188346D01*
X211459158Y-98208988D01*
X210954966Y-98713181D01*
X210893643Y-98746666D01*
X210867285Y-98749500D01*
X155376425Y-98749500D01*
X155309386Y-98729815D01*
X155263631Y-98677011D01*
X155253687Y-98607853D01*
X155282712Y-98544297D01*
X155338106Y-98507569D01*
X155383473Y-98492828D01*
X155499219Y-98455220D01*
X155681610Y-98362287D01*
X155778479Y-98291908D01*
X155847213Y-98241971D01*
X155847215Y-98241968D01*
X155847219Y-98241966D01*
X155991966Y-98097219D01*
X155991968Y-98097215D01*
X155991971Y-98097213D01*
X156062236Y-98000500D01*
X156112287Y-97931610D01*
X156205220Y-97749219D01*
X156268477Y-97554534D01*
X156300500Y-97352352D01*
X156300500Y-97147648D01*
X156287335Y-97064526D01*
X156268477Y-96945465D01*
X156239127Y-96855137D01*
X156205220Y-96750781D01*
X156205218Y-96750778D01*
X156205218Y-96750776D01*
X156143250Y-96629159D01*
X156112287Y-96568390D01*
X156035685Y-96462955D01*
X155991971Y-96402786D01*
X155847213Y-96258028D01*
X155681611Y-96137713D01*
X155606303Y-96099342D01*
X155505969Y-96048219D01*
X155455174Y-96000247D01*
X155451790Y-95994050D01*
X155362287Y-95818390D01*
X155362285Y-95818387D01*
X155362284Y-95818385D01*
X155274373Y-95697385D01*
X155250893Y-95631579D01*
X155266719Y-95563525D01*
X155316825Y-95514830D01*
X155374691Y-95500500D01*
X197327111Y-95500500D01*
X197394150Y-95520185D01*
X197414792Y-95536819D01*
X199772490Y-97894517D01*
X199963566Y-98033343D01*
X200174008Y-98140568D01*
X200174010Y-98140569D01*
X200240526Y-98162181D01*
X200398631Y-98213552D01*
X200506673Y-98230663D01*
X200631903Y-98250499D01*
X200631908Y-98250499D01*
X200868097Y-98250499D01*
X200981184Y-98232587D01*
X201101368Y-98213552D01*
X201325992Y-98140568D01*
X201536433Y-98033343D01*
X201727510Y-97894517D01*
X201894517Y-97727510D01*
X202033343Y-97536433D01*
X202140568Y-97325992D01*
X202213552Y-97101368D01*
X202234888Y-96966657D01*
X202250499Y-96868097D01*
X202250499Y-96631902D01*
X202223740Y-96462955D01*
X202213552Y-96398631D01*
X202177060Y-96286319D01*
X202140569Y-96174010D01*
X202140567Y-96174007D01*
X202122075Y-96137713D01*
X202033343Y-95963566D01*
X201894517Y-95772490D01*
X198977510Y-92855483D01*
X198786434Y-92716657D01*
X198575996Y-92609433D01*
X198351368Y-92536446D01*
X198118097Y-92499500D01*
X198118092Y-92499500D01*
X175671889Y-92499500D01*
X175604850Y-92479815D01*
X175559095Y-92427011D01*
X175549151Y-92357853D01*
X175578176Y-92294297D01*
X175584208Y-92287819D01*
X175585594Y-92286433D01*
X175644517Y-92227510D01*
X175783343Y-92036433D01*
X175890568Y-91825992D01*
X175963553Y-91601368D01*
X175974174Y-91534312D01*
X176000500Y-91368097D01*
X176000500Y-91131902D01*
X175962803Y-90893898D01*
X175971757Y-90824605D01*
X176016753Y-90771153D01*
X176083505Y-90750513D01*
X176085276Y-90750500D01*
X190815153Y-90750500D01*
X191048424Y-90713553D01*
X191075529Y-90704746D01*
X191273048Y-90640568D01*
X191483490Y-90533343D01*
X191674566Y-90394517D01*
X195490495Y-86578589D01*
X195629320Y-86387512D01*
X195736545Y-86177071D01*
X195809530Y-85952447D01*
X195817396Y-85902781D01*
X195846477Y-85719171D01*
X195846477Y-84581908D01*
X195846477Y-84581902D01*
X195809530Y-84348631D01*
X195802546Y-84327137D01*
X195796477Y-84288818D01*
X195796477Y-83956745D01*
X195796477Y-83956734D01*
X195793690Y-83909948D01*
X195790730Y-83896343D01*
X195749423Y-83706456D01*
X195749420Y-83706445D01*
X195667441Y-83515006D01*
X195667440Y-83515004D01*
X195667439Y-83515002D01*
X195550708Y-83342531D01*
X195403446Y-83195269D01*
X195230975Y-83078538D01*
X195230973Y-83078537D01*
X195230970Y-83078535D01*
X195039531Y-82996556D01*
X195039520Y-82996553D01*
X194836034Y-82952287D01*
X194821408Y-82951416D01*
X194789243Y-82949500D01*
X193902711Y-82949500D01*
X193872437Y-82951303D01*
X193855919Y-82952287D01*
X193652433Y-82996553D01*
X193652422Y-82996556D01*
X193460983Y-83078535D01*
X193288507Y-83195269D01*
X193141246Y-83342530D01*
X193024512Y-83515006D01*
X192942533Y-83706445D01*
X192942530Y-83706456D01*
X192898264Y-83909942D01*
X192897298Y-83926169D01*
X192895477Y-83956734D01*
X192895477Y-83956745D01*
X192895477Y-84288818D01*
X192889408Y-84327137D01*
X192882423Y-84348631D01*
X192845477Y-84581902D01*
X192845477Y-84928189D01*
X192825792Y-84995228D01*
X192809158Y-85015870D01*
X192397793Y-85427234D01*
X192336470Y-85460719D01*
X192266778Y-85455735D01*
X192254168Y-85450216D01*
X192253875Y-85450068D01*
X192075992Y-85359432D01*
X192072057Y-85358153D01*
X192064033Y-85354097D01*
X192041827Y-85333257D01*
X192018120Y-85314153D01*
X192016598Y-85309581D01*
X192013085Y-85306284D01*
X192005671Y-85276750D01*
X191996056Y-85247858D01*
X191995977Y-85243434D01*
X191995977Y-84950000D01*
X190095977Y-84950000D01*
X190095977Y-85375500D01*
X190076292Y-85442539D01*
X190023488Y-85488294D01*
X189971977Y-85499500D01*
X185519608Y-85499500D01*
X185452569Y-85479815D01*
X185406814Y-85427011D01*
X185396870Y-85357853D01*
X185399833Y-85343407D01*
X185425435Y-85247858D01*
X185652761Y-84399464D01*
X185662245Y-84353225D01*
X185672223Y-84143770D01*
X185659543Y-84055578D01*
X187996113Y-84055578D01*
X188422731Y-84169891D01*
X188539542Y-84185270D01*
X188539544Y-84185270D01*
X188695522Y-84164733D01*
X188840868Y-84104530D01*
X188965686Y-84008753D01*
X189061459Y-83883940D01*
X189106548Y-83775086D01*
X189110859Y-83758991D01*
X189110859Y-83758990D01*
X188144934Y-83500171D01*
X187996113Y-84055578D01*
X185659543Y-84055578D01*
X185642381Y-83936212D01*
X185573797Y-83738053D01*
X185505181Y-83619207D01*
X185468954Y-83556460D01*
X185468952Y-83556458D01*
X185468950Y-83556454D01*
X185331632Y-83397978D01*
X185166802Y-83268355D01*
X185121216Y-83244854D01*
X186676354Y-83244854D01*
X186676354Y-83244856D01*
X186696888Y-83400832D01*
X186696889Y-83400834D01*
X186757093Y-83546180D01*
X186757095Y-83546184D01*
X186852867Y-83670995D01*
X186977686Y-83766772D01*
X187086534Y-83811858D01*
X187513149Y-83926169D01*
X187661971Y-83370762D01*
X186696045Y-83111943D01*
X186691735Y-83128029D01*
X186691732Y-83128043D01*
X186676354Y-83244854D01*
X185121216Y-83244854D01*
X184980419Y-83172269D01*
X184980418Y-83172268D01*
X184980417Y-83172268D01*
X184935643Y-83157365D01*
X184935637Y-83157363D01*
X184935633Y-83157362D01*
X184334194Y-82996207D01*
X184321195Y-82993541D01*
X184287953Y-82986723D01*
X184078508Y-82976744D01*
X184078495Y-82976745D01*
X183870939Y-83006587D01*
X183671947Y-83075460D01*
X183602156Y-83078785D01*
X183541647Y-83043850D01*
X183537677Y-83039482D01*
X183399783Y-82880342D01*
X183399778Y-82880338D01*
X183374529Y-82860482D01*
X183234951Y-82750717D01*
X183048568Y-82654631D01*
X183048567Y-82654630D01*
X183048566Y-82654630D01*
X183003792Y-82639727D01*
X183003786Y-82639725D01*
X183003782Y-82639724D01*
X182402343Y-82478569D01*
X182389344Y-82475903D01*
X182356102Y-82469085D01*
X182146657Y-82459106D01*
X182146644Y-82459107D01*
X181939088Y-82488949D01*
X181740927Y-82557535D01*
X181559339Y-82662375D01*
X181559327Y-82662384D01*
X181400857Y-82799698D01*
X181400854Y-82799701D01*
X181271236Y-82964523D01*
X181175146Y-83150913D01*
X181160245Y-83195681D01*
X180779088Y-84618181D01*
X180769606Y-84664413D01*
X180759628Y-84873868D01*
X180789470Y-85081427D01*
X180836274Y-85216657D01*
X180858054Y-85279585D01*
X180873469Y-85306284D01*
X180877635Y-85313500D01*
X180894108Y-85381400D01*
X180871255Y-85447427D01*
X180816334Y-85490618D01*
X180770248Y-85499500D01*
X167411823Y-85499500D01*
X167344784Y-85479815D01*
X167299029Y-85427011D01*
X167289085Y-85357853D01*
X167311505Y-85302615D01*
X167323251Y-85286448D01*
X167429320Y-85140456D01*
X167536545Y-84930015D01*
X167609530Y-84705391D01*
X167617578Y-84654578D01*
X167646477Y-84472120D01*
X167646477Y-83525645D01*
X167666162Y-83458606D01*
X167718966Y-83412851D01*
X167788124Y-83402907D01*
X167792771Y-83403666D01*
X167793489Y-83403797D01*
X167795975Y-83403992D01*
X167795977Y-83403992D01*
X168295977Y-83403992D01*
X168295978Y-83403992D01*
X168298463Y-83403797D01*
X168456175Y-83357978D01*
X168597529Y-83274382D01*
X168597538Y-83274375D01*
X168713655Y-83158258D01*
X168713662Y-83158249D01*
X168797259Y-83016893D01*
X168797260Y-83016890D01*
X168843076Y-82859192D01*
X168843077Y-82859186D01*
X168845976Y-82822346D01*
X168845977Y-82822331D01*
X168845977Y-82419197D01*
X168295977Y-82419197D01*
X168295977Y-83403992D01*
X167795977Y-83403992D01*
X167795977Y-82293197D01*
X167815662Y-82226158D01*
X167868466Y-82180403D01*
X167919977Y-82169197D01*
X168045977Y-82169197D01*
X168045977Y-82043197D01*
X168065662Y-81976158D01*
X168118466Y-81930403D01*
X168169977Y-81919197D01*
X168845977Y-81919197D01*
X168845977Y-81831468D01*
X179792214Y-81831468D01*
X180225599Y-81947594D01*
X180340946Y-81962780D01*
X180340948Y-81962780D01*
X180494966Y-81942503D01*
X180494971Y-81942501D01*
X180638488Y-81883055D01*
X180638489Y-81883055D01*
X180761739Y-81788481D01*
X180856312Y-81665232D01*
X180900321Y-81558984D01*
X179934564Y-81300209D01*
X179792214Y-81831468D01*
X168845977Y-81831468D01*
X168845977Y-81516062D01*
X168845976Y-81516047D01*
X168843077Y-81479207D01*
X168843076Y-81479201D01*
X168797260Y-81321503D01*
X168797259Y-81321500D01*
X168713662Y-81180144D01*
X168713655Y-81180135D01*
X168645059Y-81111539D01*
X168532660Y-81026046D01*
X178470834Y-81026046D01*
X178470834Y-81026050D01*
X178491110Y-81180067D01*
X178491111Y-81180069D01*
X178550560Y-81323592D01*
X178645130Y-81446839D01*
X178768383Y-81541414D01*
X178875867Y-81585935D01*
X179309250Y-81702059D01*
X179451601Y-81170800D01*
X178485844Y-80912026D01*
X178485843Y-80912027D01*
X178470834Y-81026046D01*
X168532660Y-81026046D01*
X168524565Y-81019889D01*
X168507949Y-80997334D01*
X168488829Y-80976856D01*
X168487506Y-80969584D01*
X168483124Y-80963636D01*
X168481339Y-80935677D01*
X168476326Y-80908114D01*
X168478927Y-80897892D01*
X168478673Y-80893908D01*
X168481012Y-80889701D01*
X168485075Y-80873737D01*
X168486537Y-80870203D01*
X168486545Y-80870189D01*
X168559530Y-80645565D01*
X168573144Y-80559610D01*
X168596477Y-80412294D01*
X168596477Y-80176099D01*
X168559530Y-79942828D01*
X168512661Y-79798581D01*
X168486545Y-79718205D01*
X168486543Y-79718202D01*
X168486543Y-79718200D01*
X168435535Y-79618092D01*
X168389383Y-79527515D01*
X168379164Y-79499613D01*
X168375108Y-79482369D01*
X168353106Y-79388818D01*
X168341512Y-79339523D01*
X168341510Y-79339520D01*
X168341509Y-79339512D01*
X168255386Y-79144460D01*
X168134888Y-78968555D01*
X168134883Y-78968549D01*
X168097212Y-78930878D01*
X168063727Y-78869555D01*
X168068711Y-78799863D01*
X168110583Y-78743930D01*
X168176047Y-78719513D01*
X168184893Y-78719197D01*
X168261611Y-78719197D01*
X168261626Y-78719196D01*
X168298466Y-78716297D01*
X168298472Y-78716296D01*
X168456170Y-78670480D01*
X168456173Y-78670479D01*
X168597529Y-78586882D01*
X168597538Y-78586875D01*
X168713655Y-78470758D01*
X168713662Y-78470749D01*
X168797259Y-78329393D01*
X168797260Y-78329390D01*
X168843076Y-78171692D01*
X168843077Y-78171686D01*
X168845976Y-78134846D01*
X168845977Y-78134831D01*
X168845977Y-77731697D01*
X168169977Y-77731697D01*
X168102938Y-77712012D01*
X168057183Y-77659208D01*
X168045977Y-77607697D01*
X168045977Y-77355697D01*
X168065662Y-77288658D01*
X168118466Y-77242903D01*
X168169977Y-77231697D01*
X168845977Y-77231697D01*
X168845977Y-76828562D01*
X168845976Y-76828547D01*
X168843077Y-76791707D01*
X168843076Y-76791701D01*
X168797260Y-76634003D01*
X168797259Y-76634000D01*
X168713662Y-76492644D01*
X168713655Y-76492635D01*
X168597538Y-76376518D01*
X168597532Y-76376514D01*
X168536512Y-76340426D01*
X168488829Y-76289356D01*
X168476326Y-76220614D01*
X168485075Y-76186237D01*
X168486537Y-76182703D01*
X168486545Y-76182689D01*
X168559530Y-75958065D01*
X168571136Y-75884788D01*
X168596477Y-75724794D01*
X168596477Y-73977879D01*
X168559530Y-73744608D01*
X168486543Y-73519980D01*
X168379319Y-73309542D01*
X168363352Y-73287567D01*
X168363351Y-73287565D01*
X168240495Y-73118467D01*
X168152154Y-73030126D01*
X168118669Y-72968803D01*
X168123653Y-72899111D01*
X168165525Y-72843178D01*
X168230989Y-72818761D01*
X168252338Y-72819077D01*
G37*
%TD.AperFunction*%
%TA.AperFunction,Conductor*%
G36*
X154191726Y-98290693D02*
G01*
X154212976Y-98291908D01*
X154234878Y-98303363D01*
X154238345Y-98304382D01*
X154243295Y-98307766D01*
X154243468Y-98307857D01*
X154243811Y-98308102D01*
X154318390Y-98362287D01*
X154420310Y-98414218D01*
X154500776Y-98455218D01*
X154500778Y-98455218D01*
X154500781Y-98455220D01*
X154550372Y-98471333D01*
X154661894Y-98507569D01*
X154719569Y-98547007D01*
X154746767Y-98611366D01*
X154734852Y-98680212D01*
X154687608Y-98731688D01*
X154623575Y-98749500D01*
X153772659Y-98749500D01*
X153705620Y-98729815D01*
X153659865Y-98677011D01*
X153649921Y-98607853D01*
X153678946Y-98544297D01*
X153709538Y-98518768D01*
X153785374Y-98473918D01*
X153785383Y-98473911D01*
X153899714Y-98359580D01*
X153899719Y-98359574D01*
X153907997Y-98345577D01*
X153959066Y-98297893D01*
X154014730Y-98284697D01*
X154171306Y-98284697D01*
X154191726Y-98290693D01*
G37*
%TD.AperFunction*%
%TA.AperFunction,Conductor*%
G36*
X146187055Y-95520185D02*
G01*
X146232810Y-95572989D01*
X146242754Y-95642147D01*
X146213729Y-95705703D01*
X146207697Y-95712181D01*
X146201788Y-95718089D01*
X146201784Y-95718093D01*
X146081471Y-95883693D01*
X145988537Y-96066083D01*
X145925278Y-96260772D01*
X145893256Y-96462955D01*
X145893256Y-96667658D01*
X145925278Y-96869841D01*
X145988537Y-97064530D01*
X146081471Y-97246920D01*
X146201784Y-97412520D01*
X146346542Y-97557278D01*
X146480633Y-97654699D01*
X146512146Y-97677594D01*
X146694537Y-97770527D01*
X146889222Y-97833784D01*
X146890084Y-97834064D01*
X146947760Y-97873502D01*
X146974958Y-97937860D01*
X146963043Y-98006707D01*
X146915799Y-98058182D01*
X146908063Y-98062479D01*
X146858537Y-98087714D01*
X146713237Y-98193281D01*
X146647431Y-98216761D01*
X146579377Y-98200935D01*
X146552671Y-98180644D01*
X145477511Y-97105484D01*
X145471847Y-97101369D01*
X145286434Y-96966657D01*
X145075996Y-96859433D01*
X144851368Y-96786446D01*
X144618097Y-96749500D01*
X144618092Y-96749500D01*
X129922889Y-96749500D01*
X129855850Y-96729815D01*
X129835208Y-96713181D01*
X128834208Y-95712181D01*
X128800723Y-95650858D01*
X128805707Y-95581166D01*
X128847579Y-95525233D01*
X128913043Y-95500816D01*
X128921889Y-95500500D01*
X146120016Y-95500500D01*
X146187055Y-95520185D01*
G37*
%TD.AperFunction*%
%TA.AperFunction,Conductor*%
G36*
X100645150Y-87020185D02*
G01*
X100690905Y-87072989D01*
X100700849Y-87142147D01*
X100671824Y-87205703D01*
X100665792Y-87212181D01*
X100605485Y-87272487D01*
X100605484Y-87272488D01*
X100466657Y-87463565D01*
X100359433Y-87674003D01*
X100286446Y-87898631D01*
X100249500Y-88131902D01*
X100249500Y-88368097D01*
X100286446Y-88601368D01*
X100359433Y-88825996D01*
X100466657Y-89036434D01*
X100562160Y-89167882D01*
X100585640Y-89233689D01*
X100569815Y-89301743D01*
X100549523Y-89328449D01*
X99914792Y-89963181D01*
X99853469Y-89996666D01*
X99827111Y-89999500D01*
X90131903Y-89999500D01*
X89898631Y-90036446D01*
X89674003Y-90109433D01*
X89463566Y-90216657D01*
X89417820Y-90249894D01*
X89272490Y-90355483D01*
X89272488Y-90355485D01*
X89272487Y-90355485D01*
X89105485Y-90522487D01*
X89105485Y-90522488D01*
X89105483Y-90522490D01*
X89075266Y-90564080D01*
X88966657Y-90713566D01*
X88859433Y-90924003D01*
X88786446Y-91148631D01*
X88749500Y-91381902D01*
X88749500Y-91618097D01*
X88786446Y-91851368D01*
X88859433Y-92075996D01*
X88936635Y-92227512D01*
X88966657Y-92286433D01*
X89105483Y-92477510D01*
X89272490Y-92644517D01*
X89384762Y-92726088D01*
X89422020Y-92753157D01*
X89464686Y-92808487D01*
X89470665Y-92878100D01*
X89438059Y-92939895D01*
X89436817Y-92941156D01*
X89355482Y-93022491D01*
X89216657Y-93213566D01*
X89109433Y-93424003D01*
X89036446Y-93648631D01*
X88999499Y-93881904D01*
X88999118Y-93886758D01*
X88996796Y-93886575D01*
X88979815Y-93944407D01*
X88948386Y-93977686D01*
X88772488Y-94105484D01*
X88772486Y-94105486D01*
X88353513Y-94524458D01*
X88292190Y-94557943D01*
X88222498Y-94552959D01*
X88166565Y-94511087D01*
X88146755Y-94471371D01*
X88108008Y-94338001D01*
X88025698Y-94198822D01*
X88025691Y-94198813D01*
X87911360Y-94084482D01*
X87911351Y-94084475D01*
X87772172Y-94002165D01*
X87772167Y-94002163D01*
X87616895Y-93957052D01*
X87616889Y-93957051D01*
X87595977Y-93955406D01*
X87595977Y-94289697D01*
X87576292Y-94356736D01*
X87523488Y-94402491D01*
X87471977Y-94413697D01*
X87374500Y-94413697D01*
X87307461Y-94394012D01*
X87261706Y-94341208D01*
X87250500Y-94289697D01*
X87250500Y-90290184D01*
X87270185Y-90223145D01*
X87274184Y-90217296D01*
X87274648Y-90216657D01*
X87283343Y-90204690D01*
X87390568Y-89994248D01*
X87463552Y-89769625D01*
X87490554Y-89599142D01*
X87500499Y-89536353D01*
X87500499Y-89418641D01*
X87520184Y-89351602D01*
X87551615Y-89318322D01*
X87559254Y-89312773D01*
X88335208Y-88536819D01*
X88396531Y-88503334D01*
X88422889Y-88500500D01*
X89618097Y-88500500D01*
X89851368Y-88463553D01*
X90075992Y-88390568D01*
X90286434Y-88283343D01*
X90477510Y-88144517D01*
X91585208Y-87036819D01*
X91646531Y-87003334D01*
X91672889Y-87000500D01*
X100578111Y-87000500D01*
X100645150Y-87020185D01*
G37*
%TD.AperFunction*%
%TA.AperFunction,Conductor*%
G36*
X143295106Y-87436465D02*
G01*
X143321814Y-87456757D01*
X143759574Y-87894517D01*
X143950650Y-88033343D01*
X144161092Y-88140568D01*
X144385715Y-88213553D01*
X144473193Y-88227408D01*
X144618987Y-88250500D01*
X144618992Y-88250500D01*
X144855176Y-88250500D01*
X147471977Y-88250500D01*
X147539016Y-88270185D01*
X147584771Y-88322989D01*
X147595977Y-88374500D01*
X147595977Y-88794197D01*
X148262310Y-88794197D01*
X148329349Y-88813882D01*
X148349991Y-88830516D01*
X148509658Y-88990183D01*
X148543143Y-89051506D01*
X148545977Y-89077864D01*
X148545977Y-89170197D01*
X148526292Y-89237236D01*
X148473488Y-89282991D01*
X148421977Y-89294197D01*
X147595977Y-89294197D01*
X147595977Y-89625500D01*
X147576292Y-89692539D01*
X147523488Y-89738294D01*
X147471977Y-89749500D01*
X136672889Y-89749500D01*
X136605850Y-89729815D01*
X136585208Y-89713181D01*
X134839554Y-87967527D01*
X134806069Y-87906204D01*
X134811053Y-87836512D01*
X134852925Y-87780579D01*
X134918389Y-87756162D01*
X134927235Y-87755846D01*
X142362751Y-87755846D01*
X142596022Y-87718899D01*
X142820646Y-87645914D01*
X143031088Y-87538689D01*
X143161251Y-87444119D01*
X143227052Y-87420640D01*
X143295106Y-87436465D01*
G37*
%TD.AperFunction*%
%TA.AperFunction,Conductor*%
G36*
X157587556Y-83088650D02*
G01*
X157627813Y-83145757D01*
X157632914Y-83166357D01*
X157658726Y-83329326D01*
X157731689Y-83553881D01*
X157838879Y-83764253D01*
X157899130Y-83847183D01*
X157899132Y-83847184D01*
X158598004Y-83148312D01*
X158609274Y-83190371D01*
X158681682Y-83315787D01*
X158784084Y-83418189D01*
X158909500Y-83490597D01*
X158951556Y-83501866D01*
X158252685Y-84200737D01*
X158335620Y-84260993D01*
X158545989Y-84368181D01*
X158770544Y-84441144D01*
X158770543Y-84441144D01*
X159003740Y-84478079D01*
X159239844Y-84478079D01*
X159473039Y-84441144D01*
X159697594Y-84368181D01*
X159881092Y-84274685D01*
X159949761Y-84261789D01*
X160014502Y-84288065D01*
X160025068Y-84297489D01*
X160212931Y-84485352D01*
X160212935Y-84485355D01*
X160212941Y-84485361D01*
X160420989Y-84645003D01*
X160420995Y-84645006D01*
X160421964Y-84645750D01*
X160463166Y-84702178D01*
X160470477Y-84744126D01*
X160470477Y-86684697D01*
X160450792Y-86751736D01*
X160397988Y-86797491D01*
X160346477Y-86808697D01*
X158560717Y-86808697D01*
X158493678Y-86789012D01*
X158450232Y-86740992D01*
X158421548Y-86684697D01*
X158362287Y-86568390D01*
X158362285Y-86568387D01*
X158362284Y-86568385D01*
X158241971Y-86402786D01*
X158097213Y-86258028D01*
X157931613Y-86137715D01*
X157931612Y-86137714D01*
X157931610Y-86137713D01*
X157874653Y-86108691D01*
X157749223Y-86044781D01*
X157554534Y-85981522D01*
X157379995Y-85953878D01*
X157352352Y-85949500D01*
X157147648Y-85949500D01*
X157088022Y-85958944D01*
X156945464Y-85981523D01*
X156945461Y-85981523D01*
X156759668Y-86041892D01*
X156689827Y-86043887D01*
X156633669Y-86011642D01*
X155977511Y-85355484D01*
X155946918Y-85333257D01*
X155786434Y-85216657D01*
X155575996Y-85109433D01*
X155351368Y-85036446D01*
X155113280Y-84998737D01*
X155113616Y-84996610D01*
X155056707Y-84974863D01*
X155015286Y-84918596D01*
X155010860Y-84848866D01*
X155044836Y-84787814D01*
X155055818Y-84778210D01*
X155061360Y-84773911D01*
X155175691Y-84659580D01*
X155175698Y-84659571D01*
X155258008Y-84520392D01*
X155258010Y-84520387D01*
X155303121Y-84365115D01*
X155303122Y-84365109D01*
X155304767Y-84344197D01*
X154970477Y-84344197D01*
X154903438Y-84324512D01*
X154857683Y-84271708D01*
X154846477Y-84220197D01*
X154846476Y-83968197D01*
X154866160Y-83901158D01*
X154918964Y-83855403D01*
X154970476Y-83844197D01*
X155304767Y-83844197D01*
X155303122Y-83823286D01*
X155258008Y-83668001D01*
X155175698Y-83528822D01*
X155175691Y-83528813D01*
X155109059Y-83462181D01*
X155075574Y-83400858D01*
X155080558Y-83331166D01*
X155122430Y-83275233D01*
X155187894Y-83250816D01*
X155196740Y-83250500D01*
X156868097Y-83250500D01*
X157101368Y-83213553D01*
X157148653Y-83198189D01*
X157325992Y-83140568D01*
X157454147Y-83075269D01*
X157522815Y-83062374D01*
X157587556Y-83088650D01*
G37*
%TD.AperFunction*%
%TA.AperFunction,Conductor*%
G36*
X134644150Y-75520185D02*
G01*
X134664791Y-75536818D01*
X136522490Y-77394518D01*
X136668361Y-77500499D01*
X136713567Y-77533343D01*
X136769166Y-77561672D01*
X136924003Y-77640566D01*
X136924005Y-77640566D01*
X136924008Y-77640568D01*
X137011451Y-77668980D01*
X137148631Y-77713553D01*
X137381903Y-77750500D01*
X137381908Y-77750500D01*
X137381909Y-77750500D01*
X137618092Y-77750500D01*
X140721477Y-77750500D01*
X140788516Y-77770185D01*
X140834271Y-77822989D01*
X140845477Y-77874500D01*
X140845477Y-78947316D01*
X140839408Y-78985634D01*
X140786447Y-79148627D01*
X140786447Y-79148630D01*
X140749500Y-79381902D01*
X140749500Y-79618097D01*
X140786446Y-79851368D01*
X140859433Y-80075996D01*
X140936494Y-80227236D01*
X140966657Y-80286434D01*
X141105483Y-80477510D01*
X141272490Y-80644517D01*
X141463566Y-80783343D01*
X141562992Y-80834003D01*
X141674003Y-80890566D01*
X141674005Y-80890566D01*
X141674008Y-80890568D01*
X141740049Y-80912026D01*
X141898631Y-80963553D01*
X142131903Y-81000500D01*
X142372964Y-81000500D01*
X142372964Y-81002198D01*
X142434131Y-81015037D01*
X142483895Y-81064080D01*
X142499500Y-81124300D01*
X142499500Y-83125500D01*
X142479815Y-83192539D01*
X142427011Y-83238294D01*
X142375500Y-83249500D01*
X137131903Y-83249500D01*
X136898631Y-83286446D01*
X136674003Y-83359433D01*
X136463566Y-83466657D01*
X136382377Y-83525645D01*
X136272490Y-83605483D01*
X136272488Y-83605485D01*
X136272487Y-83605485D01*
X136105485Y-83772487D01*
X136105485Y-83772488D01*
X136105483Y-83772490D01*
X136046403Y-83853807D01*
X135966657Y-83963566D01*
X135859433Y-84174003D01*
X135786446Y-84398631D01*
X135749499Y-84631904D01*
X135749118Y-84636758D01*
X135747794Y-84636653D01*
X135729815Y-84697885D01*
X135677011Y-84743640D01*
X135625500Y-84754846D01*
X120093674Y-84754846D01*
X120026635Y-84735161D01*
X119980880Y-84682357D01*
X119972204Y-84655764D01*
X119964494Y-84618174D01*
X119583343Y-83195697D01*
X119581570Y-83190371D01*
X119578447Y-83180986D01*
X119568437Y-83150911D01*
X119472350Y-82964528D01*
X119472348Y-82964526D01*
X119472347Y-82964523D01*
X119342729Y-82799701D01*
X119342726Y-82799698D01*
X119311032Y-82772235D01*
X119184252Y-82662380D01*
X119184246Y-82662376D01*
X119184244Y-82662375D01*
X119002656Y-82557535D01*
X118804495Y-82488949D01*
X118596939Y-82459107D01*
X118596926Y-82459106D01*
X118387481Y-82469085D01*
X118342679Y-82478274D01*
X118341241Y-82478569D01*
X117751838Y-82636499D01*
X117739791Y-82639727D01*
X117695017Y-82654630D01*
X117508634Y-82750716D01*
X117343806Y-82880337D01*
X117343804Y-82880339D01*
X117343803Y-82880340D01*
X117206485Y-83038816D01*
X117206483Y-83038819D01*
X117205908Y-83039483D01*
X117147130Y-83077258D01*
X117077260Y-83077258D01*
X117071637Y-83075461D01*
X116872644Y-83006587D01*
X116665088Y-82976745D01*
X116665075Y-82976744D01*
X116455630Y-82986723D01*
X116410828Y-82995912D01*
X116409390Y-82996207D01*
X115832019Y-83150913D01*
X115807940Y-83157365D01*
X115763166Y-83172268D01*
X115576783Y-83268354D01*
X115411955Y-83397975D01*
X115411953Y-83397977D01*
X115411952Y-83397978D01*
X115274634Y-83556454D01*
X115274629Y-83556460D01*
X115169790Y-83738047D01*
X115169784Y-83738060D01*
X115101203Y-83936210D01*
X115076412Y-84108642D01*
X115071361Y-84143770D01*
X115073338Y-84185270D01*
X115081339Y-84353224D01*
X115090822Y-84399460D01*
X115144222Y-84598753D01*
X115142559Y-84668603D01*
X115103396Y-84726465D01*
X115039168Y-84753969D01*
X115024447Y-84754846D01*
X113937057Y-84754846D01*
X113870018Y-84735161D01*
X113849376Y-84718527D01*
X113361333Y-84230484D01*
X113347174Y-84220197D01*
X113204360Y-84116435D01*
X113161696Y-84061105D01*
X113155717Y-83991492D01*
X113188323Y-83929697D01*
X113245154Y-83896343D01*
X113657346Y-83785897D01*
X113764830Y-83741376D01*
X113764831Y-83741376D01*
X113888083Y-83646801D01*
X113982653Y-83523554D01*
X114042102Y-83380031D01*
X114042103Y-83380029D01*
X114062380Y-83226011D01*
X114062380Y-83226008D01*
X114047369Y-83111988D01*
X112840131Y-83435467D01*
X111632891Y-83758946D01*
X111610011Y-83805344D01*
X111562706Y-83856763D01*
X111498799Y-83874500D01*
X111369743Y-83874500D01*
X111302704Y-83854815D01*
X111256949Y-83802011D01*
X111246839Y-83746926D01*
X111245977Y-83746926D01*
X111245977Y-83594197D01*
X110119977Y-83594197D01*
X110052938Y-83574512D01*
X110007183Y-83521708D01*
X109995977Y-83470197D01*
X109995977Y-83344197D01*
X109869977Y-83344197D01*
X109802938Y-83324512D01*
X109757183Y-83271708D01*
X109745977Y-83220197D01*
X109745977Y-82467585D01*
X109765662Y-82400546D01*
X109782293Y-82379906D01*
X110389724Y-81772475D01*
X110451045Y-81738992D01*
X110520736Y-81743976D01*
X110576670Y-81785847D01*
X110597176Y-81828061D01*
X110642838Y-81998470D01*
X110642841Y-81998479D01*
X110642844Y-81998490D01*
X110657636Y-82042933D01*
X110657637Y-82042936D01*
X110657639Y-82042940D01*
X110733208Y-82189524D01*
X110745505Y-82213377D01*
X110758727Y-82281985D01*
X110732759Y-82346849D01*
X110675845Y-82387377D01*
X110635289Y-82394197D01*
X110245977Y-82394197D01*
X110245977Y-83094197D01*
X111245975Y-83094197D01*
X111245977Y-83094195D01*
X111245977Y-82945527D01*
X111230228Y-82825909D01*
X111240993Y-82756874D01*
X111287373Y-82704618D01*
X111354642Y-82685732D01*
X111393719Y-82692541D01*
X111416365Y-82700379D01*
X111465794Y-82707485D01*
X111529347Y-82736510D01*
X111567122Y-82795288D01*
X111567122Y-82865157D01*
X111529348Y-82923936D01*
X111510133Y-82932710D01*
X111511667Y-82939113D01*
X111510853Y-83000090D01*
X111508748Y-83007942D01*
X111492916Y-83128204D01*
X111488472Y-83161959D01*
X111488472Y-83161964D01*
X111503481Y-83275981D01*
X111503482Y-83275982D01*
X112710721Y-82952505D01*
X113403560Y-82766859D01*
X113435654Y-82762634D01*
X114105963Y-82762634D01*
X114339234Y-82725687D01*
X114376914Y-82713444D01*
X114563858Y-82652702D01*
X114774300Y-82545477D01*
X114965376Y-82406651D01*
X115394517Y-81977510D01*
X115533343Y-81786434D01*
X115640568Y-81575993D01*
X115646080Y-81559029D01*
X119843092Y-81559029D01*
X119847404Y-81575120D01*
X119892493Y-81683977D01*
X119988267Y-81808791D01*
X120113085Y-81904568D01*
X120258431Y-81964771D01*
X120414410Y-81985308D01*
X120414412Y-81985308D01*
X120531221Y-81969929D01*
X120957839Y-81855616D01*
X120809018Y-81300209D01*
X119843092Y-81559029D01*
X115646080Y-81559029D01*
X115646095Y-81558984D01*
X115664222Y-81503194D01*
X115664222Y-81503193D01*
X115683476Y-81443934D01*
X115713552Y-81351369D01*
X115737388Y-81200872D01*
X115742151Y-81170800D01*
X121291981Y-81170800D01*
X121440803Y-81726207D01*
X121867419Y-81611896D01*
X121976267Y-81566810D01*
X121976268Y-81566810D01*
X122101086Y-81471033D01*
X122196858Y-81346222D01*
X122196860Y-81346218D01*
X122257064Y-81200872D01*
X122257065Y-81200870D01*
X122277600Y-81044894D01*
X122277600Y-81044891D01*
X122262221Y-80928084D01*
X122257906Y-80911981D01*
X121291981Y-81170800D01*
X115742151Y-81170800D01*
X115750499Y-81118097D01*
X115750499Y-80881903D01*
X115719007Y-80683075D01*
X115713552Y-80648632D01*
X115650350Y-80454114D01*
X115640569Y-80424010D01*
X115640568Y-80424007D01*
X115579455Y-80304067D01*
X115533343Y-80213567D01*
X115394517Y-80022490D01*
X115232534Y-79860507D01*
X115199049Y-79799184D01*
X115204033Y-79729492D01*
X115245905Y-79673559D01*
X115281895Y-79654896D01*
X115325992Y-79640568D01*
X115536434Y-79533343D01*
X115727510Y-79394517D01*
X116585208Y-78536819D01*
X116646531Y-78503334D01*
X116672889Y-78500500D01*
X118619763Y-78500500D01*
X118686802Y-78520185D01*
X118732557Y-78572989D01*
X118742501Y-78642147D01*
X118736943Y-78665057D01*
X118707107Y-78751260D01*
X118677265Y-78958816D01*
X118677264Y-78958829D01*
X118687243Y-79168274D01*
X118691350Y-79188296D01*
X118696727Y-79214515D01*
X118854275Y-79802493D01*
X118857885Y-79815964D01*
X118869669Y-79851368D01*
X118872789Y-79860740D01*
X118968875Y-80047123D01*
X119098498Y-80211953D01*
X119256974Y-80349271D01*
X119256978Y-80349273D01*
X119256980Y-80349275D01*
X119347773Y-80401694D01*
X119438573Y-80454118D01*
X119636732Y-80522702D01*
X119655544Y-80525406D01*
X119719099Y-80554429D01*
X119756875Y-80613206D01*
X119756877Y-80683075D01*
X119752460Y-80695596D01*
X119714528Y-80787172D01*
X119714526Y-80787177D01*
X119693992Y-80943153D01*
X119693992Y-80943155D01*
X119709370Y-81059966D01*
X119713684Y-81076065D01*
X119872519Y-81033506D01*
X120921091Y-80752543D01*
X122128497Y-80429017D01*
X122124185Y-80412922D01*
X122079096Y-80304067D01*
X121999232Y-80199986D01*
X121974038Y-80134817D01*
X121988076Y-80066372D01*
X122036890Y-80016383D01*
X122097608Y-80000500D01*
X123368097Y-80000500D01*
X123601368Y-79963553D01*
X123825992Y-79890568D01*
X124036433Y-79783343D01*
X124227510Y-79644517D01*
X124394517Y-79477510D01*
X124533343Y-79286433D01*
X124640568Y-79075992D01*
X124713553Y-78851368D01*
X124729408Y-78751262D01*
X124746576Y-78642867D01*
X138095977Y-78642867D01*
X138111162Y-78758216D01*
X138111164Y-78758221D01*
X138170610Y-78901738D01*
X138170610Y-78901739D01*
X138265184Y-79024989D01*
X138388435Y-79119563D01*
X138531952Y-79179009D01*
X138531957Y-79179011D01*
X138647306Y-79194197D01*
X138795977Y-79194197D01*
X139295977Y-79194197D01*
X139444648Y-79194197D01*
X139559996Y-79179011D01*
X139560001Y-79179009D01*
X139703518Y-79119563D01*
X139703519Y-79119563D01*
X139826769Y-79024989D01*
X139921343Y-78901739D01*
X139921343Y-78901738D01*
X139980789Y-78758221D01*
X139980791Y-78758216D01*
X139995977Y-78642867D01*
X139995977Y-78194197D01*
X139295977Y-78194197D01*
X139295977Y-79194197D01*
X138795977Y-79194197D01*
X138795977Y-78194197D01*
X138095977Y-78194197D01*
X138095977Y-78642867D01*
X124746576Y-78642867D01*
X124750500Y-78618095D01*
X124750761Y-78614780D01*
X124751213Y-78613592D01*
X124751263Y-78613280D01*
X124751328Y-78613290D01*
X124775639Y-78549490D01*
X124831867Y-78508015D01*
X124874379Y-78500500D01*
X126368097Y-78500500D01*
X126601368Y-78463553D01*
X126825992Y-78390568D01*
X127036434Y-78283343D01*
X127227510Y-78144517D01*
X129835209Y-75536819D01*
X129896532Y-75503334D01*
X129922890Y-75500500D01*
X134577111Y-75500500D01*
X134644150Y-75520185D01*
G37*
%TD.AperFunction*%
%TA.AperFunction,Conductor*%
G36*
X146769052Y-76561844D02*
G01*
X146815124Y-76614372D01*
X146825483Y-76683470D01*
X146816076Y-76716646D01*
X146793196Y-76768464D01*
X146793192Y-76768475D01*
X146742661Y-76983319D01*
X146742659Y-76983334D01*
X146739192Y-77033284D01*
X146714912Y-77098799D01*
X146659067Y-77140788D01*
X146615490Y-77148697D01*
X145942327Y-77148697D01*
X145893514Y-77138685D01*
X145782590Y-77091184D01*
X145782578Y-77091181D01*
X145598142Y-77051059D01*
X145536819Y-77017574D01*
X145503334Y-76956251D01*
X145500500Y-76929893D01*
X145500500Y-76672825D01*
X145504016Y-76660850D01*
X145503308Y-76656126D01*
X145509353Y-76642675D01*
X145520185Y-76605786D01*
X145529596Y-76597630D01*
X145531949Y-76592397D01*
X145546791Y-76582731D01*
X145572989Y-76560031D01*
X145586037Y-76557173D01*
X145590498Y-76554269D01*
X145618440Y-76550078D01*
X145624167Y-76548825D01*
X145632828Y-76548801D01*
X145633533Y-76548986D01*
X145689333Y-76548650D01*
X145689356Y-76548656D01*
X145693057Y-76548696D01*
X145748469Y-76550229D01*
X145748473Y-76550228D01*
X145756558Y-76549391D01*
X145756610Y-76549896D01*
X145770987Y-76548159D01*
X146701897Y-76542563D01*
X146769052Y-76561844D01*
G37*
%TD.AperFunction*%
%TD*%
M02*
