%TF.GenerationSoftware,KiCad,Pcbnew,10.0.0*%
%TF.CreationDate,2026-04-04T19:21:55+02:00*%
%TF.ProjectId,Sthymuli-cardinalboard.kicad_pro,53746879-6d75-46c6-992d-63617264696e,rev?*%
%TF.SameCoordinates,Original*%
%TF.FileFunction,Copper,L2,Bot*%
%TF.FilePolarity,Positive*%
%FSLAX46Y46*%
G04 Gerber Fmt 4.6, Leading zero omitted, Abs format (unit mm)*
G04 Created by KiCad (PCBNEW 10.0.0) date 2026-04-04 19:21:55*
%MOMM*%
%LPD*%
G01*
G04 APERTURE LIST*
G04 Aperture macros list*
%AMRoundRect*
0 Rectangle with rounded corners*
0 $1 Rounding radius*
0 $2 $3 $4 $5 $6 $7 $8 $9 X,Y pos of 4 corners*
0 Add a 4 corners polygon primitive as box body*
4,1,4,$2,$3,$4,$5,$6,$7,$8,$9,$2,$3,0*
0 Add four circle primitives for the rounded corners*
1,1,$1+$1,$2,$3*
1,1,$1+$1,$4,$5*
1,1,$1+$1,$6,$7*
1,1,$1+$1,$8,$9*
0 Add four rect primitives between the rounded corners*
20,1,$1+$1,$2,$3,$4,$5,0*
20,1,$1+$1,$4,$5,$6,$7,0*
20,1,$1+$1,$6,$7,$8,$9,0*
20,1,$1+$1,$8,$9,$2,$3,0*%
G04 Aperture macros list end*
%TA.AperFunction,ComponentPad*%
%ADD10C,2.000000*%
%TD*%
%TA.AperFunction,SMDPad,CuDef*%
%ADD11RoundRect,0.190500X0.444500X-1.079500X0.444500X1.079500X-0.444500X1.079500X-0.444500X-1.079500X0*%
%TD*%
%TA.AperFunction,ComponentPad*%
%ADD12C,3.200000*%
%TD*%
%TA.AperFunction,SMDPad,CuDef*%
%ADD13R,7.000000X7.000000*%
%TD*%
%TA.AperFunction,SMDPad,CuDef*%
%ADD14R,3.000000X1.000000*%
%TD*%
%TA.AperFunction,ViaPad*%
%ADD15C,0.600000*%
%TD*%
%TA.AperFunction,Conductor*%
%ADD16C,1.000000*%
%TD*%
%TA.AperFunction,Conductor*%
%ADD17C,0.250000*%
%TD*%
G04 APERTURE END LIST*
D10*
%TO.P,U2,1*%
%TO.N,Net-(Q2-D)*%
X161534792Y-78914079D03*
%TO.P,U2,2*%
%TO.N,Net-(R4-Pad1)*%
X158994792Y-78914079D03*
%TO.P,U2,3*%
%TO.N,GND*%
X159121792Y-82978079D03*
%TO.P,U2,4*%
%TO.N,IR_REC_VERT*%
X161534792Y-82978079D03*
%TD*%
D11*
%TO.P,U1,2*%
%TO.N,Net-(R3-Pad1)*%
X152571792Y-78228079D03*
%TO.P,U1,3*%
%TO.N,GND*%
X148371792Y-78228079D03*
%TD*%
D12*
%TO.P,BT1,*%
%TO.N,*%
X117095977Y-104294197D03*
D13*
%TO.P,BT1,1,+_1*%
%TO.N,Net-(BT1-+)*%
X111095977Y-96294197D03*
%TO.P,BT1,2,-_2*%
%TO.N,BAT-*%
X195095977Y-96294197D03*
%TD*%
D14*
%TO.P,J1,1,Pin_1_1*%
%TO.N,+5V*%
X93805977Y-86504197D03*
%TO.P,J1,2,Pin_2_2*%
%TO.N,+3V3*%
X98845977Y-86504197D03*
%TO.P,J1,3,Pin_3_3*%
%TO.N,GND*%
X93805977Y-89044197D03*
%TO.P,J1,4,Pin_4_4*%
%TO.N,btn_A*%
X98845977Y-89044197D03*
%TO.P,J1,5,Pin_5_5*%
%TO.N,btn_B*%
X93805977Y-91584197D03*
%TO.P,J1,6,Pin_6_6*%
%TO.N,BAT+*%
X98845977Y-91584197D03*
%TO.P,J1,7,Pin_7_7*%
%TO.N,BAT-*%
X93805977Y-94124197D03*
%TO.P,J1,8,Pin_8_8*%
%TO.N,DIN*%
X98845977Y-94124197D03*
%TO.P,J1,9,Pin_9_9*%
%TO.N,DOUT*%
X93805977Y-96664197D03*
%TO.P,J1,10,Pin_10_10*%
%TO.N,IR_REC_HORI*%
X98845977Y-96664197D03*
%TO.P,J1,11,Pin_11_11*%
%TO.N,IR_TRA_HORI*%
X93805977Y-99204197D03*
%TO.P,J1,12,Pin_12_12*%
%TO.N,IR_REC_VERT*%
X98845977Y-99204197D03*
%TO.P,J1,13,Pin_13_13*%
%TO.N,IR_TRA_VERT*%
X93805977Y-101744197D03*
%TO.P,J1,14,Pin_14_14*%
%TO.N,SDA*%
X98845977Y-101744197D03*
%TO.P,J1,15,Pin_15_15*%
%TO.N,SCL*%
X93805977Y-104284197D03*
%TO.P,J1,16,Pin_16_16*%
%TO.N,ACC_INT*%
X98845977Y-104284197D03*
%TD*%
D15*
%TO.N,GND*%
X87500000Y-105750000D03*
X146500000Y-77250000D03*
X148500000Y-90500000D03*
X101355250Y-82245562D03*
X156250000Y-84094197D03*
X139000000Y-88750000D03*
X88500000Y-89250000D03*
X148000000Y-95500000D03*
X121000000Y-83000000D03*
X142750000Y-82250000D03*
X139000000Y-80500000D03*
%TO.N,+5V*%
X191500000Y-86750000D03*
X94750000Y-83750000D03*
X132750000Y-91250000D03*
X129500000Y-89250000D03*
X216250000Y-90000000D03*
X194250000Y-81000000D03*
X86000000Y-89418256D03*
%TO.N,Net-(D6-DOUT)*%
X189000000Y-104750000D03*
X190820871Y-81838638D03*
%TO.N,IR_REC_VERT*%
X163000000Y-102000000D03*
X101750000Y-99250000D03*
%TO.N,DOUT*%
X90500000Y-96500000D03*
%TO.N,Net-(R3-Pad1)*%
X156561096Y-80329588D03*
%TO.N,IR_REC_HORI*%
X145335466Y-83954270D03*
X144116116Y-99633884D03*
X103250000Y-97900000D03*
%TO.N,+3V3*%
X150870912Y-95148493D03*
X157250000Y-87250000D03*
X150832435Y-99200000D03*
X147193756Y-96565307D03*
X157750000Y-74750000D03*
X146750000Y-92656564D03*
X157500000Y-78250000D03*
X113250000Y-91750000D03*
X147540151Y-99200000D03*
X146086970Y-80397955D03*
%TO.N,Net-(D3-DOUT)*%
X142250000Y-86250000D03*
X142250000Y-79500000D03*
%TO.N,Net-(D1-DOUT)*%
X84000000Y-89000000D03*
X84000000Y-96250000D03*
%TO.N,BAT+*%
X108000000Y-91500000D03*
%TO.N,BAT-*%
X200750000Y-96750000D03*
X90500000Y-94000000D03*
%TO.N,Net-(BT1-+)*%
X111000000Y-92500000D03*
%TO.N,Net-(D4-DOUT)*%
X139000000Y-75000000D03*
X137250000Y-84750000D03*
%TO.N,IR_TRA_HORI*%
X164250000Y-102500000D03*
X165750000Y-79000000D03*
X90750000Y-99250000D03*
%TO.N,DIN*%
X104750000Y-95250000D03*
%TO.N,IR_TRA_VERT*%
X166000000Y-84500000D03*
X90750000Y-101750000D03*
X166000000Y-104000000D03*
%TO.N,ACC_INT*%
X105750000Y-104500000D03*
X149214941Y-104900000D03*
X149384592Y-95245438D03*
%TO.N,SCL*%
X91000000Y-104250000D03*
X155058881Y-106214631D03*
X155000000Y-97250000D03*
%TO.N,SDA*%
X155630824Y-105640672D03*
X102725864Y-102800000D03*
X154250000Y-96500000D03*
%TO.N,btn_B*%
X123250000Y-78500000D03*
X114250000Y-81000000D03*
X127619617Y-89200000D03*
X115550281Y-88950000D03*
X90250000Y-91500000D03*
%TO.N,btn_A*%
X177250000Y-78500000D03*
X101750000Y-88250000D03*
X174500000Y-91250000D03*
%TD*%
%TO.N,GND*%
D16*
X93805977Y-89044197D02*
X95205803Y-89044197D01*
X139000000Y-88750000D02*
X132500000Y-88750000D01*
X103451494Y-82245562D02*
X101355250Y-82245562D01*
X87500000Y-105750000D02*
X87500000Y-90250000D01*
X93805977Y-89044197D02*
X88705803Y-89044197D01*
D17*
X146500000Y-77250000D02*
X147393713Y-77250000D01*
X147393713Y-77250000D02*
X148371792Y-78228079D01*
D16*
X96250000Y-85000000D02*
X98600812Y-85000000D01*
X142750000Y-82250000D02*
X146771921Y-78228079D01*
X148500000Y-90500000D02*
X154905803Y-84094197D01*
X148500000Y-90500000D02*
X148500000Y-94645105D01*
X123500000Y-92000000D02*
X123250000Y-92250000D01*
X123250000Y-92250000D02*
X121000000Y-90000000D01*
X148500000Y-94645105D02*
X148000000Y-95145105D01*
X88705803Y-89044197D02*
X88500000Y-89250000D01*
X129250000Y-92000000D02*
X123500000Y-92000000D01*
X95205803Y-89044197D02*
X96250000Y-88000000D01*
X154905803Y-84094197D02*
X156250000Y-84094197D01*
X132500000Y-88750000D02*
X129250000Y-92000000D01*
X121000000Y-90000000D02*
X121000000Y-83000000D01*
X139000000Y-80500000D02*
X139000000Y-88750000D01*
X116750000Y-92000000D02*
X106500000Y-81750000D01*
X148000000Y-95145105D02*
X148000000Y-95500000D01*
X146771921Y-78228079D02*
X148371792Y-78228079D01*
X106500000Y-81750000D02*
X103947056Y-81750000D01*
X103947056Y-81750000D02*
X103451494Y-82245562D01*
X123500000Y-92000000D02*
X116750000Y-92000000D01*
X87500000Y-90250000D02*
X88500000Y-89250000D01*
X96250000Y-88000000D02*
X96250000Y-85000000D01*
X98600812Y-85000000D02*
X101355250Y-82245562D01*
%TO.N,+5V*%
X191500000Y-86750000D02*
X194750000Y-90000000D01*
X194750000Y-90000000D02*
X216250000Y-90000000D01*
X193000000Y-79500000D02*
X190250000Y-79500000D01*
X93805977Y-86504197D02*
X88914059Y-86504197D01*
X112500000Y-80250000D02*
X116504188Y-76245812D01*
X160500000Y-97000000D02*
X160500000Y-104500000D01*
X160500000Y-104500000D02*
X161500000Y-105500000D01*
X185250000Y-81250000D02*
X187000000Y-81250000D01*
X147450000Y-105950000D02*
X151300000Y-105950000D01*
X100593287Y-81156713D02*
X101001344Y-81000000D01*
X151300000Y-105950000D02*
X152750000Y-104500000D01*
X98000000Y-83750000D02*
X100593287Y-81156713D01*
X194250000Y-81000000D02*
X193000000Y-79750000D01*
X152750000Y-104500000D02*
X152750000Y-96250000D01*
X88914059Y-86504197D02*
X86000000Y-89418256D01*
X191500000Y-86750000D02*
X191500000Y-83750000D01*
X93805977Y-86504197D02*
X93805977Y-84694023D01*
X116504188Y-76245812D02*
X123995812Y-76245812D01*
X193000000Y-79750000D02*
X193000000Y-79500000D01*
X156117184Y-92617184D02*
X160500000Y-97000000D01*
X187000000Y-81250000D02*
X189500000Y-78750000D01*
X101001344Y-81000000D02*
X103000000Y-81000000D01*
X94750000Y-83750000D02*
X98000000Y-83750000D01*
X129500000Y-81750000D02*
X129500000Y-89250000D01*
X185250000Y-87500000D02*
X185250000Y-81250000D01*
X93805977Y-84694023D02*
X94750000Y-83750000D01*
X123995812Y-76245812D02*
X129500000Y-81750000D01*
X103750000Y-80250000D02*
X112500000Y-80250000D01*
X167250000Y-105500000D02*
X185250000Y-87500000D01*
X190250000Y-79500000D02*
X189500000Y-78750000D01*
X191500000Y-83750000D02*
X194250000Y-81000000D01*
X161500000Y-105500000D02*
X167250000Y-105500000D01*
X156000000Y-92617184D02*
X156117184Y-92617184D01*
X103000000Y-81000000D02*
X103750000Y-80250000D01*
X152367184Y-96250000D02*
X156000000Y-92617184D01*
X132750000Y-91250000D02*
X147450000Y-105950000D01*
%TO.N,Net-(D6-DOUT)*%
X189000000Y-83500000D02*
X190661362Y-81838638D01*
X190661362Y-81838638D02*
X190820871Y-81838638D01*
X189000000Y-104750000D02*
X189000000Y-83500000D01*
%TO.N,IR_REC_VERT*%
X101704197Y-99204197D02*
X101750000Y-99250000D01*
X98845977Y-99204197D02*
X101704197Y-99204197D01*
X161534792Y-82978079D02*
X163000000Y-84443287D01*
X163000000Y-84443287D02*
X163000000Y-102000000D01*
%TO.N,DOUT*%
X90664197Y-96664197D02*
X90500000Y-96500000D01*
X93805977Y-96664197D02*
X90664197Y-96664197D01*
%TO.N,Net-(R3-Pad1)*%
X154673301Y-80329588D02*
X156561096Y-80329588D01*
X152571792Y-78228079D02*
X154673301Y-80329588D01*
%TO.N,IR_REC_HORI*%
X144116116Y-99633884D02*
X144116116Y-85173620D01*
X102014197Y-96664197D02*
X103250000Y-97900000D01*
X144116116Y-85173620D02*
X145335466Y-83954270D01*
X98845977Y-96664197D02*
X102014197Y-96664197D01*
%TO.N,+3V3*%
D17*
X150750000Y-95269405D02*
X150750000Y-99117565D01*
D16*
X108004197Y-86504197D02*
X113250000Y-91750000D01*
D17*
X150717833Y-93782167D02*
X150717833Y-94995414D01*
X157250000Y-87250000D02*
X150717833Y-93782167D01*
X146750000Y-92656564D02*
X146750000Y-81060985D01*
X147193756Y-96565307D02*
X147250000Y-96621551D01*
X150717833Y-94995414D02*
X150870912Y-95148493D01*
X157250000Y-87250000D02*
X157500000Y-87000000D01*
X146750000Y-81060985D02*
X146086970Y-80397955D01*
X146750000Y-96121551D02*
X146750000Y-92656564D01*
X150870912Y-95148493D02*
X150750000Y-95269405D01*
X147250000Y-96621551D02*
X147250000Y-98909849D01*
X157750000Y-74750000D02*
X157500000Y-75000000D01*
X147193756Y-96565307D02*
X146750000Y-96121551D01*
X157500000Y-87000000D02*
X157500000Y-78250000D01*
X157500000Y-75000000D02*
X157500000Y-78250000D01*
X150750000Y-99117565D02*
X150832435Y-99200000D01*
X147250000Y-98909849D02*
X147540151Y-99200000D01*
D16*
X98845977Y-86504197D02*
X108004197Y-86504197D01*
%TO.N,Net-(D3-DOUT)*%
X142250000Y-86250000D02*
X142250000Y-83447056D01*
X141550000Y-82747056D02*
X141550000Y-80200000D01*
X141550000Y-80200000D02*
X142250000Y-79500000D01*
X142250000Y-83447056D02*
X141550000Y-82747056D01*
%TO.N,Net-(D1-DOUT)*%
X84000000Y-96250000D02*
X84000000Y-89000000D01*
%TO.N,BAT+*%
X107915803Y-91584197D02*
X108000000Y-91500000D01*
X98845977Y-91584197D02*
X107915803Y-91584197D01*
%TO.N,BAT-*%
X93805977Y-94124197D02*
X90624197Y-94124197D01*
X200750000Y-96750000D02*
X195551780Y-96750000D01*
X90624197Y-94124197D02*
X90500000Y-94000000D01*
%TO.N,Net-(BT1-+)*%
X111000000Y-92500000D02*
X111000000Y-96198220D01*
%TO.N,Net-(D4-DOUT)*%
X137250000Y-76750000D02*
X137250000Y-84750000D01*
X139000000Y-75000000D02*
X137250000Y-76750000D01*
%TO.N,IR_TRA_HORI*%
X93805977Y-99204197D02*
X90795803Y-99204197D01*
X90795803Y-99204197D02*
X90750000Y-99250000D01*
X164250000Y-80500000D02*
X164250000Y-102500000D01*
X165750000Y-79000000D02*
X164250000Y-80500000D01*
%TO.N,DIN*%
X103624197Y-94124197D02*
X104750000Y-95250000D01*
X98845977Y-94124197D02*
X103624197Y-94124197D01*
%TO.N,IR_TRA_VERT*%
X93805977Y-101744197D02*
X90755803Y-101744197D01*
X90755803Y-101744197D02*
X90750000Y-101750000D01*
X166000000Y-104000000D02*
X166000000Y-84500000D01*
%TO.N,ACC_INT*%
D17*
X105750000Y-104500000D02*
X104500000Y-104500000D01*
X149000000Y-104685059D02*
X149000000Y-95630030D01*
X104284197Y-104284197D02*
X98845977Y-104284197D01*
X149214941Y-104900000D02*
X149000000Y-104685059D01*
X149000000Y-95630030D02*
X149384592Y-95245438D01*
X104500000Y-104500000D02*
X104284197Y-104284197D01*
%TO.N,SCL*%
X156305824Y-105920267D02*
X155910419Y-106315672D01*
X91000000Y-104250000D02*
X91034197Y-104284197D01*
X91034197Y-104284197D02*
X93805977Y-104284197D01*
X155000000Y-97250000D02*
X155000000Y-104055253D01*
X155159922Y-106315672D02*
X155058881Y-106214631D01*
X155000000Y-104055253D02*
X156305824Y-105361077D01*
X156305824Y-105361077D02*
X156305824Y-105920267D01*
X155910419Y-106315672D02*
X155159922Y-106315672D01*
%TO.N,SDA*%
X154250000Y-96500000D02*
X154250000Y-104259848D01*
X154250000Y-104259848D02*
X155630824Y-105640672D01*
X101670061Y-101744197D02*
X102725864Y-102800000D01*
X98845977Y-101744197D02*
X101670061Y-101744197D01*
%TO.N,btn_B*%
D16*
X90334197Y-91584197D02*
X90250000Y-91500000D01*
X114250000Y-87649719D02*
X115550281Y-88950000D01*
X123250000Y-78500000D02*
X125750000Y-81000000D01*
X125750000Y-81000000D02*
X125750000Y-87330383D01*
X114250000Y-81000000D02*
X114250000Y-87649719D01*
X93805977Y-91584197D02*
X90334197Y-91584197D01*
X125750000Y-87330383D02*
X127619617Y-89200000D01*
%TO.N,btn_A*%
X100955803Y-89044197D02*
X101750000Y-88250000D01*
X174500000Y-81250000D02*
X177250000Y-78500000D01*
X174500000Y-91250000D02*
X174500000Y-81250000D01*
X98845977Y-89044197D02*
X100955803Y-89044197D01*
%TD*%
%TA.AperFunction,Conductor*%
%TO.N,+5V*%
G36*
X145145840Y-71761097D02*
G01*
X145193697Y-71812004D01*
X145207082Y-71868043D01*
X145207082Y-74422990D01*
X145206467Y-74435329D01*
X145162641Y-74873573D01*
X145136383Y-74938321D01*
X145126329Y-74949519D01*
X145010322Y-75063932D01*
X144973449Y-75118097D01*
X144911052Y-75209755D01*
X144850666Y-75351368D01*
X144841858Y-75372023D01*
X144805351Y-75544613D01*
X144802911Y-75720994D01*
X144834631Y-75894526D01*
X144899311Y-76058645D01*
X144997769Y-76212238D01*
X144996759Y-76212885D01*
X145020432Y-76271866D01*
X145020389Y-76296100D01*
X145000000Y-76500000D01*
X145220209Y-76500000D01*
X145287248Y-76519685D01*
X145333003Y-76572489D01*
X145342947Y-76641647D01*
X145330694Y-76680295D01*
X145294782Y-76750776D01*
X145294781Y-76750778D01*
X145294780Y-76750781D01*
X145289033Y-76768468D01*
X145231522Y-76945465D01*
X145199500Y-77147648D01*
X145199500Y-77352351D01*
X145231523Y-77554535D01*
X145232662Y-77559281D01*
X145230813Y-77559724D01*
X145232577Y-77621483D01*
X145200332Y-77677639D01*
X143860507Y-79017464D01*
X143799184Y-79050949D01*
X143729492Y-79045965D01*
X143673559Y-79004093D01*
X143654895Y-78968101D01*
X143640569Y-78924010D01*
X143640568Y-78924007D01*
X143568696Y-78782951D01*
X143533343Y-78713567D01*
X143394517Y-78522490D01*
X143227510Y-78355483D01*
X143036433Y-78216657D01*
X143030367Y-78213566D01*
X142825992Y-78109431D01*
X142825989Y-78109430D01*
X142601369Y-78036448D01*
X142368096Y-77999501D01*
X142368091Y-77999501D01*
X142131908Y-77999501D01*
X142131903Y-77999501D01*
X141898629Y-78036448D01*
X141674009Y-78109430D01*
X141674006Y-78109431D01*
X141463565Y-78216657D01*
X141272488Y-78355484D01*
X140405484Y-79222488D01*
X140266652Y-79413572D01*
X140266651Y-79413574D01*
X140266136Y-79414585D01*
X140265839Y-79414898D01*
X140264112Y-79417718D01*
X140263519Y-79417354D01*
X140218154Y-79465373D01*
X140150330Y-79482157D01*
X140084199Y-79459609D01*
X140067980Y-79445953D01*
X139977512Y-79355485D01*
X139977510Y-79355483D01*
X139786433Y-79216657D01*
X139575996Y-79109433D01*
X139351368Y-79036446D01*
X139118097Y-78999500D01*
X139118092Y-78999500D01*
X138881908Y-78999500D01*
X138877036Y-78999500D01*
X138877036Y-78997812D01*
X138815827Y-78984939D01*
X138766081Y-78935876D01*
X138750500Y-78875699D01*
X138750500Y-77422889D01*
X138770185Y-77355850D01*
X138786819Y-77335208D01*
X139441732Y-76680295D01*
X140144518Y-75977510D01*
X140283343Y-75786433D01*
X140390568Y-75575992D01*
X140463553Y-75351368D01*
X140470370Y-75308329D01*
X140500500Y-75118097D01*
X140500500Y-74881902D01*
X140463553Y-74648634D01*
X140463553Y-74648631D01*
X140390568Y-74424008D01*
X140283343Y-74213566D01*
X140144518Y-74022490D01*
X139977510Y-73855482D01*
X139786434Y-73716657D01*
X139575992Y-73609432D01*
X139351369Y-73536447D01*
X139351367Y-73536446D01*
X139351365Y-73536446D01*
X139118097Y-73499500D01*
X139118092Y-73499500D01*
X138881908Y-73499500D01*
X138881903Y-73499500D01*
X138648631Y-73536446D01*
X138424003Y-73609433D01*
X138213563Y-73716659D01*
X138022496Y-73855476D01*
X138022491Y-73855480D01*
X136105485Y-75772487D01*
X136105484Y-75772488D01*
X135966657Y-75963565D01*
X135884148Y-76125500D01*
X135859433Y-76174003D01*
X135786446Y-76398631D01*
X135749500Y-76631902D01*
X135749500Y-84868097D01*
X135786446Y-85101368D01*
X135859433Y-85325996D01*
X135944522Y-85492991D01*
X135966657Y-85536433D01*
X136105483Y-85727510D01*
X136272490Y-85894517D01*
X136463567Y-86033343D01*
X136513855Y-86058966D01*
X136674003Y-86140566D01*
X136674005Y-86140566D01*
X136674008Y-86140568D01*
X136794412Y-86179689D01*
X136898631Y-86213553D01*
X137131903Y-86250500D01*
X137372964Y-86250500D01*
X137372964Y-86252198D01*
X137434131Y-86265037D01*
X137483895Y-86314080D01*
X137499500Y-86374300D01*
X137499500Y-87125500D01*
X137479815Y-87192539D01*
X137427011Y-87238294D01*
X137375500Y-87249500D01*
X132381903Y-87249500D01*
X132148631Y-87286446D01*
X131924003Y-87359433D01*
X131713565Y-87466657D01*
X131522488Y-87605484D01*
X129208710Y-89919262D01*
X129147387Y-89952747D01*
X129077695Y-89947763D01*
X129021762Y-89905891D01*
X128997345Y-89840427D01*
X129009402Y-89780950D01*
X129008318Y-89780501D01*
X129010182Y-89775999D01*
X129010182Y-89775995D01*
X129010185Y-89775992D01*
X129083170Y-89551369D01*
X129110554Y-89378472D01*
X129120117Y-89318097D01*
X129120117Y-89081902D01*
X129083170Y-88848631D01*
X129018186Y-88648632D01*
X129010185Y-88624008D01*
X129010183Y-88624005D01*
X129010183Y-88624003D01*
X128962558Y-88530534D01*
X128902960Y-88413567D01*
X128826185Y-88307895D01*
X128764140Y-88222496D01*
X128764136Y-88222491D01*
X127286819Y-86745174D01*
X127253334Y-86683851D01*
X127250500Y-86657493D01*
X127250500Y-80881902D01*
X127213553Y-80648631D01*
X127164797Y-80498578D01*
X127140568Y-80424008D01*
X127140566Y-80424005D01*
X127140566Y-80424003D01*
X127063365Y-80272488D01*
X127033343Y-80213567D01*
X126894517Y-80022490D01*
X126727510Y-79855483D01*
X124227510Y-77355483D01*
X124036434Y-77216657D01*
X123825996Y-77109433D01*
X123601368Y-77036446D01*
X123368097Y-76999500D01*
X123368092Y-76999500D01*
X123131908Y-76999500D01*
X123131903Y-76999500D01*
X122898631Y-77036446D01*
X122674003Y-77109433D01*
X122463565Y-77216657D01*
X122272488Y-77355484D01*
X122105484Y-77522488D01*
X121966657Y-77713565D01*
X121859433Y-77924003D01*
X121786446Y-78148631D01*
X121749500Y-78381902D01*
X121749500Y-78618097D01*
X121786446Y-78851368D01*
X121859433Y-79075996D01*
X121931104Y-79216657D01*
X121966657Y-79286434D01*
X122102081Y-79472828D01*
X122105484Y-79477511D01*
X124213181Y-81585208D01*
X124246666Y-81646531D01*
X124249500Y-81672889D01*
X124249500Y-87448480D01*
X124286446Y-87681751D01*
X124359433Y-87906379D01*
X124438552Y-88061658D01*
X124466657Y-88116817D01*
X124557587Y-88241971D01*
X124605484Y-88307894D01*
X124605485Y-88307895D01*
X126585408Y-90287819D01*
X126618893Y-90349142D01*
X126613909Y-90418834D01*
X126572037Y-90474767D01*
X126506573Y-90499184D01*
X126497727Y-90499500D01*
X123672890Y-90499500D01*
X123605851Y-90479815D01*
X123585209Y-90463181D01*
X122536819Y-89414791D01*
X122503334Y-89353468D01*
X122500500Y-89327110D01*
X122500500Y-82881902D01*
X122463553Y-82648631D01*
X122412243Y-82490718D01*
X122390568Y-82424008D01*
X122390566Y-82424005D01*
X122390566Y-82424003D01*
X122283342Y-82213566D01*
X122144517Y-82022490D01*
X121977510Y-81855483D01*
X121786433Y-81716657D01*
X121771812Y-81709207D01*
X121575996Y-81609433D01*
X121351368Y-81536446D01*
X121118097Y-81499500D01*
X121118092Y-81499500D01*
X120881908Y-81499500D01*
X120881903Y-81499500D01*
X120648631Y-81536446D01*
X120424003Y-81609433D01*
X120213566Y-81716657D01*
X120205417Y-81722578D01*
X120022490Y-81855483D01*
X120022488Y-81855485D01*
X120022487Y-81855485D01*
X119855485Y-82022487D01*
X119855485Y-82022488D01*
X119855483Y-82022490D01*
X119795862Y-82104550D01*
X119716657Y-82213566D01*
X119609433Y-82424003D01*
X119536446Y-82648631D01*
X119499500Y-82881902D01*
X119499500Y-90118097D01*
X119526382Y-90287819D01*
X119536094Y-90349142D01*
X119537197Y-90356102D01*
X119528243Y-90425395D01*
X119483247Y-90478847D01*
X119416495Y-90499487D01*
X119414724Y-90499500D01*
X117422889Y-90499500D01*
X117355850Y-90479815D01*
X117335208Y-90463181D01*
X116813760Y-89941733D01*
X116780275Y-89880410D01*
X116785259Y-89810718D01*
X116801122Y-89781168D01*
X116833624Y-89736434D01*
X116940849Y-89525992D01*
X117013834Y-89301368D01*
X117045511Y-89101368D01*
X117050781Y-89068097D01*
X117050781Y-88831902D01*
X117013834Y-88598631D01*
X116957093Y-88424003D01*
X116940849Y-88374008D01*
X116940847Y-88374005D01*
X116940847Y-88374003D01*
X116873573Y-88241971D01*
X116833624Y-88163566D01*
X116694798Y-87972490D01*
X115786819Y-87064511D01*
X115753334Y-87003188D01*
X115750500Y-86976830D01*
X115750500Y-80881902D01*
X115713553Y-80648631D01*
X115664797Y-80498578D01*
X115640568Y-80424008D01*
X115640566Y-80424005D01*
X115640566Y-80424003D01*
X115563365Y-80272488D01*
X115533343Y-80213567D01*
X115394517Y-80022490D01*
X115227510Y-79855483D01*
X115036433Y-79716657D01*
X114979598Y-79687698D01*
X114825996Y-79609433D01*
X114601368Y-79536446D01*
X114368097Y-79499500D01*
X114368092Y-79499500D01*
X114131908Y-79499500D01*
X114131903Y-79499500D01*
X113898631Y-79536446D01*
X113674003Y-79609433D01*
X113463566Y-79716657D01*
X113367527Y-79786434D01*
X113272490Y-79855483D01*
X113272488Y-79855485D01*
X113272487Y-79855485D01*
X113105485Y-80022487D01*
X113105485Y-80022488D01*
X113105483Y-80022490D01*
X113071707Y-80068979D01*
X112966657Y-80213566D01*
X112859433Y-80424003D01*
X112786446Y-80648631D01*
X112749500Y-80881902D01*
X112749500Y-85578111D01*
X112729815Y-85645150D01*
X112677011Y-85690905D01*
X112607853Y-85700849D01*
X112544297Y-85671824D01*
X112537819Y-85665792D01*
X107477511Y-80605484D01*
X107477508Y-80605482D01*
X107286434Y-80466657D01*
X107237398Y-80441672D01*
X107075996Y-80359433D01*
X106851368Y-80286446D01*
X106618097Y-80249500D01*
X106618092Y-80249500D01*
X103828964Y-80249500D01*
X103828963Y-80249500D01*
X103822655Y-80250498D01*
X103822656Y-80250499D01*
X103595687Y-80286447D01*
X103371059Y-80359433D01*
X103160619Y-80466659D01*
X102969552Y-80605476D01*
X102969547Y-80605480D01*
X102866285Y-80708743D01*
X102804962Y-80742228D01*
X102778604Y-80745062D01*
X101237153Y-80745062D01*
X101064381Y-80772427D01*
X101064380Y-80772427D01*
X101003882Y-80782008D01*
X101003881Y-80782008D01*
X100779253Y-80854995D01*
X100568813Y-80962221D01*
X100377746Y-81101038D01*
X100377741Y-81101042D01*
X98015604Y-83463181D01*
X97954281Y-83496666D01*
X97927923Y-83499500D01*
X96131903Y-83499500D01*
X95898631Y-83536446D01*
X95674003Y-83609433D01*
X95463566Y-83716657D01*
X95373106Y-83782381D01*
X95272490Y-83855483D01*
X95272488Y-83855485D01*
X95272487Y-83855485D01*
X95105485Y-84022487D01*
X95105485Y-84022488D01*
X95105483Y-84022490D01*
X95059916Y-84085208D01*
X94966657Y-84213566D01*
X94859433Y-84424003D01*
X94786446Y-84648631D01*
X94749500Y-84881902D01*
X94749500Y-85380197D01*
X94729815Y-85447236D01*
X94677011Y-85492991D01*
X94625500Y-85504197D01*
X94055977Y-85504197D01*
X94055977Y-86380197D01*
X94036292Y-86447236D01*
X93983488Y-86492991D01*
X93931977Y-86504197D01*
X93805977Y-86504197D01*
X93805977Y-86630197D01*
X93786292Y-86697236D01*
X93733488Y-86742991D01*
X93681977Y-86754197D01*
X91805977Y-86754197D01*
X91805977Y-87052041D01*
X91812378Y-87111569D01*
X91812380Y-87111576D01*
X91862622Y-87246283D01*
X91862626Y-87246290D01*
X91936810Y-87345386D01*
X91961228Y-87410850D01*
X91946377Y-87479123D01*
X91896972Y-87528529D01*
X91837544Y-87543697D01*
X88587706Y-87543697D01*
X88354434Y-87580643D01*
X88186401Y-87635241D01*
X88145193Y-87648630D01*
X88129810Y-87653628D01*
X87919368Y-87760854D01*
X87728291Y-87899681D01*
X86355484Y-89272488D01*
X86216657Y-89463565D01*
X86145615Y-89602994D01*
X86145614Y-89602993D01*
X86109430Y-89674010D01*
X86109430Y-89674011D01*
X86036447Y-89898627D01*
X86036447Y-89898630D01*
X85999500Y-90131902D01*
X85999500Y-105868097D01*
X86036446Y-106101368D01*
X86109435Y-106326001D01*
X86146052Y-106397864D01*
X86158949Y-106466533D01*
X86132673Y-106531273D01*
X86075567Y-106571531D01*
X86035568Y-106578159D01*
X82517378Y-106578159D01*
X82450339Y-106558474D01*
X82412797Y-106520784D01*
X82376725Y-106464163D01*
X75580266Y-95795859D01*
X74302153Y-93789624D01*
X74282735Y-93722507D01*
X74302685Y-93655546D01*
X74340956Y-93617883D01*
X75766763Y-92725704D01*
X75768301Y-92724759D01*
X77743113Y-91533139D01*
X77744717Y-91532189D01*
X79738553Y-90372744D01*
X79740175Y-90371818D01*
X81752562Y-89244825D01*
X81754152Y-89243952D01*
X82316672Y-88940792D01*
X82385026Y-88926316D01*
X82450355Y-88951093D01*
X82491918Y-89007256D01*
X82499500Y-89049950D01*
X82499500Y-96368097D01*
X82536446Y-96601368D01*
X82609433Y-96825996D01*
X82716657Y-97036433D01*
X82855483Y-97227510D01*
X83022490Y-97394517D01*
X83213567Y-97533343D01*
X83255157Y-97554534D01*
X83424003Y-97640566D01*
X83424005Y-97640566D01*
X83424008Y-97640568D01*
X83544412Y-97679689D01*
X83648631Y-97713553D01*
X83881903Y-97750500D01*
X83881908Y-97750500D01*
X84118097Y-97750500D01*
X84351368Y-97713553D01*
X84575992Y-97640568D01*
X84786433Y-97533343D01*
X84977510Y-97394517D01*
X85144517Y-97227510D01*
X85283343Y-97036433D01*
X85390568Y-96825992D01*
X85463553Y-96601368D01*
X85474327Y-96533342D01*
X85500500Y-96368097D01*
X85500500Y-88881902D01*
X85463553Y-88648631D01*
X85429689Y-88544412D01*
X85390568Y-88424008D01*
X85390566Y-88424005D01*
X85390566Y-88424003D01*
X85331404Y-88307893D01*
X85283343Y-88213567D01*
X85144517Y-88022490D01*
X84977510Y-87855483D01*
X84879684Y-87784408D01*
X84837019Y-87729079D01*
X84831040Y-87659466D01*
X84863646Y-87597671D01*
X84895516Y-87573996D01*
X85834036Y-87087661D01*
X85835739Y-87086796D01*
X87900559Y-86058915D01*
X87902156Y-86058136D01*
X88115208Y-85956352D01*
X91805977Y-85956352D01*
X91805977Y-86254197D01*
X93555977Y-86254197D01*
X93555977Y-85504197D01*
X92258132Y-85504197D01*
X92198604Y-85510598D01*
X92198597Y-85510600D01*
X92063890Y-85560842D01*
X92063883Y-85560846D01*
X91948789Y-85647006D01*
X91948786Y-85647009D01*
X91862626Y-85762103D01*
X91862622Y-85762110D01*
X91812380Y-85896817D01*
X91812378Y-85896824D01*
X91805977Y-85956352D01*
X88115208Y-85956352D01*
X89983319Y-85063874D01*
X89985000Y-85063087D01*
X92082037Y-84102667D01*
X92083730Y-84101908D01*
X94196059Y-83175595D01*
X94197712Y-83174886D01*
X96324772Y-82282929D01*
X96326457Y-82282238D01*
X98467632Y-81424892D01*
X98469424Y-81424191D01*
X100624339Y-80601608D01*
X100625928Y-80601017D01*
X102793868Y-79813471D01*
X102795522Y-79812885D01*
X104975939Y-79060577D01*
X104977680Y-79059992D01*
X107169898Y-78343152D01*
X107171747Y-78342564D01*
X109375306Y-77661340D01*
X109377038Y-77660820D01*
X111591401Y-77015379D01*
X111593101Y-77014898D01*
X113817689Y-76405414D01*
X113819486Y-76404937D01*
X116053515Y-75831620D01*
X116055327Y-75831170D01*
X118298400Y-75294121D01*
X118300256Y-75293692D01*
X120551774Y-74793055D01*
X120553500Y-74792686D01*
X120847316Y-74732334D01*
X120849757Y-74731862D01*
X128819679Y-73282785D01*
X128822599Y-73282293D01*
X129637194Y-73155869D01*
X129639027Y-73155600D01*
X131923586Y-72838864D01*
X131925533Y-72838610D01*
X134214881Y-72558945D01*
X134216797Y-72558726D01*
X136510525Y-72316181D01*
X136512281Y-72316009D01*
X138809687Y-72110664D01*
X138811514Y-72110516D01*
X141111823Y-71942437D01*
X141113597Y-71942321D01*
X143416484Y-71811533D01*
X143418335Y-71811443D01*
X145078060Y-71744145D01*
X145145840Y-71761097D01*
G37*
%TD.AperFunction*%
%TA.AperFunction,Conductor*%
G36*
X157315550Y-71813965D02*
G01*
X157317511Y-71814060D01*
X159618591Y-71945571D01*
X159620449Y-71945693D01*
X159701376Y-71951634D01*
X159704598Y-71951915D01*
X169608248Y-72956633D01*
X169612787Y-72957179D01*
X171084798Y-73161713D01*
X171086619Y-73161981D01*
X173364183Y-73516130D01*
X173365960Y-73516421D01*
X174716654Y-73748910D01*
X174722770Y-73750123D01*
X188424241Y-76832954D01*
X188429708Y-76834318D01*
X189117068Y-77022794D01*
X189118926Y-77023320D01*
X190258921Y-77355850D01*
X191331451Y-77668701D01*
X191333374Y-77669279D01*
X193535119Y-78350394D01*
X193537033Y-78351003D01*
X194061151Y-78522488D01*
X195727543Y-79067712D01*
X195729348Y-79068319D01*
X197199954Y-79575992D01*
X197907893Y-79820382D01*
X197909786Y-79821052D01*
X198098391Y-79889599D01*
X200075981Y-80608338D01*
X200077787Y-80609012D01*
X202230888Y-81431253D01*
X202232605Y-81431925D01*
X204372222Y-82288971D01*
X204373979Y-82289692D01*
X206499369Y-83181247D01*
X206501098Y-83181988D01*
X208611714Y-84107821D01*
X208613537Y-84108637D01*
X210696935Y-85063056D01*
X210708863Y-85068520D01*
X210710666Y-85069363D01*
X211368161Y-85383546D01*
X211369132Y-85384017D01*
X214037931Y-86697236D01*
X215166667Y-87252646D01*
X215168978Y-87253813D01*
X215544585Y-87448480D01*
X216903234Y-88152632D01*
X216904840Y-88153481D01*
X218933741Y-89247048D01*
X218935344Y-89247929D01*
X220905487Y-90351368D01*
X220946208Y-90374175D01*
X220947888Y-90375132D01*
X222920811Y-91522490D01*
X222940283Y-91533814D01*
X222942010Y-91534838D01*
X223637467Y-91954499D01*
X224915286Y-92725577D01*
X224916930Y-92726587D01*
X225976779Y-93389781D01*
X226301372Y-93592893D01*
X226347761Y-93645142D01*
X226358538Y-93714175D01*
X226341748Y-93762102D01*
X225329133Y-95439247D01*
X225327562Y-95441780D01*
X218364588Y-106371459D01*
X218311965Y-106417423D01*
X218260279Y-106428834D01*
X189165464Y-106492586D01*
X189098381Y-106473048D01*
X189052511Y-106420344D01*
X189042416Y-106351208D01*
X189071301Y-106287589D01*
X189129997Y-106249686D01*
X189145794Y-106246113D01*
X189351368Y-106213553D01*
X189575992Y-106140568D01*
X189786433Y-106033343D01*
X189977510Y-105894517D01*
X190144517Y-105727510D01*
X190283343Y-105536433D01*
X190390568Y-105325992D01*
X190463553Y-105101368D01*
X190477194Y-105015241D01*
X190500500Y-104868097D01*
X190500500Y-100363146D01*
X190520185Y-100296107D01*
X190572989Y-100250352D01*
X190642147Y-100240408D01*
X190705703Y-100269433D01*
X190734407Y-100305733D01*
X190737831Y-100312287D01*
X190756279Y-100347604D01*
X190884867Y-100505306D01*
X190927929Y-100540418D01*
X191042570Y-100633895D01*
X191222928Y-100728106D01*
X191418559Y-100784083D01*
X191537940Y-100794697D01*
X198654013Y-100794696D01*
X198773395Y-100784083D01*
X198969026Y-100728106D01*
X199149384Y-100633895D01*
X199307086Y-100505306D01*
X199435675Y-100347604D01*
X199529886Y-100167246D01*
X199585863Y-99971615D01*
X199596477Y-99852234D01*
X199596477Y-98374500D01*
X199616162Y-98307461D01*
X199668966Y-98261706D01*
X199720477Y-98250500D01*
X200868097Y-98250500D01*
X201101368Y-98213553D01*
X201325992Y-98140568D01*
X201536433Y-98033343D01*
X201727510Y-97894517D01*
X201894517Y-97727510D01*
X202033343Y-97536433D01*
X202140568Y-97325992D01*
X202213553Y-97101368D01*
X202229732Y-96999219D01*
X202250500Y-96868097D01*
X202250500Y-96631902D01*
X202213553Y-96398631D01*
X202140566Y-96174003D01*
X202074723Y-96044780D01*
X202033343Y-95963567D01*
X201894517Y-95772490D01*
X201727510Y-95605483D01*
X201536433Y-95466657D01*
X201325996Y-95359433D01*
X201101368Y-95286446D01*
X200868097Y-95249500D01*
X200868092Y-95249500D01*
X199720476Y-95249500D01*
X199653437Y-95229815D01*
X199607682Y-95177011D01*
X199596476Y-95125500D01*
X199596476Y-92736168D01*
X199596476Y-92736161D01*
X199585863Y-92616779D01*
X199535855Y-92442009D01*
X199529887Y-92421151D01*
X199529886Y-92421150D01*
X199529886Y-92421148D01*
X199435675Y-92240790D01*
X199355313Y-92142234D01*
X199307086Y-92083087D01*
X199149386Y-91954501D01*
X199149387Y-91954501D01*
X199149384Y-91954499D01*
X198969026Y-91860288D01*
X198969025Y-91860287D01*
X198969022Y-91860286D01*
X198849167Y-91825992D01*
X198773395Y-91804311D01*
X198773392Y-91804310D01*
X198773390Y-91804310D01*
X198707079Y-91798414D01*
X198654014Y-91793697D01*
X198654009Y-91793697D01*
X191537948Y-91793697D01*
X191537942Y-91793697D01*
X191537941Y-91793698D01*
X191526293Y-91794733D01*
X191418561Y-91804310D01*
X191222931Y-91860286D01*
X191132749Y-91907393D01*
X191042570Y-91954499D01*
X191042568Y-91954500D01*
X191042567Y-91954501D01*
X190884867Y-92083087D01*
X190756279Y-92240790D01*
X190756277Y-92240792D01*
X190734408Y-92282659D01*
X190685921Y-92332966D01*
X190617934Y-92349073D01*
X190552031Y-92325866D01*
X190509136Y-92270713D01*
X190500500Y-92225247D01*
X190500500Y-84172889D01*
X190520185Y-84105850D01*
X190536819Y-84085208D01*
X190952011Y-83670016D01*
X191374737Y-83247289D01*
X191406117Y-83224490D01*
X191607304Y-83121981D01*
X191798381Y-82983155D01*
X191965388Y-82816148D01*
X192104214Y-82625071D01*
X192211439Y-82414630D01*
X192284424Y-82190006D01*
X192310956Y-82022490D01*
X192321371Y-81956735D01*
X192321371Y-81720540D01*
X192284424Y-81487269D01*
X192250312Y-81382284D01*
X192211439Y-81262646D01*
X192211437Y-81262643D01*
X192211437Y-81262641D01*
X192131547Y-81105850D01*
X192104214Y-81052205D01*
X191965388Y-80861128D01*
X191798381Y-80694121D01*
X191607304Y-80555295D01*
X191567271Y-80534897D01*
X191396867Y-80448071D01*
X191172239Y-80375084D01*
X190938968Y-80338138D01*
X190938963Y-80338138D01*
X190779454Y-80338138D01*
X190543270Y-80338138D01*
X190543265Y-80338138D01*
X190309993Y-80375084D01*
X190085365Y-80448071D01*
X189874925Y-80555297D01*
X189683858Y-80694114D01*
X189683853Y-80694118D01*
X187855485Y-82522487D01*
X187855484Y-82522488D01*
X187716657Y-82713565D01*
X187656262Y-82832099D01*
X187609433Y-82924003D01*
X187536446Y-83148631D01*
X187499500Y-83381902D01*
X187499500Y-104868097D01*
X187536446Y-105101368D01*
X187609433Y-105325996D01*
X187695701Y-105495304D01*
X187716657Y-105536433D01*
X187855483Y-105727510D01*
X188022490Y-105894517D01*
X188213567Y-106033343D01*
X188312991Y-106084002D01*
X188424003Y-106140566D01*
X188424005Y-106140566D01*
X188424008Y-106140568D01*
X188509903Y-106168477D01*
X188648631Y-106213553D01*
X188858713Y-106246827D01*
X188921848Y-106276756D01*
X188958779Y-106336068D01*
X188957781Y-106405930D01*
X188919171Y-106464163D01*
X188855207Y-106492277D01*
X188839587Y-106493300D01*
X157444598Y-106562091D01*
X157377515Y-106542553D01*
X157331645Y-106489849D01*
X157321550Y-106420713D01*
X157327957Y-106395263D01*
X157330498Y-106388356D01*
X157348866Y-106352309D01*
X157386561Y-106236295D01*
X157403610Y-106183823D01*
X157431324Y-106008846D01*
X157431324Y-105831689D01*
X157431324Y-105272498D01*
X157431324Y-105272493D01*
X157417791Y-105187054D01*
X157417791Y-105187053D01*
X157413070Y-105157246D01*
X157403610Y-105097521D01*
X157403609Y-105097517D01*
X157403609Y-105097516D01*
X157355228Y-104948615D01*
X157348866Y-104929035D01*
X157320868Y-104874087D01*
X157281921Y-104797648D01*
X157268439Y-104771188D01*
X157238854Y-104730468D01*
X157164307Y-104627863D01*
X157039038Y-104502594D01*
X156161819Y-103625375D01*
X156128334Y-103564052D01*
X156125500Y-103537694D01*
X156125500Y-97935448D01*
X156139015Y-97879153D01*
X156205218Y-97749223D01*
X156205218Y-97749222D01*
X156205220Y-97749219D01*
X156268477Y-97554534D01*
X156300500Y-97352352D01*
X156300500Y-97147648D01*
X156282885Y-97036433D01*
X156268477Y-96945465D01*
X156229659Y-96825996D01*
X156205220Y-96750781D01*
X156205218Y-96750778D01*
X156205218Y-96750776D01*
X156171503Y-96684607D01*
X156112287Y-96568390D01*
X156086824Y-96533343D01*
X155991971Y-96402786D01*
X155847213Y-96258028D01*
X155681611Y-96137713D01*
X155606303Y-96099342D01*
X155505969Y-96048219D01*
X155455174Y-96000247D01*
X155451790Y-95994050D01*
X155362287Y-95818390D01*
X155362285Y-95818387D01*
X155362284Y-95818385D01*
X155241971Y-95652786D01*
X155097213Y-95508028D01*
X154931613Y-95387715D01*
X154931612Y-95387714D01*
X154931610Y-95387713D01*
X154859543Y-95350993D01*
X154749223Y-95294781D01*
X154554534Y-95231522D01*
X154379995Y-95203878D01*
X154352352Y-95199500D01*
X154147648Y-95199500D01*
X154123329Y-95203351D01*
X153945465Y-95231522D01*
X153750776Y-95294781D01*
X153568386Y-95387715D01*
X153402786Y-95508028D01*
X153258028Y-95652786D01*
X153137715Y-95818386D01*
X153044781Y-96000776D01*
X152981522Y-96195465D01*
X152949500Y-96397648D01*
X152949500Y-96602351D01*
X152981523Y-96804534D01*
X152981522Y-96804534D01*
X153044781Y-96999223D01*
X153110985Y-97129153D01*
X153124500Y-97185448D01*
X153124500Y-104348426D01*
X153152213Y-104523400D01*
X153152213Y-104523401D01*
X153152214Y-104523404D01*
X153186155Y-104627863D01*
X153206958Y-104691890D01*
X153206959Y-104691892D01*
X153287386Y-104849738D01*
X153372993Y-104967566D01*
X153380217Y-104977508D01*
X153380217Y-104977510D01*
X153391516Y-104993060D01*
X153391518Y-104993063D01*
X153877786Y-105479331D01*
X153911271Y-105540654D01*
X153906287Y-105610346D01*
X153900590Y-105623306D01*
X153853663Y-105715404D01*
X153790403Y-105910096D01*
X153758381Y-106112279D01*
X153758381Y-106316982D01*
X153775806Y-106426999D01*
X153766851Y-106496293D01*
X153721855Y-106549744D01*
X153655104Y-106570384D01*
X153653605Y-106570397D01*
X150111796Y-106578159D01*
X118757230Y-106578159D01*
X118690191Y-106558474D01*
X118644436Y-106505670D01*
X118634492Y-106436512D01*
X118663517Y-106372956D01*
X118679917Y-106357212D01*
X118730362Y-106316983D01*
X118831542Y-106236295D01*
X119038075Y-106029762D01*
X119220185Y-105801403D01*
X119375582Y-105554090D01*
X119502312Y-105290934D01*
X119598780Y-105015242D01*
X119663775Y-104730483D01*
X119668124Y-104691890D01*
X119696476Y-104440244D01*
X119696477Y-104440240D01*
X119696477Y-104148153D01*
X119696476Y-104148149D01*
X119663777Y-103857925D01*
X119663776Y-103857920D01*
X119663775Y-103857911D01*
X119598780Y-103573152D01*
X119502312Y-103297460D01*
X119375582Y-103034304D01*
X119220185Y-102786991D01*
X119038075Y-102558632D01*
X118831542Y-102352099D01*
X118830625Y-102351368D01*
X118767185Y-102300776D01*
X118603183Y-102169989D01*
X118355870Y-102014592D01*
X118355867Y-102014590D01*
X118092715Y-101887862D01*
X117817023Y-101791394D01*
X117817021Y-101791393D01*
X117597257Y-101741233D01*
X117532263Y-101726399D01*
X117532260Y-101726398D01*
X117532248Y-101726396D01*
X117242024Y-101693697D01*
X117242018Y-101693697D01*
X116949936Y-101693697D01*
X116949929Y-101693697D01*
X116659705Y-101726396D01*
X116659691Y-101726399D01*
X116374932Y-101791393D01*
X116374930Y-101791394D01*
X116099238Y-101887862D01*
X115836086Y-102014590D01*
X115588772Y-102169988D01*
X115360412Y-102352098D01*
X115153878Y-102558632D01*
X114971768Y-102786992D01*
X114816370Y-103034306D01*
X114689642Y-103297458D01*
X114593174Y-103573150D01*
X114593173Y-103573152D01*
X114528179Y-103857911D01*
X114528176Y-103857925D01*
X114495477Y-104148149D01*
X114495477Y-104440244D01*
X114528176Y-104730468D01*
X114528178Y-104730480D01*
X114528179Y-104730483D01*
X114532456Y-104749223D01*
X114593173Y-105015241D01*
X114593174Y-105015243D01*
X114689642Y-105290935D01*
X114816370Y-105554087D01*
X114816372Y-105554090D01*
X114971769Y-105801403D01*
X115107629Y-105971766D01*
X115153878Y-106029761D01*
X115360412Y-106236295D01*
X115512037Y-106357212D01*
X115552177Y-106414400D01*
X115555027Y-106484212D01*
X115519682Y-106544482D01*
X115457363Y-106576075D01*
X115434724Y-106578159D01*
X88964432Y-106578159D01*
X88897393Y-106558474D01*
X88851638Y-106505670D01*
X88841694Y-106436512D01*
X88853948Y-106397864D01*
X88890564Y-106326001D01*
X88890565Y-106325997D01*
X88890568Y-106325992D01*
X88963553Y-106101368D01*
X88974894Y-106029762D01*
X89000500Y-105868097D01*
X89000500Y-97370552D01*
X89020185Y-97303513D01*
X89072989Y-97257758D01*
X89142147Y-97247814D01*
X89205703Y-97276839D01*
X89224816Y-97297663D01*
X89355483Y-97477510D01*
X89686687Y-97808715D01*
X89751544Y-97855836D01*
X89790812Y-97884366D01*
X89833477Y-97939696D01*
X89839456Y-98009310D01*
X89806850Y-98071105D01*
X89805607Y-98072365D01*
X89605484Y-98272488D01*
X89466657Y-98463565D01*
X89359433Y-98674003D01*
X89286446Y-98898631D01*
X89249500Y-99131902D01*
X89249500Y-99368097D01*
X89286446Y-99601368D01*
X89359433Y-99825996D01*
X89466656Y-100036433D01*
X89466657Y-100036434D01*
X89605483Y-100227510D01*
X89772490Y-100394517D01*
X89778508Y-100398889D01*
X89821172Y-100454219D01*
X89827151Y-100523832D01*
X89794545Y-100585627D01*
X89781984Y-100596511D01*
X89781992Y-100596520D01*
X89780774Y-100597560D01*
X89778514Y-100599517D01*
X89778337Y-100599647D01*
X89778290Y-100599681D01*
X89605482Y-100772491D01*
X89466657Y-100963565D01*
X89359433Y-101174003D01*
X89286446Y-101398631D01*
X89249500Y-101631902D01*
X89249500Y-101868097D01*
X89286446Y-102101368D01*
X89359433Y-102325996D01*
X89408154Y-102421615D01*
X89466657Y-102536434D01*
X89605483Y-102727510D01*
X89772490Y-102894517D01*
X89886722Y-102977512D01*
X89963567Y-103033344D01*
X90085692Y-103095569D01*
X90136489Y-103143543D01*
X90153284Y-103211364D01*
X90130747Y-103277499D01*
X90117080Y-103293735D01*
X90008027Y-103402788D01*
X89887715Y-103568386D01*
X89794781Y-103750776D01*
X89731522Y-103945465D01*
X89699500Y-104147648D01*
X89699500Y-104352351D01*
X89731522Y-104554534D01*
X89794781Y-104749223D01*
X89858404Y-104874087D01*
X89886401Y-104929036D01*
X89887715Y-104931613D01*
X90008028Y-105097213D01*
X90152786Y-105241971D01*
X90307749Y-105354556D01*
X90318390Y-105362287D01*
X90423452Y-105415819D01*
X90500776Y-105455218D01*
X90500778Y-105455218D01*
X90500781Y-105455220D01*
X90531112Y-105465075D01*
X90695465Y-105518477D01*
X90796557Y-105534488D01*
X90897648Y-105550500D01*
X90897649Y-105550500D01*
X91102351Y-105550500D01*
X91102352Y-105550500D01*
X91304534Y-105518477D01*
X91468888Y-105465074D01*
X91538727Y-105463080D01*
X91589339Y-105492136D01*
X91589995Y-105491332D01*
X91594866Y-105495304D01*
X91594868Y-105495306D01*
X91752570Y-105623895D01*
X91932928Y-105718106D01*
X92128559Y-105774083D01*
X92247940Y-105784697D01*
X95364013Y-105784696D01*
X95483395Y-105774083D01*
X95679026Y-105718106D01*
X95859384Y-105623895D01*
X96017086Y-105495306D01*
X96145675Y-105337604D01*
X96216069Y-105202840D01*
X96264555Y-105152534D01*
X96332542Y-105136427D01*
X96398446Y-105159633D01*
X96435884Y-105202840D01*
X96506279Y-105337604D01*
X96634867Y-105495306D01*
X96702558Y-105550500D01*
X96792570Y-105623895D01*
X96972928Y-105718106D01*
X97168559Y-105774083D01*
X97287940Y-105784697D01*
X100404013Y-105784696D01*
X100523395Y-105774083D01*
X100719026Y-105718106D01*
X100899384Y-105623895D01*
X101057086Y-105495306D01*
X101059671Y-105492136D01*
X101089677Y-105455337D01*
X101147297Y-105415819D01*
X101185779Y-105409697D01*
X103796986Y-105409697D01*
X103864025Y-105429382D01*
X103869868Y-105433377D01*
X103886504Y-105445463D01*
X103886507Y-105445467D01*
X103886508Y-105445466D01*
X103910110Y-105462614D01*
X103974271Y-105495306D01*
X104067957Y-105543042D01*
X104067960Y-105543043D01*
X104152201Y-105570414D01*
X104236445Y-105597786D01*
X104411421Y-105625500D01*
X104411422Y-105625500D01*
X104588579Y-105625500D01*
X105064552Y-105625500D01*
X105120847Y-105639015D01*
X105250776Y-105705218D01*
X105250778Y-105705218D01*
X105250781Y-105705220D01*
X105319383Y-105727510D01*
X105445465Y-105768477D01*
X105480860Y-105774083D01*
X105647648Y-105800500D01*
X105647649Y-105800500D01*
X105852351Y-105800500D01*
X105852352Y-105800500D01*
X106054534Y-105768477D01*
X106249219Y-105705220D01*
X106431610Y-105612287D01*
X106536015Y-105536433D01*
X106597213Y-105491971D01*
X106597215Y-105491968D01*
X106597219Y-105491966D01*
X106741966Y-105347219D01*
X106741968Y-105347215D01*
X106741971Y-105347213D01*
X106796257Y-105272493D01*
X106862287Y-105181610D01*
X106955220Y-104999219D01*
X107018477Y-104804534D01*
X107050500Y-104602352D01*
X107050500Y-104397648D01*
X107018477Y-104195466D01*
X106955220Y-104000781D01*
X106955218Y-104000778D01*
X106955218Y-104000776D01*
X106914066Y-103920012D01*
X106862287Y-103818390D01*
X106836824Y-103783343D01*
X106741971Y-103652786D01*
X106597213Y-103508028D01*
X106431613Y-103387715D01*
X106431612Y-103387714D01*
X106431610Y-103387713D01*
X106359200Y-103350818D01*
X106249223Y-103294781D01*
X106054534Y-103231522D01*
X105879995Y-103203878D01*
X105852352Y-103199500D01*
X105647648Y-103199500D01*
X105623329Y-103203351D01*
X105445465Y-103231522D01*
X105250776Y-103294781D01*
X105120847Y-103360985D01*
X105064552Y-103374500D01*
X104987211Y-103374500D01*
X104920172Y-103354815D01*
X104914333Y-103350824D01*
X104874087Y-103321583D01*
X104716242Y-103241156D01*
X104716239Y-103241155D01*
X104688192Y-103232042D01*
X104688191Y-103232041D01*
X104547754Y-103186411D01*
X104457404Y-103172101D01*
X104372776Y-103158697D01*
X104372775Y-103158697D01*
X104130948Y-103158697D01*
X104063909Y-103139012D01*
X104018154Y-103086208D01*
X104008210Y-103017050D01*
X104008475Y-103015299D01*
X104026364Y-102902351D01*
X104026364Y-102697648D01*
X103994341Y-102495465D01*
X103939277Y-102325996D01*
X103931084Y-102300781D01*
X103931082Y-102300778D01*
X103931082Y-102300776D01*
X103864442Y-102169989D01*
X103838151Y-102118390D01*
X103825784Y-102101368D01*
X103717835Y-101952786D01*
X103573077Y-101808028D01*
X103407477Y-101687715D01*
X103407476Y-101687714D01*
X103407474Y-101687713D01*
X103350517Y-101658691D01*
X103225087Y-101594781D01*
X103086389Y-101549715D01*
X103037027Y-101519465D01*
X102403277Y-100885715D01*
X102392422Y-100877829D01*
X102336793Y-100837412D01*
X102294129Y-100782083D01*
X102288150Y-100712469D01*
X102320756Y-100650674D01*
X102353382Y-100626611D01*
X102536433Y-100533343D01*
X102727510Y-100394517D01*
X102894517Y-100227510D01*
X103033343Y-100036433D01*
X103140568Y-99825992D01*
X103213552Y-99601368D01*
X103228800Y-99505100D01*
X103258730Y-99441966D01*
X103318041Y-99405035D01*
X103351273Y-99400499D01*
X103368097Y-99400499D01*
X103481184Y-99382587D01*
X103601368Y-99363552D01*
X103825992Y-99290568D01*
X104036433Y-99183343D01*
X104227510Y-99044517D01*
X104394517Y-98877510D01*
X104533343Y-98686433D01*
X104640568Y-98475992D01*
X104713552Y-98251368D01*
X104742103Y-98071105D01*
X104750499Y-98018097D01*
X104750499Y-97781902D01*
X104718970Y-97582842D01*
X104713552Y-97548631D01*
X104655691Y-97370552D01*
X104640569Y-97324010D01*
X104640567Y-97324007D01*
X104631466Y-97306144D01*
X104533343Y-97113566D01*
X104398400Y-96927835D01*
X104374921Y-96862030D01*
X104390746Y-96793976D01*
X104440852Y-96745281D01*
X104509330Y-96731405D01*
X104518102Y-96732475D01*
X104572273Y-96741054D01*
X104631904Y-96750500D01*
X104631908Y-96750500D01*
X104868097Y-96750500D01*
X104997690Y-96729973D01*
X105101369Y-96713553D01*
X105325992Y-96640568D01*
X105536434Y-96533343D01*
X105727510Y-96394517D01*
X105894517Y-96227510D01*
X106033343Y-96036434D01*
X106140568Y-95825992D01*
X106213553Y-95601369D01*
X106229973Y-95497690D01*
X106250500Y-95368097D01*
X106250500Y-95131902D01*
X106213553Y-94898631D01*
X106164549Y-94747814D01*
X106140568Y-94674008D01*
X106140566Y-94674005D01*
X106140566Y-94674003D01*
X106084002Y-94562991D01*
X106033343Y-94463567D01*
X105894517Y-94272490D01*
X104918405Y-93296378D01*
X104884920Y-93235055D01*
X104889904Y-93165363D01*
X104931776Y-93109430D01*
X104997240Y-93085013D01*
X105006086Y-93084697D01*
X106471477Y-93084697D01*
X106538516Y-93104382D01*
X106584271Y-93157186D01*
X106595477Y-93208697D01*
X106595477Y-99852225D01*
X106595478Y-99852231D01*
X106606090Y-99971612D01*
X106662066Y-100167242D01*
X106662067Y-100167245D01*
X106662068Y-100167246D01*
X106756279Y-100347604D01*
X106756281Y-100347606D01*
X106884867Y-100505306D01*
X106927929Y-100540418D01*
X107042570Y-100633895D01*
X107222928Y-100728106D01*
X107418559Y-100784083D01*
X107537940Y-100794697D01*
X114654013Y-100794696D01*
X114773395Y-100784083D01*
X114969026Y-100728106D01*
X115149384Y-100633895D01*
X115307086Y-100505306D01*
X115435675Y-100347604D01*
X115529886Y-100167246D01*
X115585863Y-99971615D01*
X115596477Y-99852234D01*
X115596476Y-93259997D01*
X115616161Y-93192959D01*
X115668965Y-93147204D01*
X115738123Y-93137260D01*
X115793360Y-93159680D01*
X115963566Y-93283343D01*
X116172446Y-93389771D01*
X116172456Y-93389781D01*
X116172458Y-93389778D01*
X116174008Y-93390568D01*
X116327441Y-93440421D01*
X116398631Y-93463553D01*
X116631903Y-93500500D01*
X116631908Y-93500500D01*
X122378071Y-93500500D01*
X122445110Y-93520185D01*
X122450956Y-93524182D01*
X122462246Y-93532384D01*
X122463566Y-93533343D01*
X122580440Y-93592893D01*
X122674003Y-93640566D01*
X122674005Y-93640566D01*
X122674008Y-93640568D01*
X122794412Y-93679689D01*
X122898631Y-93713553D01*
X123131903Y-93750500D01*
X123131908Y-93750500D01*
X123368097Y-93750500D01*
X123601369Y-93713553D01*
X123691729Y-93684193D01*
X123825993Y-93640568D01*
X124036434Y-93533343D01*
X124042800Y-93528717D01*
X124049044Y-93524182D01*
X124114850Y-93500702D01*
X124121929Y-93500500D01*
X129368097Y-93500500D01*
X129601368Y-93463553D01*
X129825992Y-93390568D01*
X129827543Y-93389778D01*
X129895965Y-93354915D01*
X130036434Y-93283343D01*
X130227510Y-93144517D01*
X133085208Y-90286819D01*
X133146531Y-90253334D01*
X133172889Y-90250500D01*
X139118097Y-90250500D01*
X139351368Y-90213553D01*
X139575992Y-90140568D01*
X139786433Y-90033343D01*
X139977510Y-89894517D01*
X140144517Y-89727510D01*
X140283343Y-89536433D01*
X140390568Y-89325992D01*
X140463553Y-89101368D01*
X140471697Y-89049950D01*
X140500500Y-88868097D01*
X140500500Y-84118945D01*
X140520185Y-84051906D01*
X140572989Y-84006151D01*
X140642147Y-83996207D01*
X140705703Y-84025232D01*
X140712181Y-84031264D01*
X140713181Y-84032264D01*
X140746666Y-84093587D01*
X140749500Y-84119945D01*
X140749500Y-86368097D01*
X140786446Y-86601368D01*
X140859433Y-86825996D01*
X140949718Y-87003188D01*
X140966657Y-87036433D01*
X141105483Y-87227510D01*
X141272490Y-87394517D01*
X141463567Y-87533343D01*
X141562991Y-87584002D01*
X141674003Y-87640566D01*
X141674005Y-87640566D01*
X141674008Y-87640568D01*
X141732170Y-87659466D01*
X141898631Y-87713553D01*
X142131903Y-87750500D01*
X142131908Y-87750500D01*
X142368096Y-87750500D01*
X142435231Y-87739866D01*
X142472218Y-87734008D01*
X142541511Y-87742962D01*
X142594963Y-87787958D01*
X142615603Y-87854709D01*
X142615616Y-87856481D01*
X142615616Y-99751981D01*
X142652562Y-99985252D01*
X142725549Y-100209880D01*
X142795724Y-100347604D01*
X142832773Y-100420317D01*
X142971599Y-100611394D01*
X143138606Y-100778401D01*
X143329683Y-100917227D01*
X143429107Y-100967886D01*
X143540119Y-101024450D01*
X143540121Y-101024450D01*
X143540124Y-101024452D01*
X143660528Y-101063573D01*
X143764747Y-101097437D01*
X143998019Y-101134384D01*
X143998024Y-101134384D01*
X144234213Y-101134384D01*
X144467484Y-101097437D01*
X144692108Y-101024452D01*
X144902549Y-100917227D01*
X145093626Y-100778401D01*
X145260633Y-100611394D01*
X145399459Y-100420317D01*
X145506684Y-100209876D01*
X145579669Y-99985252D01*
X145581830Y-99971610D01*
X145616616Y-99751981D01*
X145616616Y-96858028D01*
X145636301Y-96790989D01*
X145689105Y-96745234D01*
X145758263Y-96735290D01*
X145821819Y-96764315D01*
X145837432Y-96780551D01*
X145839227Y-96782794D01*
X145855022Y-96804534D01*
X145891517Y-96854765D01*
X145918073Y-96881321D01*
X145922356Y-96886673D01*
X145928191Y-96900897D01*
X145943471Y-96925831D01*
X145988537Y-97064530D01*
X146081471Y-97246921D01*
X146100817Y-97273548D01*
X146124298Y-97339354D01*
X146124500Y-97346434D01*
X146124500Y-98998427D01*
X146152213Y-99173405D01*
X146187723Y-99282691D01*
X146189636Y-99288578D01*
X146206958Y-99341891D01*
X146256173Y-99438483D01*
X146257608Y-99441747D01*
X146258238Y-99446627D01*
X146266556Y-99472226D01*
X146271673Y-99504532D01*
X146271674Y-99504534D01*
X146334931Y-99699219D01*
X146412896Y-99852234D01*
X146427866Y-99881613D01*
X146548179Y-100047213D01*
X146692937Y-100191971D01*
X146833215Y-100293887D01*
X146858541Y-100312287D01*
X146974758Y-100371503D01*
X147040927Y-100405218D01*
X147040929Y-100405218D01*
X147040932Y-100405220D01*
X147087396Y-100420317D01*
X147235616Y-100468477D01*
X147336708Y-100484488D01*
X147437799Y-100500500D01*
X147437800Y-100500500D01*
X147642502Y-100500500D01*
X147642503Y-100500500D01*
X147731102Y-100486467D01*
X147800395Y-100495421D01*
X147853847Y-100540418D01*
X147874487Y-100607169D01*
X147874500Y-100608940D01*
X147874500Y-104773637D01*
X147902214Y-104948616D01*
X147902215Y-104948622D01*
X147908371Y-104967566D01*
X147913122Y-104997562D01*
X147914058Y-104997489D01*
X147914440Y-105002349D01*
X147946463Y-105204534D01*
X148009722Y-105399223D01*
X148058679Y-105495304D01*
X148088630Y-105554087D01*
X148102656Y-105581613D01*
X148222969Y-105747213D01*
X148367727Y-105891971D01*
X148522690Y-106004556D01*
X148533331Y-106012287D01*
X148649548Y-106071503D01*
X148715717Y-106105218D01*
X148715719Y-106105218D01*
X148715722Y-106105220D01*
X148820078Y-106139127D01*
X148910406Y-106168477D01*
X149007296Y-106183823D01*
X149112589Y-106200500D01*
X149112590Y-106200500D01*
X149317292Y-106200500D01*
X149317293Y-106200500D01*
X149519475Y-106168477D01*
X149714160Y-106105220D01*
X149896551Y-106012287D01*
X150037205Y-105910097D01*
X150062154Y-105891971D01*
X150062156Y-105891968D01*
X150062160Y-105891966D01*
X150206907Y-105747219D01*
X150206909Y-105747215D01*
X150206912Y-105747213D01*
X150296506Y-105623895D01*
X150327228Y-105581610D01*
X150420161Y-105399219D01*
X150483418Y-105204534D01*
X150515441Y-105002352D01*
X150515441Y-104797648D01*
X150507771Y-104749223D01*
X150483418Y-104595465D01*
X150420159Y-104400776D01*
X150386444Y-104334607D01*
X150327228Y-104218390D01*
X150292993Y-104171269D01*
X150206912Y-104052786D01*
X150161819Y-104007693D01*
X150128334Y-103946370D01*
X150125500Y-103920012D01*
X150125500Y-100501733D01*
X150145185Y-100434694D01*
X150197989Y-100388939D01*
X150267147Y-100378995D01*
X150305796Y-100391249D01*
X150333209Y-100405217D01*
X150333212Y-100405217D01*
X150333216Y-100405220D01*
X150423928Y-100434694D01*
X150527900Y-100468477D01*
X150628992Y-100484488D01*
X150730083Y-100500500D01*
X150730084Y-100500500D01*
X150934786Y-100500500D01*
X150934787Y-100500500D01*
X151136969Y-100468477D01*
X151331654Y-100405220D01*
X151514045Y-100312287D01*
X151630730Y-100227511D01*
X151679648Y-100191971D01*
X151679650Y-100191968D01*
X151679654Y-100191966D01*
X151824401Y-100047219D01*
X151824403Y-100047215D01*
X151824406Y-100047213D01*
X151944718Y-99881615D01*
X151944722Y-99881610D01*
X152037655Y-99699219D01*
X152100912Y-99504534D01*
X152132935Y-99302352D01*
X152132935Y-99097648D01*
X152117220Y-98998427D01*
X152100912Y-98895465D01*
X152037653Y-98700776D01*
X151948996Y-98526779D01*
X151944722Y-98518390D01*
X151935454Y-98505634D01*
X151899181Y-98455706D01*
X151875702Y-98389899D01*
X151875500Y-98382822D01*
X151875500Y-96018628D01*
X151895185Y-95951589D01*
X151899167Y-95945763D01*
X151983199Y-95830103D01*
X152076132Y-95647712D01*
X152139389Y-95453027D01*
X152171412Y-95250845D01*
X152171412Y-95046141D01*
X152160370Y-94976427D01*
X152139389Y-94843958D01*
X152086841Y-94682233D01*
X152076132Y-94649274D01*
X152076130Y-94649271D01*
X152076130Y-94649269D01*
X152038793Y-94575992D01*
X151983199Y-94466883D01*
X151974879Y-94455432D01*
X151894638Y-94344987D01*
X151871158Y-94279180D01*
X151886984Y-94211127D01*
X151907271Y-94184425D01*
X157561163Y-88530532D01*
X157610525Y-88500284D01*
X157749213Y-88455222D01*
X157749219Y-88455220D01*
X157931610Y-88362287D01*
X158024590Y-88294732D01*
X158097213Y-88241971D01*
X158097215Y-88241968D01*
X158097219Y-88241966D01*
X158241966Y-88097219D01*
X158241968Y-88097215D01*
X158241971Y-88097213D01*
X158301045Y-88015903D01*
X158362287Y-87931610D01*
X158455220Y-87749219D01*
X158518477Y-87554534D01*
X158532478Y-87466126D01*
X158536099Y-87450179D01*
X158539326Y-87439334D01*
X158543042Y-87432043D01*
X158597786Y-87263556D01*
X158603495Y-87227510D01*
X158625500Y-87088579D01*
X158625500Y-85071897D01*
X158645185Y-85004858D01*
X158697989Y-84959103D01*
X158765685Y-84948958D01*
X158990672Y-84978579D01*
X158990679Y-84978579D01*
X159252905Y-84978579D01*
X159252912Y-84978579D01*
X159512908Y-84944349D01*
X159766211Y-84876477D01*
X160008489Y-84776122D01*
X160235595Y-84645003D01*
X160252804Y-84631797D01*
X160317972Y-84606602D01*
X160386417Y-84620639D01*
X160403775Y-84631794D01*
X160420989Y-84645003D01*
X160557252Y-84723674D01*
X160648091Y-84776120D01*
X160648101Y-84776125D01*
X160870142Y-84868097D01*
X160890373Y-84876477D01*
X161143676Y-84944349D01*
X161372988Y-84974539D01*
X161436884Y-85002806D01*
X161444483Y-85009797D01*
X161463181Y-85028495D01*
X161496666Y-85089818D01*
X161499500Y-85116176D01*
X161499500Y-102118097D01*
X161536446Y-102351368D01*
X161609433Y-102575996D01*
X161716657Y-102786433D01*
X161855483Y-102977510D01*
X162022490Y-103144517D01*
X162213567Y-103283343D01*
X162288617Y-103321583D01*
X162424003Y-103390566D01*
X162424005Y-103390566D01*
X162424008Y-103390568D01*
X162544412Y-103429689D01*
X162648631Y-103463553D01*
X162881903Y-103500500D01*
X163077111Y-103500500D01*
X163144150Y-103520185D01*
X163164792Y-103536819D01*
X163272490Y-103644517D01*
X163463567Y-103783343D01*
X163532343Y-103818386D01*
X163674003Y-103890566D01*
X163674005Y-103890566D01*
X163674008Y-103890568D01*
X163764627Y-103920012D01*
X163898631Y-103963553D01*
X164131903Y-104000500D01*
X164372964Y-104000500D01*
X164372964Y-104002165D01*
X164434243Y-104015033D01*
X164484004Y-104064080D01*
X164499222Y-104114563D01*
X164499500Y-104118099D01*
X164536446Y-104351368D01*
X164609433Y-104575996D01*
X164708889Y-104771187D01*
X164716657Y-104786433D01*
X164855483Y-104977510D01*
X165022490Y-105144517D01*
X165213567Y-105283343D01*
X165297278Y-105325996D01*
X165424003Y-105390566D01*
X165424005Y-105390566D01*
X165424008Y-105390568D01*
X165543465Y-105429382D01*
X165648631Y-105463553D01*
X165881903Y-105500500D01*
X165881908Y-105500500D01*
X166118097Y-105500500D01*
X166351368Y-105463553D01*
X166377020Y-105455218D01*
X166575992Y-105390568D01*
X166786433Y-105283343D01*
X166977510Y-105144517D01*
X167144517Y-104977510D01*
X167283343Y-104786433D01*
X167390568Y-104575992D01*
X167463553Y-104351368D01*
X167464019Y-104348426D01*
X167500500Y-104118097D01*
X167500500Y-84381902D01*
X167463553Y-84148631D01*
X167390566Y-83924003D01*
X167283342Y-83713566D01*
X167247514Y-83664253D01*
X167144517Y-83522490D01*
X166977510Y-83355483D01*
X166786433Y-83216657D01*
X166575996Y-83109433D01*
X166351368Y-83036446D01*
X166118097Y-82999500D01*
X166118092Y-82999500D01*
X165881908Y-82999500D01*
X165877036Y-82999500D01*
X165877036Y-82997812D01*
X165815827Y-82984939D01*
X165766081Y-82935876D01*
X165750500Y-82875699D01*
X165750500Y-81172889D01*
X165762535Y-81131902D01*
X172999500Y-81131902D01*
X172999500Y-91368097D01*
X173036446Y-91601368D01*
X173109433Y-91825996D01*
X173198544Y-92000885D01*
X173216657Y-92036433D01*
X173355483Y-92227510D01*
X173522490Y-92394517D01*
X173713567Y-92533343D01*
X173801557Y-92578176D01*
X173924003Y-92640566D01*
X173924005Y-92640566D01*
X173924008Y-92640568D01*
X174020404Y-92671889D01*
X174148631Y-92713553D01*
X174381903Y-92750500D01*
X174381908Y-92750500D01*
X174618097Y-92750500D01*
X174851368Y-92713553D01*
X175075992Y-92640568D01*
X175286433Y-92533343D01*
X175477510Y-92394517D01*
X175644517Y-92227510D01*
X175783343Y-92036433D01*
X175890568Y-91825992D01*
X175963553Y-91601368D01*
X175974174Y-91534312D01*
X176000500Y-91368097D01*
X176000500Y-81922889D01*
X176020185Y-81855850D01*
X176036819Y-81835208D01*
X177198024Y-80674003D01*
X178394517Y-79477510D01*
X178533343Y-79286434D01*
X178640568Y-79075992D01*
X178713552Y-78851369D01*
X178732587Y-78731184D01*
X178750499Y-78618097D01*
X178750499Y-78381902D01*
X178724326Y-78216657D01*
X178713552Y-78148632D01*
X178647540Y-77945466D01*
X178640569Y-77924010D01*
X178640568Y-77924007D01*
X178552304Y-77750780D01*
X178533343Y-77713567D01*
X178394517Y-77522490D01*
X178227510Y-77355483D01*
X178036433Y-77216657D01*
X177825992Y-77109431D01*
X177825989Y-77109430D01*
X177601369Y-77036448D01*
X177368097Y-76999501D01*
X177368092Y-76999501D01*
X177131908Y-76999501D01*
X177131903Y-76999501D01*
X176898629Y-77036448D01*
X176674010Y-77109430D01*
X176674007Y-77109432D01*
X176463565Y-77216657D01*
X176272488Y-77355484D01*
X173355484Y-80272488D01*
X173216657Y-80463565D01*
X173135844Y-80622171D01*
X173109434Y-80674003D01*
X173036446Y-80898631D01*
X172999500Y-81131902D01*
X165762535Y-81131902D01*
X165770185Y-81105850D01*
X165786819Y-81085208D01*
X165832672Y-81039355D01*
X166362999Y-80509028D01*
X166894517Y-79977510D01*
X167033343Y-79786434D01*
X167140568Y-79575992D01*
X167213552Y-79351369D01*
X167233964Y-79222490D01*
X167250499Y-79118097D01*
X167250499Y-78881902D01*
X167227486Y-78736611D01*
X167213552Y-78648632D01*
X167140568Y-78424008D01*
X167140568Y-78424007D01*
X167061924Y-78269660D01*
X167033343Y-78213567D01*
X166894517Y-78022490D01*
X166727510Y-77855483D01*
X166536433Y-77716657D01*
X166484485Y-77690188D01*
X166325992Y-77609431D01*
X166325989Y-77609430D01*
X166101369Y-77536448D01*
X165868097Y-77499501D01*
X165868092Y-77499501D01*
X165631908Y-77499501D01*
X165631903Y-77499501D01*
X165398629Y-77536448D01*
X165174010Y-77609430D01*
X165174007Y-77609432D01*
X164963565Y-77716657D01*
X164772488Y-77855484D01*
X163746973Y-78880999D01*
X163685650Y-78914484D01*
X163615958Y-78909500D01*
X163560025Y-78867628D01*
X163535608Y-78802164D01*
X163535292Y-78793318D01*
X163535292Y-78782965D01*
X163535291Y-78782951D01*
X163517607Y-78648632D01*
X163501062Y-78522963D01*
X163433190Y-78269660D01*
X163433186Y-78269650D01*
X163332838Y-78027388D01*
X163332833Y-78027378D01*
X163201716Y-77800275D01*
X163042073Y-77592227D01*
X163042066Y-77592219D01*
X162856652Y-77406805D01*
X162856643Y-77406797D01*
X162648595Y-77247154D01*
X162421492Y-77116037D01*
X162421482Y-77116032D01*
X162179220Y-77015684D01*
X162179213Y-77015682D01*
X162179211Y-77015681D01*
X161925908Y-76947809D01*
X161868131Y-76940202D01*
X161665919Y-76913579D01*
X161665912Y-76913579D01*
X161403672Y-76913579D01*
X161403664Y-76913579D01*
X161172564Y-76944005D01*
X161143676Y-76947809D01*
X161011091Y-76983335D01*
X160890373Y-77015681D01*
X160890363Y-77015684D01*
X160648101Y-77116032D01*
X160648091Y-77116037D01*
X160420989Y-77247154D01*
X160340278Y-77309086D01*
X160275109Y-77334280D01*
X160206664Y-77320241D01*
X160189306Y-77309086D01*
X160108594Y-77247154D01*
X159881492Y-77116037D01*
X159881482Y-77116032D01*
X159639220Y-77015684D01*
X159639213Y-77015682D01*
X159639211Y-77015681D01*
X159385908Y-76947809D01*
X159328131Y-76940202D01*
X159125919Y-76913579D01*
X159125912Y-76913579D01*
X158863672Y-76913579D01*
X158863666Y-76913579D01*
X158863661Y-76913580D01*
X158765685Y-76926479D01*
X158696650Y-76915713D01*
X158644394Y-76869333D01*
X158625500Y-76803540D01*
X158625500Y-75765047D01*
X158645185Y-75698008D01*
X158661819Y-75677366D01*
X158662121Y-75677064D01*
X158741966Y-75597219D01*
X158741968Y-75597215D01*
X158741971Y-75597213D01*
X158818473Y-75491915D01*
X158862287Y-75431610D01*
X158955220Y-75249219D01*
X159018477Y-75054534D01*
X159050500Y-74852352D01*
X159050500Y-74647648D01*
X159018477Y-74445466D01*
X159015183Y-74435329D01*
X158955218Y-74250776D01*
X158921503Y-74184607D01*
X158862287Y-74068390D01*
X158828937Y-74022487D01*
X158741971Y-73902786D01*
X158597217Y-73758032D01*
X158597211Y-73758027D01*
X158431613Y-73637715D01*
X158431612Y-73637714D01*
X158431610Y-73637713D01*
X158374653Y-73608691D01*
X158249223Y-73544781D01*
X158054534Y-73481522D01*
X157879995Y-73453878D01*
X157852352Y-73449500D01*
X157647648Y-73449500D01*
X157623329Y-73453351D01*
X157445465Y-73481522D01*
X157250776Y-73544781D01*
X157068386Y-73637715D01*
X156902789Y-73758027D01*
X156902782Y-73758032D01*
X156758028Y-73902786D01*
X156637715Y-74068386D01*
X156544781Y-74250778D01*
X156481522Y-74445468D01*
X156467523Y-74533855D01*
X156458018Y-74563126D01*
X156458822Y-74563459D01*
X156456958Y-74567958D01*
X156402214Y-74736442D01*
X156383856Y-74852351D01*
X156374500Y-74911421D01*
X156374500Y-75870222D01*
X156354815Y-75937261D01*
X156302011Y-75983016D01*
X156232853Y-75992960D01*
X156169297Y-75963935D01*
X156131523Y-75905157D01*
X156128908Y-75894541D01*
X156124044Y-75870222D01*
X156019554Y-75347776D01*
X156015851Y-75307806D01*
X156001409Y-75257051D01*
X155531085Y-72905425D01*
X155528677Y-72881107D01*
X155528677Y-71870027D01*
X155548362Y-71802988D01*
X155601166Y-71757233D01*
X155657745Y-71746131D01*
X157315550Y-71813965D01*
G37*
%TD.AperFunction*%
%TD*%
M02*
