M48
; DRILL file KiCad 10.0.0 date 2026-04-04T19:22:01
; FORMAT={-:-/ absolute / metric / decimal}
; #@! TF.CreationDate,2026-04-04T19:22:01+02:00
; #@! TF.GenerationSoftware,Kicad,Pcbnew,10.0.0
; #@! TF.FileFunction,Plated,1,2,PTH
FMAT,2
METRIC
; #@! TA.AperFunction,Plated,PTH,ViaDrill
T1C0.300
; #@! TA.AperFunction,Plated,PTH,ComponentDrill
T2C1.100
; #@! TA.AperFunction,Plated,PTH,ComponentDrill
T3C3.000
%
G90
G05
T1
X84.0Y-89.0
X84.0Y-96.25
X86.0Y-89.418
X87.5Y-105.75
X88.5Y-89.25
X90.25Y-91.5
X90.5Y-94.0
X90.5Y-96.5
X90.75Y-99.25
X90.75Y-101.75
X91.0Y-104.25
X94.75Y-83.75
X101.355Y-82.246
X101.75Y-88.25
X101.75Y-99.25
X102.726Y-102.8
X103.25Y-97.9
X104.75Y-95.25
X105.75Y-104.5
X108.0Y-91.5
X111.0Y-92.5
X113.25Y-91.75
X114.25Y-81.0
X115.55Y-88.95
X121.0Y-83.0
X123.25Y-78.5
X127.62Y-89.2
X129.5Y-89.25
X132.75Y-91.25
X137.25Y-84.75
X139.0Y-75.0
X139.0Y-80.5
X139.0Y-88.75
X142.25Y-79.5
X142.25Y-86.25
X142.75Y-82.25
X144.116Y-99.634
X145.335Y-83.954
X146.087Y-80.398
X146.5Y-77.25
X146.75Y-92.657
X147.194Y-96.565
X147.54Y-99.2
X148.0Y-95.5
X148.5Y-90.5
X149.215Y-104.9
X149.385Y-95.245
X150.832Y-99.2
X150.871Y-95.148
X154.25Y-96.5
X155.0Y-97.25
X155.059Y-106.215
X155.631Y-105.641
X156.25Y-84.094
X156.561Y-80.33
X157.25Y-87.25
X157.5Y-78.25
X157.75Y-74.75
X163.0Y-102.0
X164.25Y-102.5
X165.75Y-79.0
X166.0Y-84.5
X166.0Y-104.0
X174.5Y-91.25
X177.25Y-78.5
X189.0Y-104.75
X190.821Y-81.839
X191.5Y-86.75
X194.25Y-81.0
X200.75Y-96.75
X216.25Y-90.0
T2
X158.995Y-78.914
X159.122Y-82.978
X161.535Y-78.914
X161.535Y-82.978
T3
X117.096Y-104.294
M30
